<svg width="1840" height="304" viewBox="0 0 1840 304" fill="none" xmlns="http://www.w3.org/2000/svg">
<path d="M56.0233 4.06417V299.936H0V4.06417H56.0233Z" fill="white"/>
<path d="M329.849 4.06417V299.936H273.622L147.518 94.6952V299.936H91.4952V4.06417H147.518L274.029 209.508V4.06417H329.849Z" fill="white"/>
<path d="M483.071 4.06417V299.936H427.252V4.06417H483.071ZM575.153 4.06417V48.1604H336.189V4.06417H575.153Z" fill="white"/>
<path d="M783.992 256.043V299.936H626.312V256.043H783.992ZM643.424 4.06417V299.936H587.401V4.06417H643.424ZM763.416 126.193V169.07H626.312V126.193H763.416ZM783.381 4.06417V48.1604H626.312V4.06417H783.381Z" fill="white"/>
<path d="M797.869 4.06417H905.638C928.183 4.06417 947.536 7.45098 963.698 14.2246C979.86 20.9982 992.287 31.0232 1000.98 44.2995C1009.67 57.5758 1014.02 73.9002 1014.02 93.2727C1014.02 108.581 1011.3 121.857 1005.87 133.102C1000.44 144.346 992.762 153.761 982.848 161.348C973.069 168.934 961.525 174.895 948.215 179.23L930.695 188.171H835.558L835.15 144.075H906.249C917.793 144.075 927.368 142.043 934.974 137.979C942.579 133.914 948.283 128.292 952.086 121.112C956.025 113.932 957.994 105.736 957.994 96.5241C957.994 86.6346 956.093 78.0998 952.29 70.9198C948.487 63.6043 942.715 57.9822 934.974 54.0535C927.232 50.1248 917.453 48.1604 905.638 48.1604H853.893V299.936H797.869V4.06417ZM965.328 299.936L896.674 167.444L955.957 167.241L1025.43 297.091V299.936H965.328Z" fill="white"/>
<path d="M1231.03 192.032H1154.63V148.139H1231.03C1243.52 148.139 1253.64 146.107 1261.38 142.043C1269.26 137.843 1275.03 132.153 1278.7 124.973C1282.37 117.658 1284.2 109.326 1284.2 99.9786C1284.2 90.902 1282.37 82.4349 1278.7 74.5775C1275.03 66.7201 1269.26 60.3529 1261.38 55.4759C1253.64 50.5989 1243.52 48.1604 1231.03 48.1604H1172.97V299.936H1116.95V4.06417H1231.03C1254.12 4.06417 1273.81 8.19608 1290.11 16.4599C1306.54 24.5882 1319.04 35.9002 1327.59 50.3957C1336.28 64.7558 1340.63 81.1479 1340.63 99.5722C1340.63 118.674 1336.28 135.134 1327.59 148.952C1319.04 162.77 1306.54 173.405 1290.11 180.856C1273.81 188.307 1254.12 192.032 1231.03 192.032Z" fill="white"/>
<path d="M1359.6 4.06417H1467.37C1489.91 4.06417 1509.27 7.45098 1525.43 14.2246C1541.59 20.9982 1554.02 31.0232 1562.71 44.2995C1571.4 57.5758 1575.75 73.9002 1575.75 93.2727C1575.75 108.581 1573.03 121.857 1567.6 133.102C1562.17 144.346 1554.49 153.761 1544.58 161.348C1534.8 168.934 1523.26 174.895 1509.95 179.23L1492.43 188.171H1397.29L1396.88 144.075H1467.98C1479.53 144.075 1489.1 142.043 1496.71 137.979C1504.31 133.914 1510.02 128.292 1513.82 121.112C1517.76 113.932 1519.73 105.736 1519.73 96.5241C1519.73 86.6346 1517.82 78.0998 1514.02 70.9198C1510.22 63.6043 1504.45 57.9822 1496.71 54.0535C1488.96 50.1248 1479.19 48.1604 1467.37 48.1604H1415.62V299.936H1359.6V4.06417ZM1527.06 299.936L1458.41 167.444L1517.69 167.241L1587.16 297.091V299.936H1527.06Z" fill="white"/>
<path d="M1840 144.481V159.722C1840 182.075 1837.01 202.193 1831.04 220.075C1825.06 237.822 1816.57 252.927 1805.57 265.39C1794.57 277.854 1781.46 287.405 1766.25 294.043C1751.04 300.681 1734.13 304 1715.53 304C1697.19 304 1680.35 300.681 1665 294.043C1649.79 287.405 1636.62 277.854 1625.48 265.39C1614.34 252.927 1605.72 237.822 1599.61 220.075C1593.5 202.193 1590.44 182.075 1590.44 159.722V144.481C1590.44 121.993 1593.5 101.875 1599.61 84.1283C1605.72 66.3815 1614.28 51.2763 1625.28 38.8128C1636.28 26.2139 1649.39 16.5954 1664.6 9.95722C1679.94 3.31907 1696.78 0 1715.12 0C1733.73 0 1750.63 3.31907 1765.85 9.95722C1781.06 16.5954 1794.16 26.2139 1805.16 38.8128C1816.3 51.2763 1824.86 66.3815 1830.83 84.1283C1836.94 101.875 1840 121.993 1840 144.481ZM1783.37 159.722V144.075C1783.37 127.954 1781.87 113.797 1778.88 101.604C1775.9 89.2763 1771.48 78.9127 1765.64 70.5134C1759.8 62.1141 1752.6 55.8146 1744.05 51.615C1735.49 47.2799 1725.85 45.1123 1715.12 45.1123C1704.25 45.1123 1694.61 47.2799 1686.19 51.615C1677.91 55.8146 1670.84 62.1141 1665 70.5134C1659.16 78.9127 1654.68 89.2763 1651.56 101.604C1648.57 113.797 1647.08 127.954 1647.08 144.075V159.722C1647.08 175.708 1648.57 189.865 1651.56 202.193C1654.68 214.521 1659.16 224.952 1665 233.487C1670.98 241.886 1678.18 248.253 1686.6 252.588C1695.02 256.923 1704.66 259.091 1715.53 259.091C1726.39 259.091 1736.03 256.923 1744.45 252.588C1752.88 248.253 1759.94 241.886 1765.64 233.487C1771.48 224.952 1775.9 214.521 1778.88 202.193C1781.87 189.865 1783.37 175.708 1783.37 159.722Z" fill="white"/>
</svg>
