<svg width="100" height="43" viewBox="0 0 100 43" fill="none" xmlns="http://www.w3.org/2000/svg">
<g clip-path="url(#clip0_2661_15700)">
<path fill-rule="evenodd" clip-rule="evenodd" d="M0 17.7063H3.84105V0.002331H0V17.7063ZM7.92548 17.7063H11.7665V3.79487H13.926L23.168 17.704H31.3302L31.3545 0H27.5135V13.9091H25.354L16.1098 0.002331H7.94761L7.92327 17.7063H7.92548ZM43.0458 17.7063H46.8869V3.79487H55.4098V0.002331H34.5252V3.79487H43.0481V17.704L43.0458 17.7063ZM58.3503 17.7063H75.8032V13.9137H62.1913V9.10956H75.0575V8.60373H62.1913V3.79953H75.8032V0.002331H58.3503V17.7063ZM92.933 9.10722C96.9422 9.10722 99.3672 7.61538 99.3672 5.51515C99.3672 2.78322 97.0396 0.002331 92.933 0.002331H78.9627V17.7063H82.8038V9.10722H87.51L94.8557 17.7063H99.8252L92.4794 9.10722H92.9352H92.933ZM82.8038 8.6014V3.7972H92.9352C94.7363 3.7972 95.6479 5.21445 95.6479 6.17482C95.6479 7.38928 94.7363 8.60373 92.9352 8.60373H82.8038V8.6014ZM19.6101 36.6783C23.8826 36.6783 26.0443 33.8461 26.0443 31.014C26.0443 28.1818 23.8826 25.2984 19.6101 25.2984H0.0199133V43.0023H3.86096V36.6806H19.6079L19.6101 36.6783ZM3.86096 36.1725V29.0909H19.6079C21.409 29.0909 22.3206 30.8601 22.3206 32.6317C22.3206 34.4033 21.409 36.1725 19.6079 36.1725H3.86096ZM42.3179 34.4033C46.3271 34.4033 48.7521 32.9114 48.7521 30.8112C48.7521 28.0792 46.4245 25.2984 42.3179 25.2984H28.3454V43.0023H32.1865V34.4033H36.8926L44.2384 43.0023H49.2079L41.8621 34.4033H42.3179ZM32.1887 33.8974V29.0932H42.3201C44.1212 29.0932 45.0327 30.5105 45.0327 31.4709C45.0327 32.6853 44.1212 33.8998 42.3201 33.8998H32.1887V33.8974ZM65.1717 43.0023C72.2807 43.0023 74.1946 38.8205 74.2676 34.4149H70.2828C70.212 38.0023 68.6654 39.2098 65.1717 39.2098H59.8195C56.328 39.2098 54.7792 38.0047 54.7084 34.4149H50.7235C50.7965 38.8205 52.7104 43.0023 59.8195 43.0023H65.1717ZM74.2676 33.8858C74.1946 29.4802 72.2807 25.2984 65.1717 25.2984H59.8195C52.7104 25.2984 50.7965 29.4802 50.7235 33.8858H54.7084C54.7792 30.2984 56.3258 29.0909 59.8195 29.0909H65.1717C68.6632 29.0909 70.212 30.296 70.2828 33.8858H74.2676Z" fill="white"/>
</g>
<defs>
<clipPath id="clip0_2661_15700">
<rect width="100" height="43" fill="white"/>
</clipPath>
</defs>
</svg>
