<svg width="74" height="31" viewBox="0 0 74 31" fill="none" xmlns="http://www.w3.org/2000/svg">
  <g clip-path="url(#clip0_3444_15622)">
    <path fill-rule="evenodd" clip-rule="evenodd" d="M0 12.765H2.84238V0.00168049H0V12.765ZM5.86485 12.765H8.70723V2.73584H10.3052L17.1443 12.7633H23.1844L23.2024 0H20.36V10.0275H18.762L11.9213 0.00168049H5.88123L5.86322 12.765H5.86485ZM31.8539 12.765H34.6963V2.73584H41.0032V0.00168049H25.5486V2.73584H31.8556V12.7633L31.8539 12.765ZM43.1792 12.765H56.0943V10.0308H46.0216V6.56735H55.5426V6.20269H46.0216V2.7392H56.0943V0.00168049H43.1792V12.765ZM68.7704 6.56567C71.7372 6.56567 73.5317 5.49016 73.5317 3.97604C73.5317 2.0065 71.8093 0.00168049 68.7704 0.00168049H58.4324V12.765H61.2748V6.56567H64.7574L70.1932 12.765H73.8706L68.4348 6.56567H68.7721H68.7704ZM61.2748 6.20101V2.73752H68.7721C70.1048 2.73752 70.7794 3.75926 70.7794 4.45162C70.7794 5.32715 70.1048 6.20269 68.7721 6.20269H61.2748V6.20101ZM14.5115 26.4425C17.6732 26.4425 19.2728 24.4007 19.2728 22.3589C19.2728 20.3171 17.6732 18.2384 14.5115 18.2384H0.0147358V31.0017H2.85711V26.4442H14.5099L14.5115 26.4425ZM2.85711 26.0778V20.9725H14.5099C15.8426 20.9725 16.5172 22.248 16.5172 23.5252C16.5172 24.8023 15.8426 26.0778 14.5099 26.0778H2.85711ZM31.3152 24.8024C34.2821 24.8024 36.0766 23.7268 36.0766 22.2127C36.0766 20.2432 34.3541 18.2384 31.3152 18.2384H20.9756V31.0017H23.818V24.8024H27.3006L32.7364 31.0017H36.4138L30.978 24.8024H31.3152ZM23.8196 24.4377V20.9742H31.3169C32.6497 20.9742 33.3242 21.9959 33.3242 22.6883C33.3242 23.5638 32.6497 24.4394 31.3169 24.4394H23.8196V24.4377ZM48.2271 31.0017C53.4877 31.0017 54.904 27.9869 54.958 24.8108H52.0092C51.9568 27.397 50.8124 28.2675 48.2271 28.2675H44.2664C41.6827 28.2675 40.5366 27.3987 40.4842 24.8108H37.5354C37.5894 27.9869 39.0057 31.0017 44.2664 31.0017H48.2271ZM54.958 24.4293C54.904 21.2532 53.4877 18.2384 48.2271 18.2384H44.2664C39.0057 18.2384 37.5894 21.2532 37.5354 24.4293H40.4842C40.5366 21.843 41.6811 20.9725 44.2664 20.9725H48.2271C50.8107 20.9725 51.9568 21.8413 52.0092 24.4293H54.958Z" fill="black" />
  </g>
  <defs>
    <clipPath id="clip0_3444_15622">
      <rect width="74" height="31" fill="white" />
    </clipPath>
  </defs>
</svg>