<svg width="143" height="100" viewBox="0 0 143 100" fill="none" xmlns="http://www.w3.org/2000/svg">
<path d="M101.211 23.7243V26.0534H121.092C122.417 26.0534 124.405 26.0534 125.711 27.3855C127.016 28.7176 127.036 30.7157 127.036 32.0276V52.0088C127.036 53.3408 127.036 55.339 125.711 56.6509C124.385 57.9829 122.397 57.9829 121.092 57.9829H111.493C109.838 57.9829 107.681 57.9829 106.874 56.1503C106.047 54.3177 107.205 52.6546 108.199 51.3064L121.132 33.9894H101.251L93.2986 44.646C91.9652 46.4302 90.8125 47.9762 90.8125 49.9743C90.8125 51.9724 91.8849 53.4095 93.2986 55.3026L95.2867 57.9668C97.2748 60.6309 99.2629 63.2951 101.914 64.6272C104.564 65.9593 107.697 65.9593 112.035 65.9593H120.63C125.61 65.9593 133.04 65.9593 138.021 60.9539C143.001 55.9485 143.001 48.6422 143.001 45.9781V37.9856C143.001 35.3215 143.001 28.0152 138.021 23.0098C133.04 18.0045 125.61 18.0045 120.63 18.0045L106.894 18C105.569 17.9996 103.914 18 102.596 19.3321C101.271 20.6642 101.271 22.3272 101.271 23.6513" fill="#0C0C0C"/>
<path d="M77.5109 34.0625H97.191L73.4946 66.1131H53.8145L77.5109 34.0625Z" fill="#0C0C0C"/>
<path d="M0 39.7137C0 38.3817 0 36.7186 1.32539 35.3946C2.65079 34.0706 4.30552 34.0625 5.62289 34.0625H38.9184C43.2159 34.0625 46.3888 34.0625 49.0396 35.3946C51.6904 36.7267 53.6584 39.3908 55.6666 42.055L57.6547 44.7191C59.0644 46.6083 60.1408 48.0493 60.1408 50.0474C60.1408 52.0455 58.9881 53.5916 57.6547 55.3757L49.7023 66.0324H29.8214L42.754 48.7154C43.7461 47.3833 44.9068 45.7202 44.0794 43.8714C43.252 42.0388 41.0993 42.0388 39.4606 42.0388H23.8772V82.0012H7.97245V42.0388H0.0200817V39.7057" fill="#0C0C0C"/>
</svg>
