<svg width="341" height="100" viewBox="0 0 341 100" fill="none" xmlns="http://www.w3.org/2000/svg">
<g clip-path="url(#clip0_3633_89646)">
<path d="M89.2888 66.1553H77.9969C77.7681 66.1553 77.5542 66.0353 77.4397 65.8353L74.4452 60.8268H57.5322C57.2437 60.8268 57.0646 60.5069 57.2139 60.257L60.9098 54.0688C61.0292 53.8689 61.2381 53.7489 61.467 53.7489H70.2169L64.7401 44.5816C64.4864 44.1567 63.8746 44.1567 63.6209 44.5816L50.9262 65.8403C50.8068 66.0403 50.5979 66.1602 50.3691 66.1602H39.0772C38.7887 66.1602 38.6096 65.8403 38.7588 65.5904L57.5223 34.1747C57.6416 33.9747 57.8506 33.8547 58.0794 33.8547H70.2915C70.5204 33.8547 70.7343 33.9747 70.8487 34.1697L89.6071 65.5804C89.7564 65.8303 89.5773 66.1503 89.2888 66.1503M26.4323 33.8198C26.0741 33.8198 25.7806 34.1147 25.7806 34.4746V55.5834C25.7806 57.4378 24.2834 58.9424 22.4379 58.9424H15.8866C14.0411 58.9424 12.5438 57.4378 12.5438 55.5834V53.469C12.5438 53.1091 12.2503 52.8142 11.8921 52.8142H1.0579C0.699739 52.8142 0.40625 53.1091 0.40625 53.469V55.5734C0.40625 56.748 0.600251 57.8827 0.953434 58.9374C2.35124 63.1061 6.27604 66.1103 10.8973 66.1103H27.1387C31.7599 66.1103 35.6847 63.1061 37.0775 58.9374C37.4307 57.8827 37.6247 56.748 37.6247 55.5734V34.4746C37.6247 34.1147 37.3312 33.8198 36.973 33.8198H26.4373H26.4323ZM118.508 54.8986C116.812 57.2579 113.927 58.8124 110.654 58.8124C105.436 58.8124 101.207 54.8686 101.207 50.005C101.207 45.1414 105.436 41.1926 110.654 41.1926C113.927 41.1926 116.807 42.7421 118.503 45.1014C118.623 45.2714 118.822 45.3714 119.031 45.3714H131.656C132.133 45.3714 132.447 44.8715 132.243 44.4366C129.149 37.7786 120.652 33 110.654 33C98.0387 33 87.8114 40.6128 87.8114 50C87.8114 59.3872 98.0387 67 110.654 67C120.652 67 129.144 62.2214 132.243 55.5634C132.447 55.1285 132.133 54.6286 131.656 54.6286H119.036C118.827 54.6286 118.633 54.7286 118.508 54.8986Z" fill="black"/>
<path d="M187.348 66.3162H183.274V44.8975C183.274 43.208 183.388 41.1336 183.617 38.6844H183.518C183.125 40.1239 182.777 41.1536 182.468 41.7785L170.515 66.3162H168.515L156.586 41.9584C156.243 41.2436 155.895 40.1539 155.537 38.6844H155.437C155.567 39.959 155.631 42.0484 155.631 44.9425V66.3162H151.682V34.3906H157.099L167.834 56.6591C168.664 58.3636 169.201 59.6432 169.445 60.488H169.594C170.291 58.7385 170.853 57.4289 171.276 56.5691L182.229 34.3906H187.353V66.3212L187.348 66.3162Z" fill="black"/>
<path d="M208.351 66.8519C203.391 66.8519 199.417 65.3623 196.432 62.3782C193.447 59.3941 191.955 55.5152 191.955 50.7316C191.955 45.5981 193.477 41.4993 196.517 38.4402C199.556 35.3811 203.695 33.8516 208.933 33.8516C213.763 33.8516 217.653 35.3361 220.608 38.3053C223.557 41.2744 225.035 45.1582 225.035 49.9518C225.035 55.1603 223.523 59.2791 220.498 62.3082C217.474 65.3373 213.425 66.8519 208.351 66.8519ZM208.644 37.2406C204.968 37.2406 201.983 38.4502 199.69 40.8695C197.397 43.2888 196.253 46.4679 196.253 50.3967C196.253 54.3255 197.372 57.4946 199.606 59.8939C201.839 62.2932 204.754 63.4878 208.351 63.4878C212.191 63.4878 215.215 62.3432 217.424 60.0589C219.638 57.7745 220.742 54.5755 220.742 50.4617C220.742 46.3479 219.667 42.9889 217.523 40.6846C215.375 38.3852 212.415 37.2356 208.644 37.2356V37.2406Z" fill="black"/>
<path d="M250.703 37.7746H240.605V66.3162H236.506V37.7746H226.428V34.3906H250.703V37.7746Z" fill="black"/>
<path d="M268.392 66.8519C263.432 66.8519 259.458 65.3623 256.473 62.3782C253.488 59.3941 251.996 55.5152 251.996 50.7316C251.996 45.5981 253.518 41.4993 256.558 38.4402C259.597 35.3811 263.736 33.8516 268.974 33.8516C273.804 33.8516 277.694 35.3361 280.649 38.3053C283.598 41.2744 285.076 45.1582 285.076 49.9518C285.076 55.1603 283.564 59.2791 280.539 62.3082C277.515 65.3373 273.466 66.8519 268.392 66.8519ZM268.685 37.2406C265.009 37.2406 262.024 38.4502 259.731 40.8695C257.438 43.2888 256.294 46.4679 256.294 50.3967C256.294 54.3255 257.413 57.4946 259.647 59.8939C261.88 62.2932 264.795 63.4878 268.392 63.4878C272.232 63.4878 275.256 62.3432 277.465 60.0589C279.679 57.7745 280.783 54.5755 280.783 50.4617C280.783 46.3479 279.708 42.9889 277.564 40.6846C275.416 38.3852 272.456 37.2356 268.685 37.2356V37.2406Z" fill="black"/>
<path d="M315.584 66.3162H310.704L304.849 57.3639C304.312 56.5341 303.789 55.8243 303.287 55.2395C302.785 54.6547 302.267 54.1748 301.74 53.8049C301.213 53.435 300.641 53.1601 300.034 52.9902C299.427 52.8202 298.735 52.7352 297.974 52.7352H294.607V66.3162H290.508V34.3906H300.949C302.476 34.3906 303.889 34.5656 305.182 34.9155C306.476 35.2654 307.595 35.7952 308.55 36.51C309.5 37.2248 310.246 38.1095 310.783 39.1692C311.321 40.2289 311.589 41.4735 311.589 42.8981C311.589 44.0128 311.405 45.0325 311.042 45.9572C310.679 46.887 310.157 47.7117 309.48 48.4415C308.804 49.1713 307.993 49.7911 307.043 50.3009C306.093 50.8108 305.023 51.2107 303.834 51.4906V51.5806C304.421 51.8205 304.929 52.0904 305.361 52.3953C305.794 52.7002 306.202 53.0601 306.595 53.475C306.983 53.8899 307.371 54.3598 307.754 54.8896C308.137 55.4144 308.565 56.0293 309.037 56.7241L315.599 66.3212L315.584 66.3162ZM294.607 37.7746V49.3512H300.168C301.193 49.3512 302.138 49.2113 303.008 48.9264C303.879 48.6414 304.63 48.2416 305.267 47.7117C305.904 47.1869 306.396 46.5371 306.754 45.7723C307.112 45.0075 307.291 44.1528 307.291 43.198C307.291 41.4885 306.685 40.1589 305.476 39.1992C304.262 38.2395 302.511 37.7646 300.218 37.7646H294.607V37.7746Z" fill="black"/>
<path d="M319.204 65.0263V60.6176C319.756 61.0625 320.418 61.4624 321.194 61.8222C321.965 62.1771 322.781 62.4771 323.631 62.722C324.487 62.9669 325.343 63.1569 326.203 63.2868C327.064 63.4218 327.865 63.4868 328.596 63.4868C331.118 63.4868 332.998 63.0619 334.242 62.2071C335.485 61.3524 336.107 60.1227 336.107 58.5232C336.107 57.6635 335.898 56.9137 335.485 56.2739C335.073 55.6341 334.496 55.0542 333.764 54.5244C333.033 53.9995 332.167 53.4947 331.168 53.0098C330.168 52.53 329.088 52.0201 327.934 51.4853C326.716 50.9205 325.576 50.3506 324.517 49.7708C323.457 49.191 322.542 48.5561 321.761 47.8564C320.98 47.1566 320.368 46.3668 319.921 45.487C319.473 44.6023 319.249 43.5676 319.249 42.383C319.249 40.9284 319.597 39.6638 320.299 38.5841C321 37.5094 321.915 36.6197 323.054 35.9249C324.194 35.2251 325.487 34.7052 326.944 34.3653C328.402 34.0254 329.884 33.8555 331.396 33.8555C334.844 33.8555 337.356 34.2354 338.933 34.9901V39.1989C336.868 37.8943 334.217 37.2395 330.979 37.2395C330.083 37.2395 329.188 37.3244 328.292 37.4944C327.397 37.6643 326.601 37.9443 325.9 38.3292C325.198 38.714 324.631 39.2139 324.194 39.8237C323.756 40.4335 323.537 41.1733 323.537 42.0481C323.537 42.8628 323.706 43.5726 324.039 44.1624C324.373 44.7573 324.865 45.2971 325.517 45.787C326.168 46.2768 326.959 46.7517 327.894 47.2115C328.83 47.6714 329.909 48.1763 331.128 48.7261C332.381 49.2909 333.565 49.8858 334.689 50.5056C335.814 51.1304 336.794 51.8202 337.639 52.575C338.485 53.3297 339.156 54.1695 339.649 55.0892C340.146 56.009 340.395 57.0636 340.395 58.2533C340.395 59.8278 340.057 61.1574 339.38 62.2521C338.704 63.3418 337.794 64.2315 336.649 64.9113C335.5 65.5961 334.182 66.086 332.685 66.3909C331.188 66.6958 329.611 66.8458 327.954 66.8458C327.402 66.8458 326.72 66.8058 325.905 66.7258C325.089 66.6458 324.263 66.5259 323.417 66.3709C322.572 66.216 321.771 66.021 321.015 65.7911C320.259 65.5611 319.652 65.3062 319.199 65.0213" fill="black"/>
</g>
<defs>
<clipPath id="clip0_3633_89646">
<rect width="340" height="34" fill="white" transform="translate(0.40625 33)"/>
</clipPath>
</defs>
</svg>
