<svg width="191" height="100" viewBox="0 0 191 100" fill="none" xmlns="http://www.w3.org/2000/svg">
<path fill-rule="evenodd" clip-rule="evenodd" d="M78.7676 17.5V82.5H85.2485V52.9855H93.1089V82.5H99.5865V17.5H93.1089V48.3183H85.2485V17.5H78.7676Z" fill="#231F20"/>
<path fill-rule="evenodd" clip-rule="evenodd" d="M106.068 17.5V82.5L126.711 82.49L126.674 76.9301H112.563L112.533 52.7749L126.521 52.8284L126.477 48.1846H112.533L112.563 23.0866H126.674L126.711 17.5H106.068Z" fill="#231F20"/>
<path fill-rule="evenodd" clip-rule="evenodd" d="M133.178 17.5V82.5H149.888V77.8395H138.756V17.5H133.178Z" fill="#231F20"/>
<path d="M161.034 17.5H154.553V82.5H161.034V17.5Z" fill="#231F20"/>
<path fill-rule="evenodd" clip-rule="evenodd" d="M190.407 82.5L181.307 46.4929L190.407 17.5H183.923L178.271 35.4099L172.63 17.5H166.143L174.703 46.1352L166.143 82.5H172.63L177.732 58.8664L183.926 82.5H190.407Z" fill="#231F20"/>
<path fill-rule="evenodd" clip-rule="evenodd" d="M65.0757 81.5405C65.0757 81.5405 56.4256 81.7912 47.089 80.4606C16.0505 76.0776 0.40625 54.6271 0.40625 43.5007C0.40625 4.72868 65.189 21.3648 65.189 43.5007C65.189 63.1057 20.7854 63.119 16.5736 43.611C10.7091 16.4836 55.7991 27.824 49.708 43.5274C47.3023 49.7626 36.0431 48.3183 31.1582 43.611C25.8002 38.4523 31.7413 33.8252 31.7413 33.8252C31.7413 33.8252 24.4207 37.4226 28.6425 43.5007C33.9705 51.1568 49.6081 51.6583 51.9572 43.5007C57.0153 26.0153 9.83277 14.6582 14.2645 43.5007C18.0064 67.9166 65.1856 63.0087 65.1856 63.0087V17.5H0.40625V82.5H65.189L65.079 81.5405H65.0757Z" fill="black"/>
</svg>
