<svg width="154" height="100" viewBox="0 0 154 100" fill="none" xmlns="http://www.w3.org/2000/svg">
<g clip-path="url(#clip0_3633_89644)">
<path d="M15.1111 31.6884L15.1215 53.4369C15.1215 55.6398 15.5106 59.568 19.6789 59.5663C23.8455 59.5646 24.2312 55.6364 24.2294 53.4335L24.219 31.685L38.9239 31.6782L38.9343 53.952C38.9412 68.4153 24.2363 69 19.6841 69.0017C15.1284 69.0017 0.421816 68.434 0.416627 53.9707L0.40625 31.6952L15.1111 31.6884ZM86.7173 31.6544L86.7346 68.3388L119.55 68.3235L119.545 57.841L101.439 57.8495L101.427 31.6459L86.7173 31.6527V31.6544ZM153.401 57.7203C149.449 58.9306 147.256 59.1397 145.829 59.1397C136.61 59.1447 135.182 53.0664 135.178 49.66C135.177 44.367 139.289 40.4371 145.547 40.432C148.506 40.432 151.144 41.0558 153.282 41.8411L153.278 32.1473L152.4 31.9893C150.646 31.6765 147.406 31 143.015 31C125.897 31.0085 119.7 40.5493 119.705 49.9813C119.709 61.0366 127.781 68.9473 142.652 68.9405C145.45 68.9405 148.963 68.6227 153.406 67.4685L153.401 57.7203ZM55.7215 44.9143L70.4316 51.7066L70.4402 68.3473L55.7337 68.3541L55.7215 44.9143ZM42.767 31.6748L83.3705 31.6561L83.3757 42.4989L42.7722 42.5176L42.767 31.6748Z" fill="black"/>
</g>
<defs>
<clipPath id="clip0_3633_89644">
<rect width="153" height="38" fill="white" transform="translate(0.40625 31)"/>
</clipPath>
</defs>
</svg>
