<svg width="317" height="100" viewBox="0 0 317 100" fill="none" xmlns="http://www.w3.org/2000/svg">
<g clip-path="url(#clip0_3633_89643)">
<path fill-rule="evenodd" clip-rule="evenodd" d="M30.1278 20C13.7115 20 0.40625 33.4299 0.40625 50C0.40625 66.5701 13.7115 80 30.1278 80C46.5442 80 59.8494 66.5701 59.8494 50C59.8494 33.4299 46.5409 20 30.1278 20Z" fill="black"/>
<path fill-rule="evenodd" clip-rule="evenodd" d="M30.1278 23.1016C15.4093 23.1016 3.48047 35.1421 3.48047 49.9985C3.48047 64.8548 15.4093 76.8954 30.1278 76.8954C44.8462 76.8954 56.7751 64.8548 56.7751 49.9985C56.7751 35.1421 44.8429 23.1016 30.1278 23.1016ZM30.1278 74.4785C16.7321 74.4785 5.87159 63.5162 5.87159 49.9951C5.87159 48.3421 6.03569 46.7297 6.34379 45.168H9.96731V41.0306H7.55275C11.0959 31.9478 19.8633 25.5151 30.1211 25.5151C43.5167 25.5151 54.3772 36.4773 54.3772 49.9985C54.3772 51.6514 54.2131 53.2638 53.9017 54.8255H49.2534V58.963H52.6927C49.1462 68.0458 40.3821 74.4785 30.1244 74.4785H30.1278Z" fill="white"/>
<path fill-rule="evenodd" clip-rule="evenodd" d="M12.3613 45.1721H19.1931V58.9636H23.9787V45.1721H30.8105V41.0312H12.3613V45.1721Z" fill="white"/>
<path fill-rule="evenodd" clip-rule="evenodd" d="M31.8359 47.5861V52.4132C31.8359 56.0301 34.7428 58.9642 38.3261 58.9642H46.8659V54.8267H39.0093C37.6898 54.8267 36.6182 53.745 36.6182 52.4132V47.5861C36.6182 46.2543 37.6898 45.1726 39.0093 45.1726H46.8659V41.0352H38.3261C34.7428 41.0352 31.8359 43.9692 31.8359 47.5861Z" fill="white"/>
<path fill-rule="evenodd" clip-rule="evenodd" d="M76.9297 44.1383H83.7615V58.9642H87.1774V44.1383H94.0091V41.0352H76.9297V44.1383Z" fill="black"/>
<path fill-rule="evenodd" clip-rule="evenodd" d="M230.998 41.0352V44.1349V48.4481V51.5512V55.8611V58.9642H234.414H245.348V55.8611H234.414V51.5512H243.637V48.4481H234.414V44.1349H245.348V41.0352H234.414H230.998Z" fill="black"/>
<path fill-rule="evenodd" clip-rule="evenodd" d="M144.57 48.4481H135.006V41.0352H131.59V58.9642H135.006V51.5512H144.57V58.9642H147.986V41.0352H144.57V48.4481Z" fill="black"/>
<path fill-rule="evenodd" clip-rule="evenodd" d="M266.868 41.0352H265.502V58.9642H268.918V44.1349H279.169V41.0352H268.918H266.868Z" fill="black"/>
<path fill-rule="evenodd" clip-rule="evenodd" d="M257.988 41.0352H247.74V58.9676H251.156V52.7614H257.988C261.196 52.7614 263.795 50.1383 263.795 46.8999C263.795 43.6616 261.196 41.0385 257.988 41.0385V41.0352ZM257.646 49.6549H251.156V44.1383H257.646C259.157 44.1383 260.379 45.3721 260.379 46.8966C260.379 48.4211 259.157 49.6549 257.646 49.6549Z" fill="black"/>
<path fill-rule="evenodd" clip-rule="evenodd" d="M106.308 41.0352H96.0605V58.9676H99.4764V52.7614H106.308C109.516 52.7614 112.115 50.1383 112.115 46.8999C112.115 43.6616 109.516 41.0385 106.308 41.0385V41.0352ZM105.967 49.6549H99.4764V44.1383H105.967C107.477 44.1383 108.699 45.3721 108.699 46.8966C108.699 48.4211 107.477 49.6549 105.967 49.6549Z" fill="black"/>
<path fill-rule="evenodd" clip-rule="evenodd" d="M314.014 41.0346H306.158C302.95 41.0346 300.351 43.6577 300.351 46.896C300.351 50.1343 302.95 52.7574 306.158 52.7574L299.326 58.9636H303.938L310.769 52.7574H312.99V58.9636H316.406V41.0312H314.014V41.0346ZM306.496 49.6543C304.986 49.6543 303.763 48.4205 303.763 46.896C303.763 45.3715 304.986 44.1377 306.496 44.1377H312.986V49.6543H306.496Z" fill="black"/>
<path fill-rule="evenodd" clip-rule="evenodd" d="M224.51 48.4481H214.945V41.0352H211.529V58.9642H214.945V51.5512H224.51V58.9642H227.926V41.0352H224.51V48.4481Z" fill="black"/>
<path fill-rule="evenodd" clip-rule="evenodd" d="M205.038 41.0352H202.302L194.445 57.5309V41.0352H191.029V58.9642H193.762H194.445H197.178L205.038 42.4684V58.9642H208.454V41.0352H205.721H205.038Z" fill="black"/>
<path fill-rule="evenodd" clip-rule="evenodd" d="M153.792 52.5856V47.4137C153.792 45.6053 155.246 44.1383 157.037 44.1383H164.382V41.0352H156.525V41.0419C153.169 41.1332 150.474 43.8543 150.383 47.2414H150.373V52.758H150.383C150.474 56.1416 153.169 58.8661 156.525 58.9574V58.9642H164.723V55.8611H157.037C155.246 55.8611 153.792 54.394 153.792 52.5856Z" fill="black"/>
<path fill-rule="evenodd" clip-rule="evenodd" d="M177.367 52.5856V47.4137C177.367 45.6053 178.82 44.1383 180.612 44.1383H187.956V41.0352H180.1V41.0419C176.744 41.1332 174.048 43.8543 173.958 47.2414H173.951V52.758H173.958C174.048 56.1416 176.744 58.8661 180.1 58.9574V58.9642H188.298V55.8611H180.612C178.82 55.8611 177.367 54.394 177.367 52.5856Z" fill="black"/>
<path fill-rule="evenodd" clip-rule="evenodd" d="M294.542 41.0352H291.809L283.952 57.5309V41.0352H280.533V58.9642H283.269H283.952H286.685L294.542 42.4684V58.9642H297.958V41.0352H295.225H294.542Z" fill="black"/>
<path fill-rule="evenodd" clip-rule="evenodd" d="M121.681 41.0352H118.265L110.75 58.9676H114.166L115.901 54.8301H125.07L126.805 58.9676H130.221L122.706 41.0352H121.681ZM117.056 52.0684L120.485 43.7935L123.915 52.0684H117.056Z" fill="black"/>
</g>
<defs>
<clipPath id="clip0_3633_89643">
<rect width="316" height="60" fill="white" transform="translate(0.40625 20)"/>
</clipPath>
</defs>
</svg>
