<svg width="203" height="100" viewBox="0 0 203 100" fill="none" xmlns="http://www.w3.org/2000/svg">
<g clip-path="url(#clip0_3633_89642)">
<path fill-rule="evenodd" clip-rule="evenodd" d="M198.308 43.3287C197.144 43.3287 195.954 42.9055 195.28 42.5559C181.528 35.4124 165.923 31.1899 150.769 31.1899C148.869 31.1899 147.463 31.2663 145.693 31.4426C148.553 35.9737 153.476 42.5676 156.849 46.6051C157.727 47.6541 157.986 48.2859 157.986 49.2996C157.986 51.0598 156.128 52.767 154.154 52.767C152.834 52.767 152.041 52.2469 150.822 50.8159C146.712 46.0086 140.543 37.487 137.621 32.6532C123.239 35.1891 107.207 43.6607 97.7323 51.145C96.6482 52.0118 95.897 52.3674 94.8099 52.3674C92.7948 52.3674 91.0449 50.6396 91.0449 48.662C91.0449 47.5189 91.4662 46.6609 92.948 45.4297C107.407 33.426 129.864 23.9465 148.936 23.9465C156.496 23.9465 163.79 24.9926 170.843 26.7146C175.126 27.7577 181.478 29.8793 186.887 32.233C172.705 23.6879 154.931 15.8775 143.693 15.8775C140.826 15.8775 139.07 16.8354 139.07 18.7601C139.07 19.8944 139.704 21.4136 140.652 22.9386C138.402 23.1649 135.441 23.6204 133.196 24.2198C132.024 22.0777 131.21 19.7915 131.21 17.3379C131.21 11.8694 134.781 8.50781 141.972 8.50781C158.263 8.50781 185.64 23.6527 199.304 34.716C200.868 35.9825 202.409 37.5546 202.409 39.397C202.409 41.2394 200.827 43.3346 198.311 43.3346L198.308 43.3287Z" fill="black"/>
<path fill-rule="evenodd" clip-rule="evenodd" d="M88.7129 74.5028C88.7129 73.5272 89.305 72.9248 90.2153 72.9248C91.1257 72.9248 91.6913 73.5301 91.6913 74.5028V76.1454C92.4867 74.5263 94.2425 72.9219 95.8274 72.9219C96.8467 72.9219 97.3387 73.5184 97.3387 74.3088C97.3387 75.0993 96.9174 75.6605 95.6065 76.022C92.8903 76.7771 91.7001 78.2934 91.7001 81.1995V89.6124C91.7001 90.588 91.1286 91.1933 90.2183 91.1933C89.308 91.1933 88.7158 90.588 88.7158 89.6124V74.4998L88.7129 74.5028Z" fill="black"/>
<path fill-rule="evenodd" clip-rule="evenodd" d="M22.7891 74.6161C22.7891 73.6405 23.3783 73.0381 24.2915 73.0381C25.2048 73.0381 25.7674 73.6434 25.7674 74.6161V76.2587C26.557 74.6396 28.3157 73.0352 29.9007 73.0352C30.92 73.0352 31.4149 73.6317 31.4149 74.4221C31.4149 75.2126 30.9877 75.7738 29.6797 76.1352C26.9606 76.8904 25.7733 78.4067 25.7733 81.3128V89.7257C25.7733 90.7012 25.1989 91.3066 24.2915 91.3066C23.3842 91.3066 22.7891 90.7012 22.7891 89.7257V74.6131V74.6161Z" fill="black"/>
<path fill-rule="evenodd" clip-rule="evenodd" d="M39.8388 72.9727C42.7524 72.9727 44.6231 74.1392 44.6231 75.1883C44.6231 75.8171 44.1547 76.443 43.4477 76.443C42.3576 76.443 41.8421 75.5673 39.8388 75.5673C36.4568 75.5673 34.7187 78.5851 34.7187 82.1113C34.7187 85.9313 36.6719 88.6582 39.8388 88.6582C42.0424 88.6582 42.5256 87.7502 43.5626 87.7502C44.2372 87.7502 44.6437 88.2057 44.6437 88.8992C44.6437 89.5926 44.0869 90.1216 43.0824 90.5829C42.2045 90.9855 41.0437 91.2499 39.8388 91.2499C34.7688 91.2499 31.7227 87.4505 31.7227 82.1142C31.7227 76.8867 34.7953 72.9785 39.8388 72.9785V72.9727Z" fill="black"/>
<path fill-rule="evenodd" clip-rule="evenodd" d="M48.7079 83.1381C48.7639 86.0619 50.6641 88.542 53.9989 88.542C57.5017 88.542 58.3295 86.585 59.5963 86.585C60.3063 86.585 60.8041 87.0639 60.8041 87.8132C60.8041 89.259 57.6077 91.1308 54.0284 91.1308C51.3505 91.1308 49.5534 90.2816 48.2189 88.9299C46.5161 87.2079 45.7207 84.6661 45.7207 81.998C45.7207 77.1172 48.7521 72.8594 53.7691 72.8594C58.4356 72.8594 61.4611 76.9703 61.4611 81.5602C61.4611 82.6004 61.0398 83.1381 59.8143 83.1381H48.7168H48.7079ZM58.4739 80.9196C58.4739 78.3661 57.0156 75.4511 53.7514 75.4511C50.4873 75.4511 48.8228 77.9635 48.7079 80.9196H58.4739Z" fill="black"/>
<path fill-rule="evenodd" clip-rule="evenodd" d="M174.813 89.6285C174.813 90.6011 174.236 91.2065 173.326 91.2065C172.415 91.2065 171.832 90.6011 171.832 89.6285V68.4686C171.832 67.4959 172.415 66.8906 173.329 66.8906C174.242 66.8906 174.816 67.4959 174.816 68.4686V89.6285H174.813Z" fill="black"/>
<path fill-rule="evenodd" clip-rule="evenodd" d="M77.9919 91.2792C73.2489 91.2792 70.0996 87.5121 70.0996 82.1377C70.0996 76.7632 73.2489 72.9961 77.9919 72.9961C82.7349 72.9961 85.8842 76.7632 85.8842 82.1377C85.8842 87.5121 82.729 91.2792 77.9919 91.2792ZM77.9919 88.6846C80.8937 88.6846 82.8852 86.1575 82.8852 82.1406C82.8852 78.1237 80.8937 75.5937 77.9919 75.5937C75.0901 75.5937 73.0927 78.1178 73.0927 82.1406C73.0927 86.1634 75.0842 88.6846 77.9919 88.6846Z" fill="black"/>
<path fill-rule="evenodd" clip-rule="evenodd" d="M117.526 74.4592C115.865 80.1569 113.137 89.5189 112.913 90.2917C112.663 91.1439 112.141 91.4994 111.331 91.4994C110.521 91.4994 110.011 91.1997 109.743 90.2917C109.513 89.4895 106.65 79.678 105.012 74.039C104.735 73.1075 104.482 72.0086 104.293 71.0771C104.181 71.988 104.034 73.0517 103.875 74.0479C103.023 79.3753 101.704 87.6794 101.335 90.0243C101.173 91.0557 100.646 91.4994 99.7798 91.4994C98.9697 91.4994 98.4512 90.9558 98.4512 90.089C98.4512 89.754 98.5219 89.3161 98.6161 88.7461C98.6161 88.7461 101.606 70.8038 101.845 69.4345C102.101 67.9682 102.864 67.1836 104.102 67.1836C105.209 67.1836 106.081 67.8301 106.432 69.0495C106.647 69.8076 109.06 78.2352 110.592 83.5626C110.874 84.547 111.157 85.7048 111.375 86.7509C111.578 85.7253 111.844 84.6205 112.118 83.6596C113.644 78.338 116.103 69.8106 116.319 69.0525C116.669 67.8301 117.45 67.1865 118.555 67.1865C119.718 67.1865 120.57 67.9476 120.808 69.4374C121.029 70.8126 124.04 88.749 124.04 88.749C124.137 89.322 124.202 89.7569 124.202 90.0919C124.202 90.9558 123.683 91.5024 122.873 91.5024C122.007 91.5024 121.48 91.0587 121.321 90.0273C120.964 87.7499 119.706 79.8455 118.855 74.5151C118.681 73.4278 118.516 72.1907 118.384 71.0594C118.163 72.0468 117.88 73.2574 117.521 74.4622L117.526 74.4592Z" fill="black"/>
<path fill-rule="evenodd" clip-rule="evenodd" d="M129.34 67.8984C130.351 67.8984 131.161 68.7036 131.161 69.7115C131.161 70.7194 130.351 71.5245 129.34 71.5245C128.33 71.5245 127.52 70.7194 127.52 69.7115C127.52 68.7036 128.33 67.8984 129.34 67.8984ZM130.831 74.7157C130.831 73.7401 130.248 73.1377 129.337 73.1377C128.427 73.1377 127.849 73.7431 127.849 74.7157V89.8282C127.849 90.8038 128.427 91.4091 129.337 91.4091C130.248 91.4091 130.831 90.8038 130.831 89.8282V74.7157Z" fill="black"/>
<path fill-rule="evenodd" clip-rule="evenodd" d="M135.954 69.3748C135.954 68.3993 136.537 67.7969 137.447 67.7969C138.358 67.7969 138.935 68.4022 138.935 69.3748V73.236H140.146C141.127 73.236 141.628 73.712 141.628 74.5201C141.628 75.3282 141.127 75.8071 140.146 75.8071H138.935V89.7267C138.935 90.6993 138.358 91.3046 137.447 91.3046C136.537 91.3046 135.954 90.6993 135.954 89.7267V75.8071H134.867C133.891 75.8071 133.385 75.3252 133.385 74.5201C133.385 73.715 133.891 73.236 134.867 73.236H135.954V69.3719V69.3748Z" fill="black"/>
<path fill-rule="evenodd" clip-rule="evenodd" d="M20.0883 88.3517C19.4638 86.6826 13.6425 71.0764 12.7381 68.6668C12.2815 67.4591 11.5862 66.7539 10.4344 66.7539C9.28249 66.7539 8.63143 67.4591 8.17186 68.6668C7.75942 69.7482 1.41967 86.6885 0.789227 88.3517C0.512305 89.0833 0.40625 89.4741 0.40625 89.7915C0.40625 90.5349 1.04847 91.0697 1.82327 91.0697C2.59806 91.0697 3.0812 90.6584 3.33161 89.9619C3.4848 89.5447 4.30673 87.238 5.3555 84.2995H15.5103C16.5031 87.0734 17.3014 89.3037 17.5371 89.9619C17.764 90.5878 18.1764 91.0697 18.9866 91.0697C19.7967 91.0697 20.489 90.5996 20.489 89.8238C20.489 89.483 20.4065 89.2156 20.0883 88.3487V88.3517ZM6.29821 81.6755C7.53552 78.2228 8.88478 74.4439 9.78625 71.9168C10.0396 71.2116 10.2635 70.5445 10.4344 69.9892C10.6229 70.5886 10.8556 71.2762 11.0795 71.9139C11.984 74.4468 13.3332 78.2169 14.5676 81.6784H6.29821V81.6755Z" fill="black"/>
<path fill-rule="evenodd" clip-rule="evenodd" d="M67.3739 89.5621C67.3739 90.5347 66.7877 91.1401 65.8774 91.1401C64.9671 91.1401 64.3867 90.5347 64.3867 89.5621V68.4022C64.3867 67.4295 64.97 66.8242 65.8774 66.8242C66.7848 66.8242 67.3739 67.4295 67.3739 68.4022V89.5621Z" fill="black"/>
<path fill-rule="evenodd" clip-rule="evenodd" d="M166.186 73.1738C165.276 73.1738 164.701 73.7792 164.701 74.7518V76.0859C163.603 74.2816 161.808 73.168 159.599 73.168C155.059 73.168 151.939 76.9351 151.939 82.3095C151.939 87.684 155.059 91.4511 159.599 91.4511C161.808 91.4511 163.6 90.3345 164.701 88.5273V89.8673C164.701 90.8399 165.279 91.4452 166.186 91.4452C167.094 91.4452 167.68 90.8399 167.68 89.8673V74.7518C167.68 73.7762 167.099 73.1738 166.186 73.1738ZM159.829 88.8594C156.927 88.8594 154.933 86.3264 154.933 82.3125C154.933 78.2985 156.924 75.7597 159.829 75.7597C162.734 75.7597 164.725 78.2927 164.725 82.3125C164.725 86.3323 162.734 88.8594 159.829 88.8594Z" fill="black"/>
<path fill-rule="evenodd" clip-rule="evenodd" d="M145.151 69.3748C145.151 68.3993 145.734 67.7969 146.645 67.7969C147.555 67.7969 148.132 68.4022 148.132 69.3748V73.236H149.343C150.324 73.236 150.825 73.712 150.825 74.5201C150.825 75.3282 150.324 75.8071 149.343 75.8071H148.132V89.7267C148.132 90.6993 147.555 91.3046 146.645 91.3046C145.734 91.3046 145.151 90.6993 145.151 89.7267V75.8071H144.064C143.089 75.8071 142.582 75.3252 142.582 74.5201C142.582 73.715 143.089 73.236 144.064 73.236H145.151V69.3719V69.3748Z" fill="black"/>
</g>
<defs>
<clipPath id="clip0_3633_89642">
<rect width="202" height="83" fill="white" transform="translate(0.40625 8.5)"/>
</clipPath>
</defs>
</svg>
