<svg width="220" height="100" viewBox="0 0 220 100" fill="none" xmlns="http://www.w3.org/2000/svg">
<g clip-path="url(#clip0_3633_89641)">
<path d="M150.627 56.7174C149.85 56.7581 149.028 56.8268 148.154 56.9235C147.28 57.0252 146.456 57.1549 145.681 57.3152C144.049 57.6357 142.916 58.1876 142.272 58.9659C141.638 59.7442 141.314 60.5963 141.314 61.5145C141.314 62.4327 141.663 63.2441 142.363 63.824C143.064 64.4014 144.089 64.6914 145.451 64.6914C146.419 64.6914 147.362 64.4904 148.273 64.0886C149.181 63.6918 149.969 63.1933 150.63 62.5904V56.7124L150.627 56.7174ZM157.438 46.6069C157.978 47.9855 158.252 49.6566 158.252 51.6151V70.2108H151.268L150.917 68.0539C150.105 68.934 149.065 69.6284 147.803 70.1269C146.542 70.6254 145.154 70.8772 143.641 70.8772C142.401 70.8772 141.188 70.6712 140.002 70.2439C138.821 69.8268 137.783 69.229 136.89 68.4482C135.999 67.6673 135.278 66.7084 134.736 65.5664C134.194 64.4294 133.921 63.1373 133.921 61.6951C133.921 60.2529 134.211 58.9863 134.793 57.8875C135.377 56.7861 136.152 55.8603 137.122 55.0972C138.09 54.3367 139.207 53.7186 140.47 53.2354C141.732 52.7546 143.062 52.3985 144.458 52.1569C145.426 51.9585 146.493 51.8059 147.656 51.7092C148.822 51.61 149.79 51.5185 150.57 51.4396V50.4807C150.57 49.3183 150.179 48.3798 149.404 47.6574C148.627 46.9427 147.713 46.579 146.671 46.579C146.01 46.579 145.171 46.7621 144.171 47.1207C143.158 47.4794 142.185 48.161 141.259 49.1581L136.075 45.4395C136.816 44.4806 137.657 43.6768 138.608 43.0384C139.561 42.4 140.531 41.9014 141.522 41.5402C142.507 41.1791 143.492 40.9323 144.46 40.7874C145.428 40.65 146.32 40.5762 147.137 40.5762C148.768 40.5762 150.261 40.7874 151.62 41.207C152.979 41.6267 154.148 42.288 155.138 43.1884C156.128 44.0889 156.893 45.2284 157.438 46.6095V46.6069ZM91.9193 63.1373H81.3284V30.1961H73.7009V63.1373H63.1099V30.1961H55.2522V70.2134H99.7795V30.1961H91.9218V63.1373H91.9193ZM124.269 61.395C124.269 59.4365 123.145 58.4572 120.892 58.4572H113.21V64.3938H120.892C122.018 64.3938 122.863 64.1267 123.425 63.585C123.987 63.0457 124.269 62.3183 124.269 61.3924V61.395ZM113.213 52.7546H119.966C121.204 52.7546 122.048 52.4163 122.491 51.7398C122.942 51.0556 123.165 50.379 123.165 49.6948C123.165 49.0106 122.942 48.4154 122.491 47.899C122.048 47.3751 121.204 47.1182 119.966 47.1182H113.213V52.7546ZM130.993 57.4067C131.748 58.4267 132.129 59.7569 132.129 61.395C132.129 62.9211 131.859 64.2285 131.315 65.3273C130.77 66.4286 130.032 67.3392 129.101 68.0565C128.17 68.7737 127.064 69.3206 125.784 69.6767C124.504 70.0379 123.147 70.2134 121.709 70.2134H105.88V41.2961H121.184C124.172 41.2961 126.522 41.9676 128.227 43.3054C129.938 44.6433 130.792 46.5154 130.792 48.9165C130.792 51.6762 129.743 53.6754 127.651 54.9141C129.121 55.5576 130.238 56.3868 130.995 57.4067H130.993ZM181.234 62.2089C180.107 63.6663 178.436 64.3938 176.228 64.3938C174.02 64.3938 172.346 63.6765 171.222 62.2369C170.136 60.7566 169.591 58.9176 169.591 56.7174C169.591 54.5173 170.145 52.7495 171.252 51.287C172.359 49.827 174.017 49.097 176.228 49.097C178.439 49.097 180.11 49.827 181.234 51.287C182.36 52.747 182.922 54.5554 182.922 56.7174C182.922 58.8794 182.36 60.7489 181.234 62.2089ZM187.081 46.6069C186.014 45.3835 184.685 44.4373 183.098 43.7582C181.506 43.0791 179.701 42.7382 177.684 42.7382C176.867 42.7382 176.055 42.8171 175.24 42.9773C174.423 43.1376 173.668 43.3665 172.968 43.6666C172.272 43.9668 171.641 44.3101 171.076 44.6866C170.514 45.0681 170.098 45.498 169.826 45.9787C170.294 43.4606 171.108 41.586 172.272 40.3702C173.436 39.1468 174.948 38.4397 176.812 38.2388L179.783 37.9386C181.219 37.7784 182.43 37.5189 183.417 37.1603C184.41 36.7966 185.22 36.2879 185.861 35.6266C186.502 34.9678 186.98 34.1666 187.287 33.228C187.599 32.2895 187.814 31.1779 187.928 29.896L181.818 28.8786C181.623 30.0817 181.286 30.8778 180.801 31.2797C180.313 31.679 179.565 31.9181 178.555 31.9995L176.228 32.1775C173.51 32.3785 171.24 33.1593 169.42 34.5201C167.595 35.8784 166.13 37.5673 165.023 39.5894C163.917 41.6089 163.132 43.837 162.664 46.2788C162.201 48.7181 161.968 51.1344 161.968 53.5355C161.968 56.0561 162.248 58.3784 162.81 60.4971C163.372 62.6184 164.236 64.4447 165.4 65.9835C166.563 67.5249 168.039 68.7254 169.821 69.5851C171.609 70.4448 173.723 70.8772 176.164 70.8772C178.454 70.8772 180.479 70.4677 182.249 69.6462C184.017 68.8272 185.497 67.7462 186.703 66.4083C187.903 65.0704 188.814 63.5265 189.436 61.7918C190.057 60.0495 190.367 58.2359 190.367 56.3588C190.367 54.4817 190.087 52.5868 189.522 50.9258C188.96 49.27 188.146 47.8278 187.079 46.6095L187.081 46.6069ZM200.43 52.2765H211.662C211.509 50.351 210.878 48.9165 209.771 47.9576C208.667 46.9961 207.493 46.5154 206.251 46.5154C205.59 46.5154 204.941 46.6476 204.297 46.9071C203.661 47.1665 203.067 47.5455 202.527 48.044C201.98 48.5451 201.527 49.153 201.156 49.8754C200.789 50.5926 200.547 51.3964 200.428 52.2765H200.43ZM213.705 60.4971L219.349 64.0352C217.76 66.5558 215.916 68.3235 213.819 69.346C211.727 70.366 209.258 70.8747 206.429 70.8747C204.567 70.8747 202.799 70.5746 201.131 69.9743C199.465 69.3766 198.002 68.4456 196.739 67.184C195.476 65.9199 194.476 64.3531 193.739 62.4734C193.003 60.5963 192.632 58.3555 192.632 55.756C192.632 53.3142 192.991 51.1548 193.706 49.2726C194.429 47.3903 195.407 45.8159 196.647 44.5365C197.89 43.2546 199.334 42.2753 200.982 41.5937C202.634 40.9171 204.389 40.5737 206.251 40.5737C210.17 40.5737 213.324 41.9854 215.71 44.8061C218.094 47.6243 219.327 51.8949 219.404 57.6153H200.257C200.445 60.0571 201.175 61.8147 202.438 62.8931C203.698 63.9741 205.104 64.5133 206.657 64.5133C208.016 64.5133 209.239 64.2666 210.325 63.7605C211.41 63.2619 212.536 62.1708 213.702 60.4946L213.705 60.4971ZM40.3066 47.81C37.9968 48.5807 35.6028 48.98 33.1271 48.98C31.3051 48.98 28.3095 48.7562 24.1479 48.3086C20.1373 47.8863 17.2655 47.6727 15.5326 47.6727C12.8291 47.6727 10.2173 48.0339 7.69461 48.7511C6.64988 49.0513 5.45909 49.5193 4.15193 50.1221L4.1346 48.6163C4.15193 48.4103 4.17422 48.1814 4.2064 47.9169C4.33513 46.813 4.5827 45.1978 5.04317 42.8629C5.10507 42.6365 5.16201 42.4203 5.22885 42.2016C5.47394 41.3622 5.76607 40.5584 6.09533 39.7776C6.75634 38.2108 7.58568 36.761 8.5809 35.4383C10.0713 33.4569 11.9528 31.8545 14.2304 30.6489C16.5055 29.4356 19.1495 28.8277 22.1748 28.8277C25.2001 28.8277 27.901 29.4356 30.1737 30.6489C32.4488 31.8545 34.3501 33.4569 35.8826 35.4383C37.41 37.4172 38.5464 39.6733 39.2916 42.2016C39.8387 44.0532 40.163 45.9253 40.3066 47.81ZM40.366 51.3862C40.366 51.4218 40.366 51.4549 40.3635 51.4854C40.361 51.9941 40.2992 52.574 40.215 53.1692C39.8634 55.6059 39.0192 58.4114 39.0192 58.4114C38.7345 59.2559 38.4003 60.0596 38.024 60.838C37.4249 62.0741 36.7119 63.2289 35.885 64.3073C34.3526 66.2862 32.4513 67.8911 30.1761 69.1298C27.901 70.3609 25.2322 70.9815 22.1773 70.9815C19.1223 70.9815 16.5105 70.3711 14.2329 69.1604C11.9552 67.9064 10.0737 66.2862 8.58338 64.3073C7.09303 62.3285 5.97403 60.0723 5.23133 57.5466C4.71886 55.8043 4.40198 54.0518 4.24601 52.2841C4.5926 52.1823 4.87483 52.0959 5.05308 52.0323C5.78092 51.8135 6.29834 51.6711 6.60285 51.61C7.96941 51.2718 9.68753 51.1013 11.7522 51.1013C13.8169 51.1013 15.9906 51.2336 18.2707 51.493C23.2517 52.0831 26.6731 52.3731 28.5249 52.3731C30.5624 52.3731 32.2334 52.2841 33.5381 52.1035C34.8453 51.9254 36.1351 51.6151 37.4125 51.1649C38.4845 50.7885 39.4698 50.412 40.3709 50.0331V51.3837L40.366 51.3862ZM22.2367 27.5C13.3688 27.5 5.74131 32.9508 2.32489 40.7772C1.09449 43.5954 0.40625 46.7163 0.40625 50.0051V50.028C0.421104 62.4429 10.1876 72.5025 22.2367 72.5025C30.4732 72.5025 37.6378 67.8097 41.3538 60.8685C42.7327 58.297 43.6388 55.4177 43.9458 52.3553C44.0226 51.5821 44.0646 50.8012 44.0646 50.0076C44.0646 37.5749 34.2907 27.5 22.2367 27.5Z" fill="black"/>
</g>
<defs>
<clipPath id="clip0_3633_89641">
<rect width="219" height="45" fill="white" transform="translate(0.40625 27.5)"/>
</clipPath>
</defs>
</svg>
