<svg width="172" height="100" viewBox="0 0 172 100" fill="none" xmlns="http://www.w3.org/2000/svg">
<g clip-path="url(#clip0_3633_89639)">
<path d="M92.7459 46.4649V36.2404H94.6624C98.9774 36.2404 99.0894 39.1897 99.0894 40.4209V42.5139C99.0894 44.2879 98.2545 46.4649 94.6624 46.4649H92.7459ZM89.647 53.8801H87.5176V54.4509H94.881V53.8801H92.7459V47.0134H95.4582C100.765 47.0134 102.569 44.4838 102.569 41.4002C102.569 36.3355 97.6717 35.7031 95.4862 35.7031H87.5176V36.246H89.647V53.8857V53.8801Z" fill="black"/>
<path d="M117.039 39.1634C117.207 38.7101 117.42 37.8762 117.42 37.4453C117.42 36.7234 116.983 36.2421 116.181 36.2421H115.8V35.6992H120.502V36.2421C118.838 36.2421 118.204 37.6468 118.042 38.1336L114.136 48.5876C112.119 54.0273 110.264 54.7716 109.098 54.7716C107.025 54.7716 105.304 53.283 105.304 51.4474C105.304 50.2498 105.938 49.192 107.126 49.192C108.314 49.192 108.958 50.0483 108.958 50.8206C108.958 51.078 108.902 51.4754 108.431 52.0238C108.129 52.3932 107.411 52.7681 107.411 53.1431C107.411 53.6579 108.073 54.2344 109.322 54.2344C110.572 54.2344 111.289 52.9136 111.894 51.8L104.811 36.2477H102.9V35.7048H110.516V36.2477H108.19L113.643 48.1623L117.044 39.1634H117.039Z" fill="black"/>
<path d="M133.708 35.3867V41.4868H133.153C132.795 38.1066 131.663 35.9296 128.424 35.9296C126.591 35.9296 123.61 37.1048 123.61 43.2272V47.8722C123.61 52.909 126.423 54.2297 128.356 54.2297C130.435 54.2297 132.711 52.7914 133.534 48.2192H134.201L133.977 54.4591H133.265C133.237 54.2017 133.125 53.3175 132.38 53.3175C131.898 53.3175 131.455 53.6309 130.917 53.9443C129.494 54.7222 127.925 54.7725 127.706 54.7725C122.966 54.7725 120.113 50.1947 120.113 44.464C120.113 39.1979 123.851 35.3923 128.244 35.3867C130.402 35.3811 130.822 36.3101 131.926 36.2766C132.234 36.2766 132.755 36.2766 133.03 35.3867H133.697H133.708Z" fill="black"/>
<path d="M145.925 47.5243H140.837L143.544 40.4225L145.925 47.5243ZM148.161 53.8818H145.701V54.4526H153.317V53.8818H151.434L145.124 35.6992H144.62L138.506 51.9343C138.198 52.7345 137.458 53.7979 136.236 53.8818V54.4526H140.944V53.8818C139.414 53.7979 139.167 53.3334 139.167 52.5387C139.167 51.8223 139.492 51.106 139.688 50.6471L140.686 48.1008H146.116L148.156 53.8874L148.161 53.8818Z" fill="black"/>
<path d="M163.073 36.2421C159.812 36.2421 160.226 37.3893 160.025 45.2074L159.918 49.8132C159.834 53.311 159.391 54.766 157.15 54.766C155.177 54.766 153.883 53.7307 153.883 52.0406C153.883 50.815 154.572 49.9252 155.782 49.9252C156.842 49.9252 157.497 50.7031 157.497 51.4194C157.497 52.0406 157.256 52.4491 157.06 52.7905C156.786 53.283 156.786 53.4509 156.786 53.5404C156.786 53.7643 156.987 54.0833 157.531 54.0833C159.274 54.0833 159.274 51.7384 159.335 49.8132L159.447 45.2074C159.582 39.4824 159.526 40.9374 159.526 39.1634C159.526 38.0497 159.419 36.2421 157.122 36.2421H156.461V35.6992H171.4V36.2421H169.271V53.8818H171.4V54.4526H164.043V53.8818H166.172V36.2421H163.067H163.073Z" fill="black"/>
<path fill-rule="evenodd" clip-rule="evenodd" d="M71.5017 10H0.40625V54.4407H18.2151C15.3236 50.7247 13.7545 46.1525 13.7545 41.1102C13.7545 28.8541 23.6228 18.887 35.8895 18.887C48.1562 18.887 58.1478 28.8541 58.1478 41.1102C58.1478 46.1525 56.4611 50.7247 53.6984 54.4407H71.5017V10Z" fill="black"/>
<path fill-rule="evenodd" clip-rule="evenodd" d="M80.2768 89.9991H26.9902V36.7833C26.9902 36.7833 27.1079 36.6602 27.2256 36.6602L27.3545 36.7833C34.8075 62.2523 54.8972 82.1922 80.2712 89.764C80.3534 89.764 80.3945 89.8014 80.3945 89.876C80.3945 89.876 80.3945 89.9991 80.2712 89.9991" fill="black"/>
</g>
<defs>
<clipPath id="clip0_3633_89639">
<rect width="171" height="80" fill="white" transform="translate(0.40625 10)"/>
</clipPath>
</defs>
</svg>
