<svg width="373" height="100" viewBox="0 0 373 100" fill="none" xmlns="http://www.w3.org/2000/svg">
<g clip-path="url(#clip0_3633_89638)">
<mask id="mask0_3633_89638" style="mask-type:luminance" maskUnits="userSpaceOnUse" x="38" y="25" width="14" height="51">
<path d="M38.6433 25.1328L51.1966 25.1765L50.9603 62.3948L38.3262 75.0017L38.6433 25.1328Z" fill="white"/>
</mask>
<g mask="url(#mask0_3633_89638)">
<path d="M51.1966 25.1328H38.3262V74.9986H51.1966V25.1328Z" fill="black"/>
</g>
<mask id="mask1_3633_89638" style="mask-type:luminance" maskUnits="userSpaceOnUse" x="38" y="25" width="14" height="38">
<path d="M38.623 25.1328L51.1981 25.1765L51.0426 49.9814L38.3867 62.5883L38.623 25.1328Z" fill="white"/>
</mask>
<g mask="url(#mask1_3633_89638)">
<path d="M51.1981 25.1328H38.3867V62.5883H51.1981V25.1328Z" fill="black"/>
</g>
<mask id="mask2_3633_89638" style="mask-type:luminance" maskUnits="userSpaceOnUse" x="38" y="25" width="14" height="26">
<path d="M38.6039 25.1328L51.2038 25.1765L51.123 37.5712L38.4453 50.1781L38.6039 25.1328Z" fill="white"/>
</mask>
<g mask="url(#mask2_3633_89638)">
<path d="M51.2038 25.1328H38.4453V50.175H51.2038V25.1328Z" fill="black"/>
</g>
<path d="M13.1684 45.0671L0.534282 45.0234L0.515625 47.5305L13.1529 47.5742L13.1684 45.0671Z" fill="black"/>
<path d="M38.4302 50.1453L25.796 50.1016L25.7773 52.6086L38.4146 52.6492L38.4302 50.1453Z" fill="black"/>
<path d="M13.1372 50.0312L0.499923 49.9844L0.484375 52.4945L13.1185 52.5351L13.1372 50.0312Z" fill="black"/>
<path d="M25.7778 52.5718L13.1405 52.5312L13.125 55.0352L25.7591 55.0789L25.7778 52.5718Z" fill="black"/>
<path d="M25.7016 67.4617L13.0675 67.418L13.0488 69.925L25.6861 69.9687L25.7016 67.4617Z" fill="black"/>
<path d="M13.0559 69.8875L0.421798 69.8438L0.40625 72.3508L13.0404 72.3914L13.0559 69.8875Z" fill="black"/>
<path d="M26.4333 62.5007H25.743L13.1026 62.457L13.084 64.9516L25.7275 64.9953L25.7119 67.4929L38.3523 67.5366L38.3678 65.039L38.3709 64.6144L38.3834 62.5444L26.4333 62.5007Z" fill="black"/>
<path d="M25.7019 69.9414L25.6833 72.4391L13.0429 72.3954L13.0273 74.893L25.6708 74.9367H26.2461L38.3112 74.9804L38.3236 72.7919L38.3267 72.4828L38.3423 69.9851L25.7019 69.9414Z" fill="black"/>
<path d="M25.775 55.0547L25.7594 57.5555L13.1191 57.5118L13.1035 60.0063L25.7439 60.05L26.3969 60.0531L38.3843 60.0937L38.3967 57.9457L38.3998 57.5992L38.4153 55.1015L25.775 55.0547Z" fill="black"/>
<path d="M13.0688 64.9265L0.434673 64.8828L0.416016 67.3898L13.0533 67.4335L13.0688 64.9265Z" fill="black"/>
<path d="M13.0962 59.9578L0.458907 59.9141L0.443359 62.4211L13.0775 62.4648L13.0962 59.9578Z" fill="black"/>
<path d="M13.1302 54.9929L0.492907 54.9492L0.480469 57.4562L13.1146 57.4968L13.1302 54.9929Z" fill="black"/>
<path d="M25.814 45.1211L25.7985 47.6188L13.1581 47.575L13.1426 50.0727L25.7829 50.1133L38.4233 50.157L38.4389 47.6625L38.4544 45.1648L25.814 45.1211Z" fill="black"/>
<path d="M25.811 42.6414L13.1738 42.5977L13.1582 45.1047L25.7924 45.1484L25.811 42.6414Z" fill="black"/>
<path d="M13.1841 40.1062L0.549907 40.0625L0.53125 42.5695L13.1685 42.6132L13.1841 40.1062Z" fill="black"/>
<path d="M38.48 40.0095L38.4955 37.721L13.2148 37.6367L13.1992 40.1406L25.8396 40.1812L25.824 42.6757L38.4644 42.7195L38.48 40.0095Z" fill="black"/>
<mask id="mask3_3633_89638" style="mask-type:luminance" maskUnits="userSpaceOnUse" x="0" y="25" width="52" height="13">
<path d="M51.1955 25.1311L38.4743 37.7662L0.5625 37.635L13.2526 25L51.1955 25.1311Z" fill="white"/>
</mask>
<g mask="url(#mask3_3633_89638)">
<path d="M51.1955 25H0.5625V37.7662H51.1955V25Z" fill="black"/>
</g>
<path d="M79.4568 62.827L79.6278 35.8429L69.332 35.8054L69.3414 34.1133L91.752 34.1913L91.7426 35.8835L81.4344 35.846L81.2634 62.8332L79.4568 62.827Z" fill="black"/>
<path d="M69.5622 34.3332L91.5313 34.4081L91.5219 35.6538L81.2137 35.6195L81.0427 62.6067H79.6807L79.8518 35.6163L69.5529 35.582L69.5622 34.3332ZM69.1207 33.8867V34.3301L69.1113 35.5789V36.0253H69.5529L79.4071 36.0597L79.2392 62.6004V63.0469H79.6807L81.0427 63.0531H81.4874V62.6098L81.6553 36.0659L91.5219 36.1003H91.9635L91.9666 35.6569L91.9759 34.4081V33.9616H91.5344L69.5653 33.8867H69.1238H69.1207Z" fill="black"/>
<path d="M117.328 62.9949L117.406 50.8875L103.286 50.8376L103.208 62.945L97.5391 62.9262L97.7225 34.2344L103.391 34.2562L103.317 45.914L117.44 45.964L117.515 34.3343L123.19 34.353L123.006 63.0168L117.328 62.9949Z" fill="black"/>
<path d="M97.9434 34.4582L103.167 34.4769L103.093 46.1347L117.658 46.1847L117.733 34.555L122.966 34.5737L122.786 62.791L117.552 62.7723L117.63 50.6649L103.065 50.6149L102.99 62.7223L97.763 62.7036L97.9434 34.4551V34.4582ZM97.5018 34.0117V34.4551L97.3184 62.7036V63.15H97.7599L102.987 63.1688H103.429V62.7254L103.5 51.0614L117.179 51.1082L117.105 62.7691V63.2156H117.546L122.779 63.2343H123.221V62.791L123.401 34.5737V34.1272H122.96L117.726 34.1116H117.285V34.555L117.213 45.7382L103.534 45.6914L103.606 34.48V34.0336H103.164L97.9372 34.0148H97.4956L97.5018 34.0117Z" fill="black"/>
<path d="M154.122 63.166L151.367 56.6253L137.57 56.5785L134.731 63.1005L128.854 63.0786L141.914 34.4336L147.349 34.4523L160.092 63.1848L154.125 63.1629L154.122 63.166ZM149.445 52.0952L144.557 40.5029L139.544 52.0639L149.445 52.0983V52.0952Z" fill="black"/>
<path d="M142.054 34.6574L147.203 34.673L159.747 62.9621L154.271 62.9434L151.516 56.4026L137.427 56.3558L134.588 62.8778L129.199 62.8591L142.054 34.6574ZM149.781 52.319L144.56 39.9399L139.209 52.2846L149.781 52.319ZM141.771 34.2109L141.653 34.4732L128.798 62.6749L128.512 63.3024H129.199L134.588 63.3243H134.88L134.995 63.0589L137.719 56.8054L151.224 56.8522L153.864 63.1213L153.979 63.393H154.271L159.75 63.4117H160.434L160.155 62.7841L147.611 34.495L147.492 34.2328H147.206L142.06 34.2141H141.774L141.771 34.2109ZM139.886 51.8382L144.557 41.067L149.113 51.8694L139.886 51.8382Z" fill="black"/>
<path d="M165.969 63.2318L166.149 34.6211L178.936 34.6648C182.126 34.6742 184.657 35.3329 186.458 36.6223C187.347 37.2343 188.072 38.0741 188.55 39.0451C189.026 40.0192 189.25 41.1056 189.191 42.189C189.234 43.2318 189.014 44.3058 188.553 45.2674C188.09 46.2321 187.394 47.075 186.539 47.7088C186.172 47.9586 185.792 48.1803 185.404 48.3738C186.277 48.6642 187.101 49.0825 187.857 49.6195C188.731 50.272 189.43 51.1337 189.891 52.1172C190.348 53.1006 190.559 54.1902 190.497 55.2799C190.541 56.3944 190.307 57.5402 189.822 58.5705C189.334 59.6039 188.6 60.5156 187.701 61.2055C185.854 62.5793 183.137 63.2755 179.632 63.2755L165.972 63.2286M179.411 58.8296C179.586 58.8421 179.747 58.8484 179.906 58.8484C181.122 58.8484 182.319 58.5268 183.37 57.9149L183.426 57.84C183.877 57.4872 184.234 57.0282 184.464 56.5099C184.695 55.9886 184.797 55.4141 184.76 54.849C184.81 54.2621 184.719 53.7001 184.496 53.1881C184.269 52.6792 183.914 52.2358 183.472 51.9049C182.412 51.2586 181.175 50.9121 179.912 50.9121C179.769 50.9121 179.623 50.9183 179.477 50.9277L171.669 50.8996L171.619 58.7984L179.411 58.8265V58.8296ZM178.447 46.691C178.609 46.7004 178.752 46.7066 178.898 46.7066C180.071 46.7066 181.212 46.3695 182.198 45.7326C182.596 45.4141 182.928 44.9833 183.146 44.5025C183.364 44.0185 183.463 43.4847 183.438 42.957C183.479 42.3919 183.385 41.8456 183.177 41.3554C182.966 40.8621 182.63 40.4219 182.213 40.0847C181.234 39.4447 180.077 39.1013 178.883 39.1013C178.758 39.1013 178.634 39.1044 178.51 39.1106L171.709 39.0888L171.665 46.6692L178.444 46.691H178.447Z" fill="black"/>
<path d="M166.374 34.848L178.94 34.8917C182.099 34.9011 184.565 35.5411 186.334 36.8087C187.199 37.4019 187.895 38.2074 188.355 39.1471C188.819 40.0869 189.03 41.1327 188.974 42.1786C189.018 43.212 188.806 44.2392 188.358 45.1727C187.911 46.1062 187.242 46.9148 186.412 47.533C185.896 47.8827 185.348 48.1824 184.773 48.4197C185.837 48.6975 186.835 49.1658 187.73 49.8027C188.573 50.4303 189.248 51.2576 189.692 52.213C190.137 53.1652 190.339 54.2142 190.28 55.2664C190.321 56.3716 190.097 57.4737 189.624 58.4759C189.151 59.4781 188.449 60.3554 187.569 61.0297C185.753 62.3785 183.11 63.0559 179.633 63.0559H179.54L166.194 63.0091L166.374 34.8449V34.848ZM178.896 46.9336C180.106 46.9336 181.294 46.5839 182.317 45.922C182.761 45.5692 183.116 45.1134 183.349 44.5982C183.582 44.08 183.691 43.5149 183.663 42.9467C183.707 42.3722 183.61 41.7946 183.383 41.267C183.156 40.7394 182.802 40.2742 182.357 39.912C181.325 39.2377 180.118 38.8786 178.89 38.8786C178.762 38.8786 178.632 38.8817 178.501 38.8911L171.495 38.8661L171.449 46.893L178.451 46.918C178.601 46.9273 178.753 46.9336 178.902 46.9336H178.896ZM179.91 59.0722C181.191 59.0722 182.457 58.7256 183.567 58.0606V58.0169C184.042 57.6423 184.425 57.1552 184.671 56.6026C184.916 56.0469 185.025 55.4412 184.985 54.8355C185.037 54.2423 184.941 53.646 184.702 53.1028C184.459 52.5595 184.083 52.085 183.607 51.7291C182.494 51.0516 181.216 50.6925 179.916 50.6925C179.767 50.6925 179.618 50.6988 179.468 50.7081L171.455 50.6832L171.402 59.0285L179.415 59.0566C179.583 59.0659 179.748 59.0722 179.913 59.0722H179.91ZM165.932 34.4016V34.8449L165.752 63.0091V63.4556H166.194L179.54 63.5024H179.633C183.187 63.5024 185.945 62.7906 187.833 61.3888C188.766 60.6707 189.525 59.7341 190.025 58.6694C190.523 57.6079 190.765 56.4247 190.722 55.2539C190.784 54.1736 190.566 53.0435 190.09 52.0257C189.618 51.011 188.893 50.1181 187.995 49.4468C187.354 48.991 186.67 48.6195 185.952 48.3385C186.194 48.2042 186.427 48.0575 186.658 47.9014C187.556 47.2364 188.278 46.3622 188.757 45.3663C189.232 44.3703 189.462 43.262 189.416 42.1599C189.478 41.0797 189.248 39.9557 188.753 38.9473C188.259 37.9389 187.51 37.0709 186.586 36.4372C184.751 35.1259 182.18 34.4546 178.943 34.4421L166.377 34.3984H165.935L165.932 34.4016ZM171.89 46.4496L171.931 39.3157L178.495 39.3376C178.644 39.3282 178.765 39.3251 178.887 39.3251C180.037 39.3251 181.151 39.6591 182.114 40.2867C182.469 40.577 182.777 40.986 182.976 41.445C183.175 41.9039 183.259 42.4128 183.221 42.9155C183.246 43.4618 183.15 43.9613 182.948 44.414C182.743 44.8636 182.432 45.2664 182.043 45.5755C181.129 46.1624 180.028 46.4902 178.899 46.4902C178.759 46.4902 178.619 46.484 178.482 46.4746L171.893 46.4496H171.89ZM171.844 58.5851L171.89 51.1296L179.462 51.1546C179.633 51.1452 179.773 51.1421 179.913 51.1421C181.135 51.1421 182.332 51.4762 183.374 52.1131C183.75 52.3972 184.083 52.8124 184.294 53.287C184.503 53.7615 184.59 54.286 184.54 54.7981V54.8355V54.873C184.577 55.4006 184.481 55.9376 184.266 56.4247C184.049 56.9086 183.713 57.3426 183.293 57.6704L183.122 57.8046C182.136 58.3447 181.032 58.6288 179.91 58.6288C179.754 58.6288 179.599 58.6226 179.443 58.6132L171.847 58.5883L171.844 58.5851Z" fill="black"/>
<path d="M218.088 63.4582L218.213 43.8953L203.277 63.4051L198.078 63.3895L198.258 34.707L203.859 34.7258L203.731 54.323L218.66 34.7944L223.863 34.8132L223.679 63.4769L218.088 63.4582Z" fill="black"/>
<path d="M198.479 34.9269L203.635 34.9457L203.508 54.98L218.772 35.0175L223.642 35.0362L223.462 63.2535L218.315 63.2348L218.443 43.2316L203.175 63.1817L198.305 63.163L198.486 34.9238L198.479 34.9269ZM198.041 34.4805V34.9238L197.857 63.163V63.6094H198.299L203.169 63.625H203.389L203.523 63.4502L217.989 44.5523L217.871 63.2285V63.675H218.312L223.458 63.6937H223.9L223.903 63.2504L224.083 35.0331V34.5866H223.642L218.772 34.571H218.552L218.418 34.7458L203.958 53.6562L204.077 34.9457V34.4992H203.635L198.479 34.4836H198.038L198.041 34.4805Z" fill="black"/>
<path d="M233.246 63.5473L233.43 34.8711L252.979 34.9398L252.911 39.8133L238.952 39.7852L238.843 63.5629L233.246 63.5473Z" fill="black"/>
<path d="M233.648 35.0949L252.753 35.1605L252.691 39.5907L238.729 39.5626L238.62 63.3434L233.468 63.3247L233.648 35.098V35.0949ZM233.21 34.6484V35.0918L233.029 63.3184V63.7649H233.471L238.623 63.7836H239.068V63.3403L239.174 40.0059L252.694 40.034H253.133L253.139 39.5938L253.201 35.1636L253.207 34.714H252.759L233.654 34.6484H233.213H233.21Z" fill="black"/>
<path d="M274.959 63.7028L272.204 57.162L258.394 57.1152L255.558 63.6372L249.672 63.6185L262.738 34.9922L268.183 35.0109L280.929 63.7246L274.962 63.7059L274.959 63.7028ZM270.313 52.6506L265.384 41.0553L260.375 52.6163L270.316 52.6506H270.313Z" fill="black"/>
<path d="M262.882 35.2121L268.037 35.2277L280.587 63.4949L275.108 63.4762L272.353 56.9355L258.251 56.8886L255.415 63.4106L250.017 63.3919L262.878 35.2121H262.882ZM270.649 52.8705L265.385 40.4915L260.033 52.8362L270.646 52.8736L270.649 52.8705ZM262.595 34.7656L262.477 35.0279L249.616 63.2077L249.33 63.8384H250.017L255.415 63.8571H255.708L255.826 63.5917L258.547 57.3382L272.064 57.385L274.704 63.6542L274.819 63.9258H275.111L280.587 63.9445H281.275L280.995 63.317L268.448 35.0497L268.333 34.7875H268.043L262.888 34.7687H262.602L262.595 34.7656ZM260.711 52.3928L265.382 41.6186L269.978 52.4272L260.711 52.396V52.3928Z" fill="black"/>
<path d="M291.247 63.8122L291.396 40.0064L282.102 39.9751L282.133 35.1172L306.4 35.2015L306.369 40.075L297.031 40.0438L296.878 63.8309L291.247 63.8122Z" fill="black"/>
<path d="M282.354 35.341L306.176 35.4222L306.151 39.8524L296.813 39.8212L296.661 63.6051L291.471 63.5895L291.623 39.7868L282.329 39.7556L282.357 35.3441L282.354 35.341ZM281.912 34.8945V35.3379L281.881 39.7494V40.1958H282.322L291.172 40.227L291.023 63.5833V64.0297H291.465L296.654 64.0484H297.096V63.6051L297.245 40.2645L306.139 40.2957H306.583V39.8524L306.611 35.4222V34.9757H306.17L282.347 34.8945H281.906H281.912Z" fill="black"/>
<path d="M325.147 64.37C323.083 64.37 321.061 63.9922 319.137 63.2461C317.314 62.5374 315.673 61.4977 314.258 60.149C312.874 58.8158 311.798 57.2423 311.055 55.469C310.284 53.5864 309.911 51.6007 309.948 49.5651C309.923 47.5483 310.315 45.5751 311.108 43.7144C311.857 41.9348 312.955 40.3644 314.37 39.0438C315.797 37.695 317.454 36.6554 319.289 35.956C321.17 35.2411 323.145 34.8789 325.157 34.8789H325.601C327.641 34.8789 329.638 35.2536 331.538 35.9966C333.366 36.7116 335.005 37.7668 336.416 39.1312C337.822 40.4549 338.907 42.0347 339.638 43.8205C340.412 45.6813 340.788 47.6513 340.751 49.6775C340.761 51.7131 340.359 53.6956 339.566 55.5658C338.814 57.3453 337.719 58.9126 336.304 60.2239C334.868 61.5601 333.214 62.5904 331.385 63.2835C329.516 64.0047 327.551 64.37 325.552 64.37H325.154H325.147ZM325.384 39.9179C324.068 39.9179 322.778 40.1521 321.547 40.611C320.399 41.0825 319.364 41.7662 318.474 42.6497C317.585 43.5333 316.892 44.5636 316.416 45.7125C315.918 46.9426 315.669 48.2445 315.676 49.5745C315.651 50.9108 315.878 52.2158 316.354 53.4584C316.823 54.6198 317.507 55.6688 318.384 56.5773C319.252 57.4546 320.275 58.1352 321.428 58.5973C322.675 59.075 323.991 59.3185 325.331 59.3185C326.671 59.3185 327.937 59.0843 329.168 58.6254C330.319 58.1727 331.354 57.4983 332.237 56.6241C333.099 55.7344 333.77 54.7009 334.237 53.5551C334.772 52.3032 335.039 50.9919 335.039 49.6432C335.064 48.3069 334.821 47.0082 334.321 45.7781C333.873 44.6167 333.204 43.5801 332.33 42.6935C331.463 41.7943 330.437 41.1012 329.283 40.6329C328.036 40.1552 326.724 39.9117 325.384 39.9117V39.9179Z" fill="black"/>
<path d="M325.153 35.0996C325.237 35.0996 325.318 35.0996 325.399 35.0996C325.467 35.0996 325.532 35.0996 325.601 35.0996C327.603 35.0996 329.587 35.4742 331.453 36.2017C333.244 36.901 334.876 37.95 336.26 39.2894C337.635 40.5851 338.717 42.1586 339.432 43.9038C340.194 45.7302 340.564 47.694 340.527 49.6703C340.536 51.6622 340.138 53.6385 339.357 55.4774C338.623 57.2132 337.529 58.7774 336.148 60.0606C334.743 61.3718 333.098 62.3959 331.3 63.0765C329.463 63.7852 327.51 64.1474 325.542 64.1474C325.458 64.1474 325.374 64.1474 325.29 64.1474C325.243 64.1474 325.196 64.1474 325.147 64.1474C323.119 64.1474 321.107 63.7727 319.214 63.0359C317.429 62.3428 315.796 61.3063 314.406 59.9856C313.054 58.6806 311.981 57.1133 311.256 55.3806C310.501 53.5385 310.127 51.5592 310.165 49.5673C310.143 47.5879 310.529 45.621 311.306 43.7977C312.04 42.0587 313.134 40.4945 314.515 39.2051C315.914 37.8814 317.562 36.8479 319.36 36.1611C321.21 35.4586 323.172 35.0996 325.15 35.0996M325.327 59.5423C326.652 59.5423 327.979 59.305 329.245 58.8336C330.42 58.3715 331.493 57.6753 332.392 56.7824C333.269 55.877 333.965 54.8092 334.441 53.6416L334.45 53.6322C334.985 52.3709 335.262 51.0159 335.262 49.6453C335.29 48.2935 335.038 46.9479 334.528 45.6959C334.071 44.5158 333.378 43.4418 332.491 42.5395C331.611 41.6247 330.545 40.9066 329.369 40.429C328.088 39.9388 326.739 39.6922 325.386 39.6922C324.033 39.6922 322.734 39.9294 321.468 40.4009C320.293 40.8817 319.223 41.5904 318.318 42.4864C317.416 43.3824 316.701 44.4502 316.21 45.6241C315.703 46.8792 315.448 48.2217 315.451 49.5735C315.426 50.9285 315.662 52.2741 316.144 53.5354C316.626 54.7249 317.332 55.8083 318.222 56.7293C319.108 57.6253 320.171 58.3309 321.341 58.8024C322.622 59.2925 323.974 59.5392 325.324 59.5392L325.327 59.5423ZM325.153 34.6562C323.116 34.6562 321.117 35.0247 319.207 35.7459C317.345 36.4577 315.666 37.5098 314.213 38.8835C312.777 40.2229 311.664 41.8183 310.899 43.626C310.093 45.5179 309.698 47.5161 309.723 49.5735C309.686 51.6278 310.065 53.6416 310.849 55.5523C311.601 57.3537 312.696 58.9553 314.101 60.3072C315.541 61.6747 317.208 62.7331 319.055 63.4511C321.005 64.2067 323.057 64.5907 325.147 64.5907H325.542C327.572 64.5907 329.562 64.2223 331.459 63.4917C333.312 62.7893 334.995 61.7434 336.45 60.3884C337.887 59.0521 339.003 57.4599 339.765 55.6522C340.57 53.7508 340.974 51.7371 340.968 49.6703C341.005 47.6253 340.626 45.6241 339.839 43.7321C339.093 41.9182 337.989 40.3134 336.562 38.9647C335.135 37.5848 333.468 36.5139 331.611 35.7896C329.69 35.0371 327.665 34.6562 325.601 34.6562H325.395H325.153ZM325.327 59.099C324.015 59.099 322.727 58.8617 321.499 58.3934C320.383 57.9469 319.385 57.2819 318.536 56.4233C317.684 55.5398 317.015 54.5158 316.555 53.3762C316.095 52.168 315.871 50.891 315.896 49.5891C315.889 48.2779 316.132 47.004 316.62 45.7989C317.087 44.6812 317.765 43.6728 318.629 42.8142C319.493 41.9557 320.504 41.2844 321.633 40.8223C322.827 40.3759 324.092 40.1449 325.38 40.1449C326.667 40.1449 327.979 40.3821 329.205 40.8504C330.321 41.3031 331.322 41.9775 332.168 42.8548C333.02 43.7227 333.673 44.7343 334.108 45.8614C334.603 47.0696 334.839 48.3403 334.814 49.6391C334.814 50.941 334.562 52.1992 334.065 53.3918L334.031 53.473C333.577 54.5907 332.917 55.6022 332.075 56.4733C331.22 57.3194 330.209 57.9781 329.083 58.4183C327.883 58.8679 326.617 59.0958 325.327 59.0958V59.099Z" fill="black"/>
<path d="M348.049 64.0802L348.232 35.4102L360.011 35.4507L360.378 35.4445C362.493 35.4445 364.551 35.8629 366.492 36.6933C368.236 37.4395 369.704 38.6727 370.736 40.2619C371.747 41.9197 372.244 43.821 372.182 45.7567C372.216 47.683 371.694 49.5781 370.671 51.2266C369.614 52.8063 368.137 54.0208 366.389 54.7514C364.474 55.5569 362.449 55.9659 360.372 55.9659C360.372 55.9659 360.061 55.9659 359.909 55.9565L353.78 55.9378L353.727 64.0989L348.049 64.0802ZM359.7 51.0955C361.924 51.0955 363.587 50.6459 364.694 49.7623L364.756 49.703C365.329 49.2191 365.786 48.6009 366.081 47.9172C366.38 47.2303 366.52 46.4748 366.485 45.7317C366.535 44.9606 366.408 44.205 366.118 43.5213C365.829 42.8344 365.378 42.2163 364.812 41.7355C363.718 40.7989 362.023 40.3212 359.775 40.3149L353.879 40.2931L353.811 51.0736L359.703 51.0923L359.7 51.0955Z" fill="black"/>
<path d="M348.45 35.6355L360.008 35.673C360.13 35.673 360.254 35.6699 360.375 35.6699C362.446 35.6699 364.498 36.0882 366.405 36.9C368.102 37.6243 369.542 38.8388 370.55 40.3842C371.532 41.9983 372.021 43.8622 371.958 45.7541C371.993 47.643 371.479 49.5038 370.481 51.1116C369.455 52.6446 368.003 53.8403 366.305 54.549C364.424 55.3389 362.409 55.7448 360.375 55.7448C360.22 55.7448 360.067 55.7448 359.915 55.7385L353.559 55.7167L353.506 63.8778L348.27 63.8591L348.45 35.6355ZM359.756 51.3208C362.036 51.3208 363.755 50.8338 364.9 49.8847V49.8753C365.5 49.3664 365.972 48.7264 366.283 48.0083C366.597 47.2871 366.74 46.5066 366.706 45.7229C366.759 44.9424 366.625 44.1588 366.321 43.4376C366.016 42.7164 365.55 42.0763 364.952 41.5706C363.811 40.5934 362.079 40.1063 359.769 40.097L353.655 40.0751L353.584 51.3021L359.7 51.3239H359.756V51.3208ZM348.012 35.1859V35.6293L347.828 63.8528V64.2993H348.27L353.506 64.318H353.948V63.8747L353.997 56.1569L359.912 56.1756C360.058 56.1819 360.217 56.1819 360.375 56.1819C362.48 56.1819 364.533 55.7698 366.476 54.9487C368.261 54.2025 369.772 52.9568 370.848 51.3489C371.902 49.6536 372.434 47.7148 372.4 45.7354C372.465 43.7748 371.955 41.8328 370.929 40.1438C369.866 38.5047 368.364 37.2434 366.579 36.4816C364.607 35.6418 362.524 35.2172 360.378 35.2172C360.254 35.2172 360.126 35.2172 360.002 35.2203L348.453 35.1797H348.012V35.1859ZM354.032 50.8556L354.097 40.5216L359.769 40.5403C361.967 40.5497 363.612 41.0086 364.663 41.9078C365.204 42.3667 365.633 42.9568 365.91 43.6093C366.187 44.2649 366.308 44.983 366.262 45.6917C366.293 46.4535 366.162 47.1747 365.876 47.8272C365.593 48.4797 365.155 49.0698 364.61 49.535L364.461 49.663C363.395 50.4685 361.812 50.8775 359.756 50.8775V51.3239L359.7 50.8775L354.029 50.8587L354.032 50.8556Z" fill="black"/>
</g>
<defs>
<clipPath id="clip0_3633_89638">
<rect width="372" height="50" fill="white" transform="translate(0.40625 25)"/>
</clipPath>
</defs>
</svg>
