<svg width="110" height="100" viewBox="0 0 110 100" fill="none" xmlns="http://www.w3.org/2000/svg">
<g clip-path="url(#clip0_3633_89637)">
<path d="M76.5773 46.4075C75.0873 48.0363 74.604 50.3057 72.9488 51.783C71.003 53.526 70.2042 53.2901 67.7751 53.6377C65.8394 53.9183 63.4253 53.6377 61.715 54.75C58.5722 56.7761 56.4987 60.9424 56.4536 62.7474C56.4036 64.55 57.0496 65.4811 64.5222 65.4588C71.9922 65.4364 92.6317 65.3743 92.6317 65.3743C95.8095 65.3743 96.974 63.2117 95.2311 60.5873L90.3103 53.958C87.2502 50.1468 86.1083 47.9544 83.2635 45.9581C81.3578 44.6174 79.2743 44.2524 77.3236 45.7173C77.0406 45.9258 76.8002 46.1567 76.5748 46.405" fill="black"/>
<path d="M55.6084 50.9956C57.151 47.0403 56.4022 39.8151 52.3504 37.4439C47.5524 34.6308 40.7535 36.853 36.6992 40.0237C35.5198 40.9473 34.2226 42.1316 33.3737 43.3582L21.2484 60.8104C19.513 63.4448 20.6924 65.59 23.8652 65.5801L40.1826 65.5304C43.3579 65.5304 46.5833 62.3921 46.5833 62.3921C49.8913 59.1047 53.878 55.425 55.6109 50.9956" fill="black"/>
<path d="M48.2134 29.3355C50.7051 28.9829 53.1391 27.8979 55.6859 28.0146C61.4956 28.2902 63.0733 35.0561 66.6367 38.2491C68.4523 39.8679 70.8688 40.084 73.1952 39.6246C74.5174 39.3565 77.1994 37.4347 77.1844 35.4807C77.1393 32.752 76.1527 31.8606 72.1384 25.8321C69.4439 21.7875 66.7494 17.728 64.0499 13.6784C63.0056 12.1092 61.9639 10.5375 60.9146 8.96336C59.1692 6.33646 56.3345 6.34888 54.5991 8.98074L47.2292 20.191C45.5038 22.8204 43.9788 25.4523 43.8461 26.0283L43.7259 26.5348C43.0097 29.4621 46.1249 29.6235 48.2109 29.333" fill="black"/>
<path d="M76.5773 46.4075C75.0873 48.0363 74.604 50.3057 72.9488 51.783C71.003 53.526 70.2042 53.2901 67.7751 53.6377C65.8394 53.9183 63.4253 53.6377 61.715 54.75C58.5722 56.7761 56.4987 60.9424 56.4536 62.7474C56.4036 64.55 57.0496 65.4811 64.5222 65.4588C71.9922 65.4364 92.6317 65.3743 92.6317 65.3743C95.8095 65.3743 96.974 63.2117 95.2311 60.5873L90.3103 53.958C87.2502 50.1468 86.1083 47.9544 83.2635 45.9581C81.3578 44.6174 79.2743 44.2524 77.3236 45.7173C77.0406 45.9258 76.8002 46.1567 76.5748 46.405" fill="black"/>
<path d="M55.6084 50.9956C57.151 47.0403 56.4022 39.8151 52.3504 37.4439C47.5524 34.6308 40.7535 36.853 36.6992 40.0237C35.5198 40.9473 34.2226 42.1316 33.3737 43.3582L21.2484 60.8104C19.513 63.4448 20.6924 65.59 23.8652 65.5801L40.1826 65.5304C43.3579 65.5304 46.5833 62.3921 46.5833 62.3921C49.8913 59.1047 53.878 55.425 55.6109 50.9956" fill="black"/>
<path d="M48.2134 29.3355C50.7051 28.9829 53.1391 27.8979 55.6859 28.0146C61.4956 28.2902 63.0733 35.0561 66.6367 38.2491C68.4523 39.8679 70.8688 40.084 73.1952 39.6246C74.5174 39.3565 77.1994 37.4347 77.1844 35.4807C77.1393 32.752 76.1527 31.8606 72.1384 25.8321C69.4439 21.7875 66.7494 17.728 64.0499 13.6784C63.0056 12.1092 61.9639 10.5375 60.9146 8.96336C59.1692 6.33646 56.3345 6.34888 54.5991 8.98074L47.2292 20.191C45.5038 22.8204 43.9788 25.4523 43.8461 26.0283L43.7259 26.5348C43.0097 29.4621 46.1249 29.6235 48.2109 29.333" fill="black"/>
<path d="M76.5773 46.4075C75.0873 48.0363 74.604 50.3057 72.9488 51.783C71.003 53.526 70.2042 53.2901 67.7751 53.6377C65.8394 53.9183 63.4253 53.6377 61.715 54.75C58.5722 56.7761 56.4987 60.9424 56.4536 62.7474C56.4036 64.55 57.0496 65.4811 64.5222 65.4588C71.9922 65.4364 92.6317 65.3743 92.6317 65.3743C95.8095 65.3743 96.974 63.2117 95.2311 60.5873L90.3103 53.958C87.2502 50.1468 86.1083 47.9544 83.2635 45.9581C81.3578 44.6174 79.2743 44.2524 77.3236 45.7173C77.0406 45.9258 76.8002 46.1567 76.5748 46.405" fill="black"/>
<path d="M55.6084 50.9956C57.151 47.0403 56.4022 39.8151 52.3504 37.4439C47.5524 34.6308 40.7535 36.853 36.6992 40.0237C35.5198 40.9473 34.2226 42.1316 33.3737 43.3582L21.2484 60.8104C19.513 63.4448 20.6924 65.59 23.8652 65.5801L40.1826 65.5304C43.3579 65.5304 46.5833 62.3921 46.5833 62.3921C49.8913 59.1047 53.878 55.425 55.6109 50.9956" fill="black"/>
<path d="M48.2134 29.3355C50.7051 28.9829 53.1391 27.8979 55.6859 28.0146C61.4956 28.2902 63.0733 35.0561 66.6367 38.2491C68.4523 39.8679 70.8688 40.084 73.1952 39.6246C74.5174 39.3565 77.1994 37.4347 77.1844 35.4807C77.1393 32.752 76.1527 31.8606 72.1384 25.8321C69.4439 21.7875 66.7494 17.728 64.0499 13.6784C63.0056 12.1092 61.9639 10.5375 60.9146 8.96336C59.1692 6.33646 56.3345 6.34888 54.5991 8.98074L47.2292 20.191C45.5038 22.8204 43.9788 25.4523 43.8461 26.0283L43.7259 26.5348C43.0097 29.4621 46.1249 29.6235 48.2109 29.333" fill="black"/>
<path d="M0.416267 78.5234C3.02814 78.5234 5.63 78.5234 8.24187 78.5358C13.9289 78.5358 15.3262 81.7587 15.3262 85.8728C15.3212 88.969 13.8888 92.9118 8.95556 92.9118L0.40625 92.9019C0.411258 88.1149 0.416267 83.3179 0.416267 78.5234ZM3.45135 90.6549H7.74103C9.93721 90.6573 12.2686 89.9596 12.2686 85.7487C12.2811 81.0734 9.29363 80.7854 7.58577 80.7854H3.46137L3.45135 90.6549Z" fill="black"/>
<path d="M84.3819 80.8496L78.9453 80.8472V78.5977L92.8686 78.6051V80.8571H87.4345L87.427 92.986L84.3769 92.9811L84.3819 80.8496Z" fill="black"/>
<path d="M96.6587 78.6094L109.247 78.6218V80.8787L99.7088 80.8738L99.7013 84.4938L108.859 84.5087V86.7533L99.6913 86.7508V90.7333L109.405 90.7507V93.0002L96.6387 92.9953L96.6587 78.6094Z" fill="black"/>
<path d="M28.3979 79.8695C27.8996 78.7299 26.918 78.2109 25.9739 78.2109C25.0298 78.2109 24.1633 78.633 23.6249 79.7032L17.6875 92.9271H20.9805L22.488 89.3666H29.3095L30.832 92.9345H34.2227L28.3979 79.872V79.8695ZM23.4071 87.1047L25.9313 81.0439L28.3979 87.1096L23.4071 87.1047Z" fill="black"/>
<path d="M72.4175 79.9125C71.9191 78.7654 70.9325 78.2539 69.9909 78.2539C69.0493 78.2539 68.1804 78.6685 67.642 79.7387L61.707 92.9551H64.995L66.5051 89.3947L73.329 89.4046L74.849 92.975H78.2422L72.415 79.9125H72.4175ZM67.4166 87.1451L69.9483 81.0819L72.4125 87.1501L67.4166 87.1451Z" fill="black"/>
<path d="M57.1582 80.3344C57.1031 79.0954 56.0789 78.1072 54.8143 78.1023C53.7775 78.1023 52.8134 78.6733 52.3376 79.6541L47.7825 89.7172L43.2399 79.6367C42.7215 78.5467 41.7274 78.0898 40.7032 78.0898C39.446 78.0898 38.4193 79.0656 38.3417 80.2947C38.3417 80.2947 38.3342 80.3021 38.3242 80.3021L38.3066 92.9351H41.179L41.0663 81.0569H41.1063L46.4177 92.95H49.0196L54.3936 81.0693H54.4361L54.3034 92.9549H57.1707L57.1807 80.3468L57.1632 80.3369L57.1582 80.3344Z" fill="black"/>
</g>
<defs>
<clipPath id="clip0_3633_89637">
<rect width="109" height="86" fill="white" transform="translate(0.40625 7)"/>
</clipPath>
</defs>
</svg>
