<svg width="170" height="100" viewBox="0 0 170 100" fill="none" xmlns="http://www.w3.org/2000/svg">
<path d="M146.514 59.1095C146.585 58.4441 146.627 57.7721 146.627 57.0916C146.627 46.7897 138.244 38.4434 127.901 38.4434C117.562 38.4434 109.18 46.7897 109.18 57.0916C109.18 67.3901 117.562 75.7334 127.901 75.7334C135.767 75.7334 142.491 70.9136 145.27 64.0656L137.199 62.6256C135.411 65.9574 132.028 68.2018 128.161 68.2018C123.028 68.2018 118.778 64.2704 117.923 59.1093L146.514 59.1095ZM128.162 46.1828C132.545 46.1828 136.288 49.0572 137.816 53.126H118.495C120.019 49.0574 123.771 46.1828 128.162 46.1828Z" fill="black"/>
<path d="M104.148 39.2168H94.5859V75.0561H104.148V39.2168Z" fill="black"/>
<path d="M99.3742 24.6074C96.4223 24.6074 94.0391 27.0476 94.0391 30.0411C94.0391 33.03 96.4223 35.4637 99.3742 35.4637C102.314 35.4637 104.702 33.03 104.702 30.0411C104.702 27.0476 102.314 24.6074 99.3742 24.6074Z" fill="black"/>
<path d="M36.0566 27.7324V47.0257H15.4449V27.7324H4.99219V75.0306H15.4449V55.7364H36.0566V75.0306H46.5179V27.7324H36.0566Z" fill="black"/>
<path d="M79.2137 39.2281V41.1512C76.4343 39.4362 73.1773 38.4512 69.6874 38.4512C59.5501 38.4512 51.3281 46.7923 51.3281 57.086C51.3281 67.3776 59.5501 75.7209 69.6874 75.7209C73.0867 75.7209 76.2624 74.7806 78.9929 73.152V75.0191H88.3235V39.2281H79.2137ZM70.1537 67.864C64.2374 67.864 59.4547 63.0429 59.4547 57.0902C59.4547 51.1325 64.2372 46.3078 70.1537 46.3078C76.0686 46.3078 80.8591 51.1325 80.8591 57.0902C80.8588 63.0429 76.0684 67.864 70.1537 67.864Z" fill="black"/>
<path d="M166.4 35.8887C157.595 37.4531 150.9 45.2549 150.797 54.6644V75.0563H159.953L159.958 54.2811C159.958 49.5251 163.464 45.6001 167.982 45.0369L166.4 35.8887Z" fill="black"/>
</svg>
