<svg width="243" height="100" viewBox="0 0 243 100" fill="none" xmlns="http://www.w3.org/2000/svg">
<path d="M73.6652 54.9031L62.1652 33.7499H62.0177L50.5347 54.8745C49.8826 56.0945 48.6181 56.9194 47.1607 56.9194C45.3858 56.9194 43.9001 55.7108 43.4635 54.0554L35.9102 26.0057H41.7793L47.7561 48.2186L58.7912 27.936L58.9102 27.7356C59.6021 26.6931 60.7702 26.0057 62.1028 26.0057C63.4354 26.0057 64.6716 26.7446 65.3407 27.8272L65.4315 27.9647L65.4995 28.0792L76.4495 48.2129L82.4206 26H88.2784L80.7818 53.9179L80.7025 54.1986C80.2148 55.7681 78.7631 56.9136 77.0392 56.9136C75.5819 56.9136 74.323 56.0946 73.6709 54.8974" fill="black"/>
<path d="M217.972 39.2068H233.64C238.471 39.2068 242.406 43.1705 242.406 48.0736C242.406 52.9767 238.482 56.9176 233.64 56.9176H207.799L211.02 52.4097H232.25C234.615 52.3982 236.537 50.4622 236.537 48.0736C236.537 45.6851 234.598 43.7147 232.245 43.7147H216.526C211.689 43.6918 207.793 39.728 207.793 34.8707C207.793 30.0135 211.7 26.0325 216.526 26.0039H242.401L239.174 30.5118H217.966C215.584 30.5118 213.662 32.4593 213.662 34.8707C213.662 37.2822 215.573 39.2068 217.972 39.2068Z" fill="black"/>
<path d="M102.931 26.0039H116.285C124.734 26.0039 131.584 32.929 131.584 41.4636C131.584 49.9982 124.734 56.9233 116.285 56.9233H102.999C94.5493 56.9233 87.6992 50.0154 87.6992 41.4636C87.6992 32.9118 94.5096 26.0612 102.931 26.0039ZM104.411 52.4097H114.913C120.85 52.3868 125.709 47.4894 125.709 41.4579C125.709 35.4263 120.884 30.5462 114.913 30.5175H104.28C98.3657 30.5977 93.5626 35.4607 93.5626 41.4579C93.5626 47.455 98.4167 52.4097 104.411 52.4097Z" fill="black"/>
<path d="M32.6892 56.9194H15.6263C7.21105 56.8678 0.40625 49.9714 0.40625 41.4597C0.40625 32.948 7.25643 26 15.7057 26H35.9044L32.6892 30.5079H16.9872C11.0614 30.5881 6.26973 35.4625 6.26973 41.4597C6.26973 47.4568 11.0841 52.3657 17.0439 52.4115H35.91L32.6948 56.9194H32.6892Z" fill="black"/>
<path d="M140.465 30.5136V43.4587H161.492C165.064 43.4587 167.928 40.5661 167.928 36.9919C167.928 33.4177 165.081 30.548 161.571 30.5136H140.465ZM134.596 26.0057H162.921C168.926 26.0229 173.791 30.9318 173.791 36.9862C173.791 43.0406 169.345 47.5256 163.714 47.9437L173.303 56.9136H165.472L155.917 47.9609H140.465V56.9136H134.596V26V26.0057Z" fill="black"/>
<path d="M199.962 26.0039H207.799L187.367 41.4579L207.793 56.9176H199.962L182.678 43.8407V56.9176H176.814V26.0039H182.678V39.0808L199.962 26.0039Z" fill="black"/>
<path d="M6.21816 65.9753C6.90998 65.2593 7.79462 64.8984 8.86637 64.8984C10.301 64.8984 11.3501 65.3796 12.0136 66.3419C12.3765 66.8803 12.5806 67.4187 12.6033 67.9629H10.8057C10.6867 67.5447 10.5449 67.2297 10.3634 67.0178C10.0402 66.6397 9.56953 66.4507 8.94009 66.4507C8.31065 66.4507 7.79459 66.7142 7.42033 67.2469C7.04607 67.7796 6.86462 68.5357 6.86462 69.5094C6.86462 70.4832 7.06311 71.2163 7.44871 71.7032C7.83999 72.1901 8.33333 72.4307 8.94009 72.4307C9.54685 72.4307 10.0288 72.2187 10.3521 71.8006C10.5335 71.5772 10.681 71.2393 10.8001 70.7925H12.5919C12.4388 71.7433 12.0476 72.5108 11.4125 73.1066C10.7774 73.6965 9.96644 74.0001 8.97408 74.0001C7.74922 74.0001 6.78523 73.5934 6.08207 72.7915C5.37891 71.9839 5.02734 70.8784 5.02734 69.475C5.02734 67.9514 5.42995 66.7829 6.22384 65.9638" fill="black"/>
<path d="M29.5085 66.6072H24.9493V68.4573H29.1342V69.9695H24.9493V72.2034H29.7183V73.7729H23.1914V65.0664H29.5085V66.6072Z" fill="black"/>
<path d="M45.7437 65.2877C46.0612 65.4252 46.3334 65.6314 46.5545 65.8949C46.736 66.1183 46.8834 66.3588 46.9855 66.628C47.0932 66.8973 47.1443 67.2008 47.1443 67.5445C47.1443 67.9512 47.0422 68.3636 46.838 68.7588C46.6282 69.1598 46.288 69.4405 45.8174 69.6066C46.2143 69.767 46.4922 69.9961 46.6623 70.2939C46.8267 70.5918 46.9061 71.0443 46.9061 71.6572V72.2414C46.9061 72.6424 46.9232 72.9059 46.9572 73.0491L47.286 73.5474V73.7651H45.3013L45.1879 73.3011C45.1426 73.0548 45.1142 72.8027 45.1142 72.5507L45.1029 71.7374C45.0915 71.1875 45.0008 70.8152 44.8193 70.6261C44.6379 70.4428 44.2976 70.3512 43.7929 70.3512H42.035V73.7593H40.2715V65.0586H44.394C44.9838 65.07 45.4374 65.1445 45.755 65.282M42.0237 66.5765V68.9135H43.9574C44.343 68.9135 44.6322 68.8677 44.825 68.7703C45.1653 68.6042 45.3354 68.2777 45.3354 67.7908C45.3354 67.2638 45.1709 66.9087 44.842 66.7312C44.6548 66.6281 44.377 66.5765 44.0084 66.5765H42.0237Z" fill="black"/>
<path d="M64.2246 65.0664V66.6072H61.6445V73.7671H59.8299V66.6072H57.2441V65.0664H64.2246Z" fill="black"/>
<path d="M76.0185 65.0664H74.2266V73.7671H76.0185V65.0664Z" fill="black"/>
<path d="M86.7988 65.0742H92.9401V66.6036H88.585V68.6026H92.407V70.1148H88.585V73.7635H86.7988V65.0742Z" fill="black"/>
<path d="M104.852 65.0664H103.061V73.7671H104.852V65.0664Z" fill="black"/>
<path d="M122.001 66.6072H117.447V68.4573H121.626V69.9695H117.447V72.2034H122.216V73.7729H115.684V65.0664H122.001V66.6072Z" fill="black"/>
<path d="M137.766 65.2533C138.373 65.4538 138.86 65.8261 139.234 66.3588C139.535 66.7884 139.745 67.2581 139.853 67.7622C139.96 68.2605 140.017 68.7417 140.017 69.1999C140.017 70.3569 139.79 71.3364 139.331 72.1383C138.701 73.2209 137.743 73.7593 136.439 73.7593H132.725V65.0586H136.439C136.972 65.07 137.414 65.1273 137.771 65.2476M134.465 66.5765V72.2586H136.127C136.978 72.2586 137.567 71.8347 137.908 70.987C138.089 70.523 138.18 69.9674 138.18 69.3316C138.18 68.4495 138.044 67.7622 137.766 67.2925C137.494 66.8171 136.944 66.5822 136.127 66.5822H134.465V66.5765Z" fill="black"/>
<path d="M168.664 70.0021C168.16 70.4259 167.44 70.6379 166.504 70.6379H164.712V73.771H162.926V65.0703H166.623C167.474 65.0703 168.154 65.2937 168.664 65.7405C169.169 66.1873 169.424 66.8861 169.424 67.8254C169.424 68.8507 169.169 69.5782 168.664 70.0021ZM167.292 66.8689C167.065 66.6741 166.748 66.5768 166.334 66.5768H164.712V69.1371H166.334C166.742 69.1371 167.065 69.034 167.292 68.8278C167.519 68.6216 167.638 68.2894 167.638 67.8369C167.638 67.3844 167.525 67.0636 167.292 66.8689Z" fill="black"/>
<path d="M181.548 65.0664H183.584L186.634 73.7729H184.678L184.111 71.9857H180.935L180.351 73.7729H178.469L181.542 65.0664H181.548ZM181.429 70.4793H183.635L182.546 67.054L181.429 70.4793Z" fill="black"/>
<path d="M202.349 65.2877C202.666 65.4252 202.938 65.6314 203.154 65.8949C203.335 66.1183 203.483 66.3588 203.585 66.628C203.693 66.8973 203.744 67.2008 203.744 67.5445C203.744 67.9512 203.642 68.3636 203.432 68.7588C203.228 69.1598 202.887 69.4405 202.411 69.6066C202.808 69.767 203.092 69.9961 203.256 70.2939C203.42 70.5918 203.5 71.0443 203.5 71.6572V72.2414C203.5 72.6424 203.517 72.9059 203.551 73.0491L203.885 73.5474V73.7651H201.901L201.782 73.3011C201.736 73.0548 201.708 72.8027 201.708 72.5507L201.697 71.7374C201.685 71.1875 201.589 70.8152 201.413 70.6261C201.232 70.4428 200.891 70.3512 200.392 70.3512H198.629V73.7593H196.865V65.0586H200.988C201.572 65.07 202.031 65.1445 202.349 65.282M198.629 66.5765V68.9135H200.562C200.948 68.9135 201.237 68.8677 201.43 68.7703C201.77 68.6042 201.94 68.2777 201.94 67.7908C201.94 67.2638 201.776 66.9087 201.447 66.7312C201.26 66.6281 200.982 66.5765 200.614 66.5765H198.629Z" fill="black"/>
<path d="M220.83 65.0664V66.6072H218.256V73.7671H216.435V66.6072H213.85V65.0664H220.83Z" fill="black"/>
<path d="M232.279 71.0846C232.33 71.4798 232.443 71.7777 232.608 71.9781C232.903 72.3333 233.413 72.5166 234.145 72.5166C234.576 72.5166 234.927 72.465 235.199 72.3734C235.71 72.1901 235.971 71.8579 235.971 71.3595C235.971 71.0731 235.846 70.8497 235.591 70.6951C235.341 70.5404 234.944 70.403 234.394 70.2884L233.464 70.0822C232.545 69.876 231.916 69.6526 231.576 69.412C230.992 69.0111 230.708 68.3867 230.708 67.5275C230.708 66.7485 230.986 66.1013 231.553 65.5858C232.12 65.0703 232.959 64.8125 234.06 64.8125C234.978 64.8125 235.761 65.0531 236.407 65.5399C237.059 66.0268 237.4 66.7314 237.434 67.6593H235.704C235.676 67.138 235.438 66.76 235.007 66.5423C234.717 66.3991 234.366 66.3247 233.94 66.3247C233.464 66.3247 233.084 66.4163 232.801 66.6053C232.517 66.8001 232.375 67.0636 232.375 67.4015C232.375 67.7108 232.517 67.9457 232.789 68.1003C232.971 68.2034 233.351 68.3237 233.94 68.4555L235.449 68.8163C236.112 68.9767 236.611 69.1886 236.94 69.4521C237.456 69.8588 237.711 70.4545 237.711 71.2335C237.711 72.0125 237.405 72.6884 236.798 73.2096C236.186 73.7366 235.33 73.9944 234.218 73.9944C233.107 73.9944 232.194 73.7366 231.542 73.2211C230.89 72.7056 230.566 71.9953 230.566 71.0903H232.279V71.0846Z" fill="black"/>
</svg>
