<svg width="229" height="100" viewBox="0 0 229 100" fill="none" xmlns="http://www.w3.org/2000/svg">
<g clip-path="url(#clip0_3633_89634)">
<path fill-rule="evenodd" clip-rule="evenodd" d="M20.9123 40.5559C27.9283 42.6583 35.7668 46.8393 38.1474 53.5489L35.012 57.9052C39.541 60.5758 44.9118 63.6062 49.4407 66.2768C45.5311 74.3643 29.7766 81.4621 22.7171 81.5C7.82872 81.5805 13.727 37.9374 14.1092 30.6928C12.4206 38.8797 5.58361 58.9611 9.919 79.5823C6.29004 78.1428 3.80784 75.6475 2.24013 72.4466C0.0627571 67.9909 0.169206 63.8193 0.807903 59.0605C1.65466 52.7156 3.57559 47.2371 7.3497 39.661C7.82872 39.0312 8.0271 38.643 8.02227 38.4488C7.99323 37.7906 5.55941 39.4242 3.76913 41.4461C6.83681 32.2696 12.3722 22.6763 16.3979 18.5C19.2091 21.8572 26.4138 33.2497 29.0025 37.2935C25.5429 37.7291 21.58 38.875 20.9123 40.5559ZM30.454 70.9929L37.0975 70.8035C32.854 65.9406 27.5799 60.8457 23.4139 52.2373L20.3123 51.8443C21.6091 60.6184 27.9089 71.0639 30.454 70.9882V70.9929ZM22.9445 44.6091C26.5299 45.7361 30.1686 47.7201 32.9411 50.1823C33.304 50.5043 33.1637 50.3859 33.0088 50.5611C32.7137 50.8926 32.1959 51.1246 31.6153 50.6274C29.7912 49.0601 27.2557 47.4691 23.9123 45.8639C23.9123 45.8639 22.6445 44.7464 22.9494 44.6139L22.9445 44.6091Z" fill="black"/>
<path fill-rule="evenodd" clip-rule="evenodd" d="M96.0078 57.9008H80.6162L73.1986 47.228H73.0244V57.9008H59.873V28.3493H73.0244V41.8253H73.1986L80.3162 28.3493H95.0594L84.879 44.0602L96.0078 57.8961V57.9008ZM135.07 57.9529H108.361V28.3493H135.084V35.9538H121.541V38.9748H134.117V46.9913H121.541V50.3531H135.07V57.9577V57.9529ZM185.44 64.5015H173.856V57.9482H158.818V64.5015H147.234V50.0359H149.566C151.352 48.2887 152.547 46.2005 153.152 43.7761C153.524 42.2799 153.713 40.2959 153.713 37.8147V28.3398H182.237V50.0359H185.435V64.5015H185.44ZM170.658 50.0359V35.9538H163.918V39.5477C163.918 41.83 163.743 43.6625 163.4 45.0451C162.969 46.8208 162.147 48.4828 160.937 50.0359H170.658ZM225.47 46.5604C223.137 48.8711 219.808 50.0264 215.487 50.0264H210.731V57.9435H197.551V28.3398H215.27C219.562 28.3398 222.876 29.4242 225.208 31.5976C229.331 35.4093 229.442 42.6113 225.47 46.5604ZM212.938 35.8212H210.431V43.1795H212.981C214.249 43.1795 215.454 42.4172 216.146 41.3423C217.031 39.9739 216.949 38.2077 215.807 37.0003C215.11 36.2616 214.084 35.8212 212.938 35.8212Z" fill="black"/>
<path d="M222.183 72.877H223.373V78.6491H226.388V72.877H227.578V78.6396H228.405L228.309 81.1965H227.215V79.5819H222.178V72.877H222.183ZM215.859 72.877H217.049V79.5819H215.859V74.8089L212.854 79.5819H211.664V72.877H212.854V77.6547L215.859 72.877ZM206.535 79.5771H205.349V76.5988H202.286V79.5771H201.096V72.8723H202.286V75.6612H205.349V72.8723H206.535V79.5771ZM189.435 72.877V78.6491H191.521V72.877H192.706V78.6491H194.782V72.877H195.967V79.5819H188.24V72.877H189.435ZM183.058 76.5846H180.247V78.6443H183.537V79.5724H179.061V72.8676H183.503V73.8051H180.247V75.6565H183.058V76.5751V76.5846ZM173.908 72.877V79.5819H172.723V73.8193H170.632L170.55 75.9738C170.531 76.613 170.473 77.1623 170.386 77.6168C170.298 78.0714 170.163 78.4455 169.989 78.739C169.815 79.0279 169.592 79.2457 169.321 79.383C169.05 79.5203 168.726 79.5866 168.339 79.5866H168.039V78.6585H168.228C168.445 78.6443 168.624 78.5922 168.76 78.4928C168.9 78.3981 169.011 78.2419 169.094 78.0335C169.181 77.8252 169.239 77.5505 169.278 77.2143C169.316 76.8782 169.345 76.4662 169.365 75.9785L169.481 72.8865H173.903L173.908 72.877ZM162.576 76.0495C162.576 75.6754 162.537 75.344 162.465 75.0552C162.392 74.7711 162.281 74.5296 162.141 74.3354C162 74.1413 161.826 73.9945 161.618 73.8951C161.415 73.7956 161.178 73.7483 160.921 73.7483C160.665 73.7483 160.437 73.8004 160.234 73.8951C160.031 73.9945 159.857 74.1413 159.716 74.3354C159.571 74.5296 159.465 74.7711 159.387 75.0552C159.31 75.344 159.271 75.6754 159.271 76.0495V76.3999C159.271 76.774 159.31 77.1054 159.387 77.3943C159.465 77.6831 159.576 77.9246 159.716 78.1187C159.862 78.3129 160.036 78.4597 160.244 78.5591C160.447 78.6585 160.679 78.7106 160.931 78.7106C161.458 78.7106 161.865 78.5117 162.15 78.1235C162.431 77.7305 162.576 77.1575 162.576 76.3999V76.0495ZM163.766 76.3999C163.766 76.9113 163.699 77.3659 163.563 77.7683C163.428 78.1708 163.234 78.5165 162.987 78.7959C162.741 79.0752 162.441 79.293 162.092 79.4446C161.744 79.5961 161.357 79.6718 160.936 79.6718C160.515 79.6718 160.133 79.5961 159.784 79.4446C159.436 79.293 159.136 79.08 158.884 78.7959C158.633 78.5165 158.434 78.1756 158.299 77.7683C158.158 77.3659 158.091 76.9066 158.091 76.3999V76.059C158.091 75.5476 158.158 75.093 158.299 74.6858C158.439 74.2786 158.633 73.9377 158.884 73.6536C159.131 73.3742 159.431 73.1564 159.779 73.0049C160.128 72.8581 160.51 72.7823 160.931 72.7823C161.352 72.7823 161.744 72.8581 162.092 73.0049C162.441 73.1564 162.741 73.3742 162.992 73.6536C163.239 73.9377 163.437 74.2786 163.568 74.6858C163.703 75.0883 163.771 75.5476 163.771 76.059V76.3999H163.766ZM153.813 73.8146H151.679V79.5771H150.499V73.8146H148.384V72.877H153.818V73.8146H153.813ZM144.223 77.3943C144.189 77.721 144.112 78.024 143.986 78.3034C143.86 78.5828 143.686 78.8195 143.464 79.0231C143.241 79.2267 142.97 79.383 142.646 79.4966C142.322 79.6103 141.954 79.6671 141.533 79.6671C141.112 79.6671 140.73 79.5913 140.391 79.4446C140.052 79.293 139.762 79.0847 139.52 78.8101C139.283 78.5354 139.094 78.204 138.968 77.8157C138.838 77.4274 138.775 76.9871 138.775 76.5041V75.9595C138.775 75.4766 138.843 75.0409 138.973 74.6527C139.104 74.2597 139.293 73.9282 139.535 73.6536C139.781 73.3789 140.077 73.1611 140.425 73.0143C140.773 72.8676 141.16 72.7918 141.591 72.7918C141.997 72.7918 142.36 72.8486 142.675 72.9623C142.989 73.0759 143.251 73.2369 143.473 73.4405C143.696 73.6441 143.86 73.8903 143.986 74.1697C144.112 74.4491 144.189 74.7616 144.223 75.093H143.038C143.014 74.88 142.97 74.6906 142.907 74.5201C142.844 74.3544 142.757 74.2076 142.646 74.0892C142.535 73.9708 142.389 73.8809 142.215 73.8193C142.046 73.7577 141.833 73.7246 141.591 73.7246C141.32 73.7246 141.083 73.7767 140.885 73.8761C140.681 73.9756 140.512 74.1176 140.377 74.307C140.241 74.4964 140.139 74.7284 140.072 75.0031C140.004 75.2777 139.97 75.595 139.97 75.9453V76.4993C139.97 76.8355 139.999 77.1386 140.062 77.4085C140.12 77.6831 140.212 77.9151 140.338 78.1093C140.464 78.3034 140.623 78.4549 140.822 78.5638C141.02 78.6727 141.257 78.7248 141.533 78.7248C141.789 78.7248 142.007 78.6964 142.181 78.6349C142.36 78.578 142.505 78.4881 142.622 78.3792C142.738 78.2655 142.83 78.1282 142.893 77.9625C142.955 77.7968 143.004 77.6074 143.033 77.3895H144.218L144.223 77.3943ZM123.306 77.077H125.29L124.298 74.2975L123.306 77.077ZM125.624 78.0193H122.972L122.416 79.5819H121.177L123.766 72.877H124.835L127.428 79.5819H126.185L125.624 78.0193ZM113.89 76.7077H113.082V79.5819H111.896V72.877H113.082V75.6944H113.735L115.748 72.877H117.204L114.853 76.0874L117.412 79.5819H115.98L113.885 76.7077H113.89ZM105.529 72.877H106.719V79.5819H105.529V74.8089L102.524 79.5819H101.334V72.877H102.524V77.6547L105.529 72.877ZM92.6485 76.1537H94.0759C94.3033 76.1537 94.5017 76.1253 94.6662 76.0732C94.8307 76.0164 94.9662 75.9406 95.0726 75.8364C95.1791 75.737 95.2565 75.6139 95.3049 75.4766C95.3533 75.3345 95.3775 75.183 95.3775 75.0173C95.3775 74.8515 95.3533 74.7095 95.3049 74.5674C95.2565 74.4207 95.1791 74.2928 95.0726 74.1839C94.9662 74.0703 94.8307 73.985 94.6662 73.9187C94.5017 73.8524 94.3033 73.8193 94.0759 73.8193H92.6485V76.1584V76.1537ZM92.6485 77.0865V79.5771H91.4582V72.8723H94.0759C94.4726 72.8723 94.8307 72.9244 95.1355 73.0285C95.4452 73.1375 95.7065 73.2842 95.9194 73.4736C96.1323 73.663 96.2968 73.8903 96.4081 74.1508C96.5194 74.4112 96.5774 74.6953 96.5774 75.0031C96.5774 75.3298 96.5194 75.6186 96.4081 75.8743C96.2968 76.13 96.1371 76.3526 95.9194 76.5278C95.7065 76.7077 95.4452 76.845 95.1355 76.9397C94.8259 77.0344 94.4726 77.0818 94.0759 77.0818H92.6485V77.0865ZM82.8551 76.3762V78.6491H84.2535C84.4712 78.6491 84.6648 78.6159 84.8245 78.5544C84.9841 78.4928 85.1196 78.4076 85.2212 78.2987C85.3228 78.1898 85.4002 78.0667 85.4486 77.9246C85.5019 77.7825 85.5261 77.6358 85.5261 77.4795C85.5261 77.3232 85.5019 77.1812 85.4486 77.0486C85.4002 76.916 85.3228 76.7977 85.2212 76.6982C85.1148 76.5988 84.9841 76.523 84.8245 76.4615C84.6648 76.3999 84.4712 76.3715 84.2535 76.3715H82.8551V76.3762ZM86.0099 73.8146H82.8551V75.4387H84.2535C84.6406 75.4387 84.989 75.486 85.2938 75.5855C85.5986 75.6849 85.8551 75.8222 86.0631 76.0022C86.2712 76.1821 86.4357 76.3952 86.547 76.6461C86.6583 76.8971 86.7115 77.1812 86.7115 77.4842C86.7115 77.7873 86.6583 78.0761 86.547 78.3318C86.4357 78.5875 86.276 78.8101 86.0631 78.9947C85.8551 79.1794 85.5938 79.3214 85.2938 79.4209C84.989 79.5251 84.6406 79.5724 84.2535 79.5724H81.6648V72.8676H86.0099V73.8051V73.8146ZM73.0666 77.077H75.0505L74.0586 74.2975L73.0666 77.077ZM75.3843 78.0193H72.7328L72.1763 79.5819H70.9377L73.5263 72.877H74.5956L77.1891 79.5819H75.9456L75.3843 78.0193ZM63.8975 74.4396V78.043H63.9797C64.2459 78.043 64.483 78.0051 64.6958 77.9199C64.9087 77.8394 65.0878 77.721 65.2281 77.5647C65.3733 77.4085 65.4797 77.2238 65.5571 77.0013C65.6345 76.7835 65.6732 76.5278 65.6732 76.2531C65.6732 75.9785 65.6345 75.7133 65.5571 75.486C65.4797 75.2635 65.3733 75.0741 65.2281 74.9178C65.0829 74.7616 64.9039 74.6432 64.6958 74.5627C64.483 74.4822 64.2459 74.4396 63.9797 74.4396H63.8975ZM62.6636 74.4396C62.3927 74.4396 62.1556 74.4822 61.9427 74.5674C61.7346 74.6479 61.5556 74.7663 61.4104 74.9273C61.2653 75.0836 61.154 75.273 61.0766 75.5002C60.9992 75.7228 60.9604 75.9832 60.9604 76.2673C60.9604 76.5514 60.9992 76.7977 61.0766 77.0202C61.154 77.238 61.2653 77.4274 61.4104 77.5789C61.5556 77.7305 61.7346 77.8488 61.9427 77.9293C62.1507 78.0098 62.3927 78.0477 62.6636 78.0477H62.7556V74.4443H62.6636V74.4396ZM63.8975 73.5115H63.9701C64.3765 73.5115 64.7491 73.5778 65.0975 73.7104C65.4458 73.843 65.7458 74.0276 65.9974 74.2644C66.2539 74.5011 66.4523 74.79 66.5926 75.1309C66.7377 75.4671 66.8055 75.8412 66.8055 76.2531C66.8055 76.6651 66.7329 77.0344 66.5926 77.3659C66.4474 77.7021 66.2539 77.9862 65.9974 78.2229C65.7458 78.4597 65.4458 78.6443 65.0975 78.7769C64.7539 78.9095 64.3765 78.971 63.9701 78.971H63.8975V79.8518H62.7556V78.971H62.6636C62.2572 78.971 61.8846 78.9048 61.5362 78.7769C61.1927 78.6491 60.8927 78.4644 60.6411 78.2276C60.3895 77.9909 60.1911 77.7068 60.0508 77.3706C59.9056 77.0391 59.8379 76.6651 59.8379 76.2579C59.8379 75.8506 59.9105 75.4718 60.0508 75.1309C60.1959 74.79 60.3895 74.5011 60.6411 74.2644C60.8927 74.0229 61.1927 73.8382 61.5362 73.7057C61.8846 73.5731 62.2572 73.5068 62.6636 73.5068H62.7556V72.5977H63.8975V73.5068V73.5115Z" fill="black"/>
</g>
<defs>
<clipPath id="clip0_3633_89634">
<rect width="228" height="63" fill="white" transform="translate(0.40625 18.5)"/>
</clipPath>
</defs>
</svg>
