<svg width="302" height="100" viewBox="0 0 302 100" fill="none" xmlns="http://www.w3.org/2000/svg">
<path d="M7.15092 70.8892C6.87527 70.8892 0.40625 70.8501 0.40625 67.3596V29.608H0.772808C1.04846 29.608 7.51748 29.6471 7.51748 33.1432V46.2911C13.9513 45.315 17.6785 40.868 22.2297 33.0816C23.5845 30.7379 25.8014 29.4961 28.643 29.4961C29.8981 29.4961 31.2998 29.8317 31.3584 29.8457L31.854 29.966L31.5784 30.3743C30.684 31.6944 29.7866 33.2494 28.8394 34.8912C25.7076 40.3226 22.1857 46.4365 16.3354 48.7159C22.825 50.78 27.0594 58.6419 30.1972 64.4677C31.3672 66.638 32.376 68.5147 33.3349 69.8348L33.6311 70.2432L33.1296 70.3718C33.0651 70.3886 31.5432 70.7802 30.3907 70.7802C28.9274 70.7802 25.3205 70.4306 23.4525 67.1918C23.0097 66.4171 22.5786 65.6424 22.1505 64.8704C18.5817 58.4433 15.2093 52.3686 7.51748 51.2303V70.8892H7.15092Z" fill="black"/>
<path d="M51.9069 71C37.6698 71 34.6816 63.8541 34.6816 57.8605V42.6233C34.6816 36.6325 37.6698 29.4922 51.9069 29.4922C66.1441 29.4922 69.1997 36.6325 69.1997 42.6233V57.8605C69.1997 63.8541 66.1998 71 51.9069 71ZM51.8571 34.8845C43.4468 34.8845 41.8017 37.989 41.8017 43.3533V57.1389C41.8017 62.5032 43.4468 65.6105 51.8571 65.6105C60.2674 65.6105 62.0797 62.6319 62.0797 57.1389V43.3533C62.0797 36.2354 58.4874 34.8845 51.8571 34.8845Z" fill="black"/>
<path d="M82.0289 70.8888C81.7532 70.8888 75.2754 70.8496 75.2754 67.3592V30.1641H86.6504C94.0696 30.1641 103.934 31.5149 103.934 43.1889V44.1902C103.934 52.8632 98.1193 57.2626 86.6504 57.2626H82.3954V70.8916H82.0289V70.8888ZM86.6504 51.8703C95.1575 51.8703 96.8232 48.8693 96.8232 43.6896C96.8232 37.9113 93.876 35.5536 86.6504 35.5536H82.3954V51.8703H86.6504Z" fill="black"/>
<path d="M148.631 70.8866C148.356 70.8866 141.878 70.8474 141.878 67.3569V44.9683C141.878 43.8356 141.977 42.5882 142.086 41.5729L131.116 62.9547H130.887C130.726 62.9547 126.913 62.9156 124.778 59.6069L116.084 41.8666C116.18 42.8007 116.266 43.9167 116.266 44.9655V70.881H115.899C115.623 70.881 109.154 70.8418 109.154 67.3514V30.1562H113.876C114.732 30.1562 117.644 30.3884 119.104 33.3782L128.963 53.5741C131.341 48.8363 138.972 33.7362 140.687 30.3548L140.787 30.1562H141.018C146.317 30.1562 149.004 31.3449 149.004 33.6942V70.881H148.637L148.631 70.8866Z" fill="black"/>
<path d="M172.346 71C158.109 71 155.121 63.8541 155.121 57.8605V42.6233C155.121 36.6325 158.109 29.4922 172.346 29.4922C186.584 29.4922 189.648 36.6325 189.648 42.6233V57.8605C189.648 63.8541 186.645 71 172.346 71ZM172.282 34.8845C163.874 34.8845 162.232 37.989 162.232 43.3533V57.1389C162.232 62.5032 163.877 65.6105 172.282 65.6105C180.686 65.6105 182.534 62.6319 182.534 57.1389V43.3533C182.534 36.2354 178.93 34.8845 172.282 34.8845Z" fill="black"/>
<path d="M201.662 70.3283C201.416 70.3283 195.738 70.2304 195.738 66.7931V30.1602H208.861C218.776 30.1602 223.805 33.5667 223.805 40.2847V41.8397C223.805 45.2798 222.098 48.4515 219.494 49.9757C222.447 51.542 224.388 54.8478 224.388 58.4222V59.9269C224.388 66.6337 218.875 70.3283 208.861 70.3283H201.662ZM208.861 64.9388C214.917 64.9388 217.274 63.2999 217.274 59.0934C217.274 54.887 214.676 52.6831 209.333 52.6831H202.847V64.9388H208.858H208.861ZM209.336 47.2936C214.562 47.2936 216.694 45.4728 216.694 41.0063C216.694 37.0292 214.571 35.5525 208.861 35.5525H202.85V47.2936H209.336Z" fill="black"/>
<path d="M256.949 70.8888V44.1287C256.949 42.8309 257.117 41.4325 257.278 40.3669L239.885 66.9257C239.836 67.0459 237.968 70.8888 230.267 70.8888H229.9V33.7021C229.9 30.206 236.369 30.1641 236.645 30.1641H237.012V56.4096C237.012 57.5591 236.842 58.9323 236.674 59.9951L238.798 56.7871L254.131 33.2937C256.166 30.1641 259.656 30.1641 263.694 30.1641H264.061V67.3592C264.061 70.8496 257.592 70.8888 257.316 70.8888H256.949Z" fill="black"/>
<path d="M287.817 70.8882C287.541 70.8882 281.063 70.849 281.063 67.3586V35.553H273.181C270.826 35.553 268.02 34.5238 268.02 29.6237V29L268.577 29.3272C268.577 29.3272 270.096 30.1635 274.116 30.1635H295.245C299.277 30.1635 300.84 29.33 300.857 29.3244L301.406 29.0224V29.6265C301.406 33.5057 299.602 35.5558 296.189 35.5558H288.183V70.8882H287.817Z" fill="black"/>
</svg>
