<svg width="111" height="88" viewBox="0 0 111 88" fill="none" xmlns="http://www.w3.org/2000/svg">
<g clip-path="url(#clip0_2691_26566)">
<path fill-rule="evenodd" clip-rule="evenodd" d="M23.1465 32.2948C25.8147 32.2713 28.4851 32.2478 31.1533 32.2478L55.7597 3.85941L52.2828 0L23.1465 32.2948ZM55.4569 18.9341L59.5112 14.7908L74.7485 32.2948C72.5063 32.2948 69.7364 32.3652 67.1936 32.4143L55.4569 18.9341Z" fill="black"/>
<path fill-rule="evenodd" clip-rule="evenodd" d="M31.1526 55.8243L46.5391 72.8523L50.1652 68.852L38.6555 55.7539L31.1504 55.8243H31.1526ZM50.3165 83.9032L54.2194 87.9996L82.0475 55.9204L74.644 55.8734L50.3165 83.9032Z" fill="black"/>
<path fill-rule="evenodd" clip-rule="evenodd" d="M57.6804 3.85941L33.0762 32.2457L42.0408 32.2222L45.7448 32.1048L56.5214 19.8157L61.4319 14.7908L75.787 31.3171L76.6692 32.2948L89.6622 32.2457L87.7486 30.126L76.0897 17.0044L61.2308 0L57.6804 3.85941Z" fill="black"/>
<path fill-rule="evenodd" clip-rule="evenodd" d="M29.1963 55.8265L16.8066 55.8009L44.8121 88.0018L72.6899 55.8735L60.1229 55.7305L44.585 72.8544L29.1963 55.8265Z" fill="black"/>
<path fill-rule="evenodd" clip-rule="evenodd" d="M20.1605 52.125C21.1725 52.125 22.1022 52.0161 22.9931 51.7194C23.4861 51.5572 23.9639 51.3544 24.4158 51.1238C24.6342 51.015 24.8396 50.8805 25.0451 50.7439L25.6202 50.3255C25.6289 50.3255 25.6332 50.3212 25.6332 50.3127C25.6872 50.2849 25.7154 50.2444 25.7694 50.2188C26.0029 50.0288 26.2213 49.8132 26.4397 49.5954C26.7684 49.271 27.0559 48.8782 27.3154 48.4726C27.4516 48.2698 27.5619 48.0393 27.6722 47.8237C27.9727 47.2281 28.15 46.5792 28.2884 45.9281C28.3425 45.6442 28.3836 45.3475 28.3987 45.0487C28.4938 43.8319 28.4398 42.532 28.1111 41.3963C27.9338 40.8285 27.7284 40.3418 27.4127 39.8274C27.2614 39.5691 27.0711 39.3257 26.8786 39.0824V39.0696L26.604 38.7579L26.5911 38.7451C26.5723 38.7266 26.5586 38.7088 26.55 38.6918C26.537 38.6918 26.537 38.679 26.5219 38.664L26.2905 38.4207L26.2775 38.4079C26.2365 38.3673 26.2083 38.3267 26.1673 38.2734C26.0851 38.1923 25.99 38.0983 25.9078 38.03C25.6332 37.7867 25.3889 37.5433 25.0861 37.3256C24.2104 36.6639 23.2677 36.365 22.1995 36.1494C21.6525 36.0555 20.8719 36 20.2989 36H20.286C19.9703 36 19.6567 36.0128 19.341 36.0534C19.1767 36.0811 19.0405 36.0811 18.8891 36.1067C17.4664 36.3223 16.1128 36.8773 14.9906 37.7717C14.7982 37.9212 14.4846 38.1773 14.3073 38.3545C13.8014 38.8689 13.3495 39.4367 13.0208 40.0857C12.5278 41.0463 12.2964 41.9385 12.1732 43.0357C12.1451 43.2663 12.1321 43.5096 12.1321 43.753C12.1321 43.8469 12.1191 43.8874 12.1191 43.9963C12.1321 45.9858 12.53 47.5675 13.6241 49.0298C13.7343 49.1642 13.8295 49.3137 13.9527 49.4353C13.9614 49.4353 13.9657 49.4396 13.9657 49.4482L14.076 49.5698C14.089 49.5698 14.089 49.5826 14.089 49.5826C14.1841 49.6637 14.2663 49.7449 14.3484 49.826C14.5409 50.0288 14.8133 50.2316 15.0317 50.4066C15.0728 50.4344 15.1139 50.4749 15.1679 50.5005C15.1679 50.5133 15.1809 50.5133 15.1809 50.5133L15.769 50.9061C15.769 50.9061 15.782 50.9189 15.7971 50.9189L16.4263 51.2562C16.4263 51.269 16.4393 51.269 16.4393 51.269C17.5875 51.8368 18.874 52.1207 20.1605 52.1207M55.1111 52.125H54.8106C54.5641 52.1122 54.2916 52.0972 54.004 52.0716C53.7035 52.031 53.4159 51.9905 53.1413 51.9371C52.5942 51.8026 52.3196 51.7471 51.7877 51.5315C51.7337 51.5187 51.6775 51.491 51.6234 51.4632C51.5001 51.4099 51.3769 51.3693 51.2666 51.3138C51.0201 51.1793 50.8558 51.111 50.6244 50.9616C50.2287 50.7311 49.6795 50.3532 49.3249 50.0288V50.016L49.2017 49.922C49.2017 49.9092 49.1887 49.9092 49.1887 49.8943C49.1757 49.8815 49.1606 49.8665 49.1347 49.8409C48.9292 49.6659 48.9703 49.6915 48.8341 49.5442C48.8341 49.5442 48.8211 49.5442 48.8211 49.5314L48.4795 49.1536C48.4795 49.1536 48.4795 49.1408 48.4665 49.1408C48.3973 49.0468 48.3303 48.9636 48.2611 48.8697C47.673 48.0308 47.2903 47.1235 47.0848 46.0947C46.9075 45.2024 46.8924 44.7285 46.8924 43.8213C46.8924 42.9141 47.0978 41.6845 47.4265 40.8584C47.74 40.1006 48.0016 39.6267 48.5206 38.965C48.6719 38.775 48.8363 38.6128 48.9984 38.4506C49.0806 38.3566 49.1498 38.2883 49.232 38.2072C49.2449 38.2072 49.2449 38.1944 49.2449 38.1944L49.3811 38.0855V38.0727C49.4093 38.0599 49.4222 38.045 49.4503 38.0322C49.4503 38.0236 49.4547 38.0194 49.4633 38.0194L49.6558 37.8571C50.0666 37.5049 50.5444 37.2338 51.0093 36.9649C51.1045 36.9115 51.2428 36.8432 51.351 36.8026C51.4742 36.7493 51.5693 36.6938 51.6926 36.6532C51.9261 36.5593 52.1704 36.4504 52.4321 36.3821C53.2386 36.1516 53.3489 36.1665 54.1143 36.0576C54.3067 36.0299 54.8797 36.0043 55.057 36.0043C55.4549 36.0043 56.0971 36.0448 56.4798 36.0854C56.6441 36.1131 56.7804 36.1259 56.9317 36.1537C57.5069 36.2476 58.0258 36.397 58.5188 36.587C58.9837 36.777 59.4356 37.0054 59.8053 37.2893C59.814 37.2979 59.8234 37.3021 59.8335 37.3021L60.3113 37.6949C60.3243 37.7077 60.3243 37.7226 60.3394 37.7226C60.3524 37.7355 60.3675 37.7504 60.3805 37.7632L61.0097 38.3716C61.0638 38.4249 61.0789 38.4527 61.12 38.4932L61.133 38.5061L61.3665 38.7622L61.3795 38.775C61.4076 38.8156 61.4487 38.8561 61.4897 38.8967C61.7233 39.1678 62.0498 39.6267 62.2292 39.9106C62.8865 41.0057 63.213 42.4551 63.213 43.9558C63.213 45.3369 63.0206 46.6347 62.4195 47.8664C62.3654 47.9881 62.3092 48.082 62.2422 48.2037C62.0779 48.5409 61.7773 48.9337 61.5308 49.2326V49.2454L61.4205 49.367C61.2562 49.5442 61.0919 49.7043 60.9275 49.8687C60.7913 50.0032 60.5319 50.2209 60.3805 50.3298C60.1621 50.5197 59.7102 50.8164 59.4918 50.9531C59.3686 51.0214 59.2864 51.0619 59.1632 51.1302C58.2615 51.6169 57.1393 51.982 56.0993 52.078C55.7446 52.1058 55.429 52.1186 55.1284 52.1314H55.1154L55.1111 52.125ZM55.0289 47.9987C54.1403 47.9987 53.2645 47.7554 52.6072 47.2815C52.2505 47.0254 52.0191 46.8354 51.7315 46.4703C51.7315 46.4703 51.7315 46.4575 51.7185 46.4575L51.5412 46.1736C51.5412 46.1736 51.5283 46.1736 51.5283 46.1608C51.4331 46.0114 51.3639 45.8641 51.2947 45.6997C50.9661 44.8736 50.938 43.8597 51.1023 43.008C51.2255 42.4402 51.431 42.0068 51.7726 41.5735C51.965 41.3024 52.3607 40.978 52.6353 40.8029C52.9359 40.6001 53.2364 40.4507 53.5802 40.344C54.2916 40.1006 55.2776 40.0601 56.0149 40.25C56.3436 40.3312 56.7544 40.4656 57.055 40.6428C57.3296 40.805 57.3836 40.8456 57.6301 41.0356C57.9047 41.2384 58.1491 41.5095 58.3415 41.7934C58.7653 42.4295 58.9707 43.1873 58.9707 44.0518C58.9707 45.0401 58.6961 46.0947 58.0128 46.7713H57.9999L57.7534 47.0019C57.7534 47.0104 57.749 47.0147 57.7404 47.0147C57.4247 47.2858 57.0701 47.5014 56.6874 47.6785C56.2484 47.8685 55.6473 48.003 55.0311 48.003L55.0289 47.9987ZM30.5155 44.0475C30.5155 45.1832 30.5696 45.7126 30.8853 46.7543C31.0777 47.4032 31.3631 47.9582 31.7199 48.526C31.8561 48.7565 32.0897 49.0532 32.267 49.271C32.321 49.3393 32.3621 49.3798 32.4183 49.4332C32.4464 49.4866 32.4594 49.4866 32.4875 49.5271C32.5286 49.5549 32.5416 49.5805 32.5697 49.6211C33.1297 50.2166 33.6919 50.6628 34.3881 51.0683C34.6757 51.2306 34.9633 51.3672 35.2768 51.4889C35.8779 51.7322 36.466 51.8539 37.1234 51.935C37.5212 51.9755 38.1504 51.9884 38.5461 51.9755C38.6153 51.9755 38.6283 51.9627 38.7105 51.9627C38.8618 51.9627 39.9689 51.9499 39.997 51.9627C40.0921 51.9905 40.1613 51.9755 40.2976 51.9755H43.5798C43.7723 51.9755 43.9215 51.8261 43.9215 51.6383V42.5597C43.9215 42.3697 43.7701 42.2224 43.5798 42.2224H40.3516C40.1592 42.2224 40.01 42.3719 40.01 42.5597V47.6743C40.01 47.8643 39.8586 48.0265 39.6683 48.0265H38.0964C37.8499 48.0265 37.5493 47.9731 37.3439 47.9048C37.2207 47.8771 37.1255 47.8514 37.0153 47.7959C36.9742 47.7831 36.9201 47.7682 36.8639 47.7426C36.5893 47.6081 36.4271 47.527 36.1806 47.3242C36.1395 47.2964 36.0985 47.2708 36.0704 47.2303C35.9752 47.1363 35.839 47.0552 35.7287 46.9058C35.7006 46.8653 35.6595 46.8375 35.6336 46.7969C35.5925 46.7564 35.5644 46.7158 35.5384 46.6753C35.279 46.3636 35.0455 45.9303 34.9092 45.5525C34.4854 44.2674 34.6908 42.7518 35.6617 41.7635L36.1677 41.2896L36.1806 41.2768C36.399 41.1146 36.5093 41.0335 36.7558 40.884C37.2747 40.5724 38.0142 40.3162 38.8359 40.3162C40.477 40.3162 42.1592 40.3034 43.7874 40.3162C43.9647 40.3162 43.9388 40.3162 44.0339 40.2223C44.062 40.1817 44.062 40.1689 44.1031 40.1412L46.661 37.5967C46.8794 37.3662 47.0978 37.1506 47.3313 36.9328C47.3594 36.9051 47.3854 36.8795 47.4135 36.8517C47.5086 36.7429 47.5368 36.6084 47.4827 36.4867C47.4286 36.3522 47.3054 36.2711 47.1692 36.2711H38.6867L38.1396 36.3117C38.0164 36.3245 37.9212 36.3394 37.798 36.3522C36.9093 36.4739 36.0206 36.7322 35.2119 37.1228C34.7752 37.3384 34.5135 37.5156 34.0897 37.7867C33.3913 38.2328 32.68 38.9501 32.148 39.5734C32.1199 39.6139 32.094 39.6545 32.0659 39.695C31.3826 40.6023 30.9307 41.5073 30.6842 42.6451C30.5891 43.0507 30.5199 43.5651 30.5199 44.0518L30.5155 44.0475ZM66.1234 40.598V51.6383C66.1234 51.8283 66.2748 51.9755 66.4651 51.9755H70.1322C70.3247 51.9755 70.4739 51.8261 70.4739 51.6383V40.6385C70.4739 40.4486 70.6252 40.2991 70.8155 40.2991H73.3605C74.0589 40.2991 74.647 40.3803 75.0708 40.9075C75.4124 41.3408 75.5097 41.787 75.5097 42.3676C75.5097 42.9909 75.2222 43.4627 74.7854 43.7893C74.5108 43.9792 74.0329 44.1009 73.6632 44.1009C73.4167 44.1009 73.1983 44.1137 72.9518 44.1137H72.2404C72.1042 44.1137 72.0069 44.1265 71.8837 44.1265H71.7193C71.6501 44.1265 71.568 44.1137 71.568 44.1671V47.9155C71.568 47.956 71.5809 47.956 71.609 47.956H74.8784C75.6308 47.956 76.5606 47.7661 77.2179 47.4416C77.3822 47.3605 77.5185 47.2922 77.6698 47.1983H77.6828L78.1066 46.9143H78.1196C78.2839 46.7927 78.3661 46.7116 78.5023 46.6155C78.5109 46.607 78.5203 46.5977 78.5304 46.5878L78.9001 46.2633C78.9693 46.195 78.9953 46.1416 79.0645 46.0882C79.0926 46.0477 79.1185 46.0349 79.1466 45.9943C79.6245 45.4948 80.0764 44.7498 80.297 44.1009C80.6386 43.087 80.6797 41.9492 80.4894 40.8819C80.338 39.9896 80.1478 39.4474 79.6959 38.7024C79.6677 38.6619 79.6418 38.6213 79.6137 38.5936L79.3802 38.2819L79.3672 38.2691C79.2569 38.1197 79.1337 38.013 79.0104 37.8913C78.6818 37.5668 78.1217 37.1612 77.6979 36.9584C77.5206 36.8773 77.3693 36.7962 77.179 36.7151C76.4546 36.4312 75.6611 36.254 74.6492 36.254H70.4912C70.4501 36.254 70.3809 36.3479 70.3549 36.3757C70.3009 36.4291 70.2728 36.4696 70.2187 36.5102L66.3894 40.3119C66.3483 40.3525 66.1299 40.5553 66.1299 40.5959L66.1234 40.598ZM96.5744 40.598V51.6105C96.5744 51.8005 96.7257 51.9499 96.916 51.9499H100.596C100.789 51.9499 100.938 51.8005 100.938 51.6105V40.6385C100.938 40.4486 101.089 40.2991 101.279 40.2991H103.824C104.441 40.2991 104.988 40.3674 105.357 40.6108C105.699 40.8541 105.946 41.3003 105.946 41.8681C105.946 42.3676 105.85 42.7476 105.576 43.072C104.988 43.7893 104.222 43.7209 103.331 43.7209H102.674C102.538 43.7209 102.415 43.7893 102.358 43.9237C102.304 44.0454 102.33 44.1948 102.441 44.2888C102.975 44.8288 105.956 47.7533 106.067 47.9005C106.136 47.9817 106.244 48.0756 106.326 48.1567C106.64 48.4534 108.679 50.4834 109.706 51.4995C109.801 51.5935 109.939 51.6212 110.075 51.5678C110.199 51.5145 110.281 51.3928 110.281 51.2562V47.1556C110.281 46.9805 110.309 47.0467 110.075 46.8183C109.98 46.7244 109.898 46.6433 109.801 46.5472C109.747 46.4938 109.719 46.4533 109.678 46.3978C109.624 46.3572 109.582 46.3167 109.541 46.2761C109.541 46.2676 109.537 46.2633 109.528 46.2633L108.707 45.4244C108.638 45.3561 108.612 45.275 108.612 45.181C108.625 45.0871 108.653 45.006 108.735 44.9377C108.899 44.7883 109.063 44.6132 109.2 44.4766C109.924 43.706 110.404 42.4871 110.404 41.4198C110.404 40.8776 110.391 40.3653 110.281 39.8231C110.117 39.0931 109.87 38.4975 109.405 37.9276C109.187 37.6437 108.871 37.3854 108.583 37.1826C108.46 37.1015 108.324 37.0204 108.188 36.9392C108.052 36.8709 107.941 36.8176 107.79 36.7493C107.781 36.7407 107.772 36.7364 107.762 36.7364L107.323 36.5742L107.31 36.5614C106.668 36.3714 105.956 36.2498 105.122 36.2498H100.949C100.907 36.2498 100.838 36.3437 100.812 36.3714L99.5669 37.5903C99.4718 37.6842 99.4026 37.7803 99.3074 37.8742L96.6954 40.4443C96.6673 40.4849 96.5722 40.5532 96.5722 40.5937L96.5744 40.598ZM82.95 40.6257V51.6383C82.95 51.8283 83.1014 51.9755 83.2917 51.9755H92.6477C92.8402 51.9755 92.9893 51.8261 92.9893 51.6383V48.067C92.9893 48.0265 92.9764 48.0265 92.9483 48.0265H87.6551C87.4626 48.0265 87.3134 47.8643 87.3134 47.6743V46.4426C87.3134 46.2526 87.4648 46.1053 87.6551 46.1053H92.6477C92.8402 46.1053 92.9893 45.9559 92.9893 45.7681V42.5875C92.9893 42.3975 92.838 42.2502 92.6477 42.2502H87.6551C87.4626 42.2502 87.3134 42.1008 87.3134 41.9129V40.6684C87.3134 40.4784 87.4648 40.3312 87.6551 40.3312H92.9223C92.9634 40.3312 93.3742 39.8978 93.4413 39.8317C93.6186 39.6694 93.7829 39.5072 93.9602 39.33L96.4771 36.841C96.5722 36.7471 96.6003 36.5977 96.5462 36.476C96.4922 36.3415 96.3689 36.2604 96.2327 36.2604H87.3545C87.2853 36.2604 87.2853 36.2754 87.2594 36.3138C87.1643 36.4077 87.067 36.4888 86.9718 36.5977C86.8486 36.7066 86.4659 37.0716 86.3967 37.1655C86.3275 37.2594 86.1912 37.3683 86.1091 37.4644C86.0139 37.5583 85.9166 37.6394 85.8215 37.7483L83.2225 40.3183C83.1403 40.3995 82.9479 40.5489 82.9479 40.63L82.95 40.6257ZM0.40625 40.598V51.6383C0.40625 51.8283 0.557607 51.9755 0.747885 51.9755H10.091C10.2834 51.9755 10.4326 51.8261 10.4326 51.6383V48.3638C10.4326 48.1738 10.2812 48.0265 10.091 48.0265H5.09833C4.90805 48.0265 4.75669 47.8643 4.75669 47.6743V37.0801C4.75669 36.9307 4.67453 36.8218 4.55128 36.7557C4.41506 36.7023 4.27667 36.7428 4.16856 36.8368C3.36204 37.6351 1.98037 39.0141 1.76198 39.2318C1.66684 39.3129 1.55657 39.4218 1.48737 39.5029C1.35115 39.6652 0.40625 40.5446 0.40625 40.598ZM16.2339 44.0753C16.2339 43.1681 16.4112 42.4914 16.835 41.8019C16.8631 41.7486 16.9042 41.693 16.9453 41.6525C16.9734 41.5991 17.0145 41.5714 17.0404 41.518C17.1356 41.3963 17.341 41.1935 17.4642 41.0975C17.7929 40.8413 17.9983 40.6791 18.4351 40.4891C19.2978 40.1092 20.2687 40.028 21.2114 40.2308C21.8687 40.3653 22.606 40.7581 23.0709 41.2042C23.1661 41.3131 23.112 41.232 23.2482 41.3814C23.3585 41.5031 23.3715 41.5031 23.5228 41.7059C23.6461 41.8809 23.7693 42.0858 23.8645 42.3014C24.2342 43.1126 24.2753 44.2098 24.0958 45.1149C24.0007 45.5738 23.7823 46.0882 23.5077 46.4554C23.4666 46.496 23.4385 46.5365 23.3974 46.5771C23.3563 46.6304 23.3282 46.6582 23.2871 46.7116C23.0688 46.9827 22.4936 47.3882 22.1931 47.5377C21.153 48.0927 19.6481 48.161 18.567 47.6721C17.8275 47.3605 17.075 46.7927 16.7074 46.0754C16.3788 45.4393 16.2296 44.8181 16.2296 44.0732L16.2339 44.0753Z" fill="black"/>
</g>
<defs>
<clipPath id="clip0_2691_26566">
<rect width="110" height="88" fill="white" transform="translate(0.40625)"/>
</clipPath>
</defs>
</svg>
