<svg width="156" height="82" viewBox="0 0 156 82" fill="none" xmlns="http://www.w3.org/2000/svg">
<g clip-path="url(#clip0_2691_26572)">
<path d="M33.1971 35.9379H9.92425V25.0443L33.1971 24.9368C33.1971 24.9368 34.7694 25.1493 34.7694 30.17C34.7694 35.1906 33.1971 35.9379 33.1971 35.9379ZM35.1095 18.9541L0.816406 18.9611V55.7239H9.99728V42.404H35.3788C35.3788 42.404 42.3528 42.7053 42.3528 37.0775V24.29C42.3528 18.4193 35.1118 18.9541 35.1118 18.9541H35.1095Z" fill="black"/>
<path d="M55.8652 19.0703V56.069L63.9188 55.9966V30.062L80.4274 51.6578L96.9635 30.062V56.1881H105.026V19.1661H98.6979L80.4982 41.1962L63.4281 19.0703H55.8652Z" fill="black"/>
<path d="M132.512 19.2578H123.756V56.093H132.512V19.2578Z" fill="black"/>
<path d="M14.0398 74.0381C14.0398 74.6593 13.8481 75.208 13.4693 75.6821C13.0882 76.1585 12.5519 76.5554 11.8559 76.8777C11.1621 77.1953 10.3405 77.4335 9.39348 77.5946C8.44641 77.7534 7.41946 77.8328 6.31036 77.8328C5.64399 77.8328 5.00729 77.8024 4.40025 77.7417C3.79321 77.681 3.24779 77.6016 2.76627 77.5082C2.28703 77.4148 1.88538 77.3191 1.56588 77.2186C1.24411 77.1206 1.01133 77.0295 0.86528 76.9454C0.716944 76.859 0.605121 76.7236 0.52753 76.5391C0.445375 76.3546 0.404297 76.0814 0.404297 75.7194C0.404297 75.4813 0.417989 75.2921 0.445375 75.1473C0.470478 75.0025 0.511555 74.8905 0.564044 74.8017C0.616532 74.7153 0.684995 74.6569 0.764868 74.6289C0.842459 74.6009 0.945154 74.5869 1.06382 74.5869C1.20988 74.5869 1.42668 74.6383 1.71422 74.7387C1.99948 74.8414 2.35777 74.9558 2.78452 75.0773C3.21128 75.1987 3.70649 75.3131 4.27245 75.4229C4.84069 75.528 5.48424 75.5817 6.2031 75.5817C6.65724 75.5817 7.05889 75.5536 7.4149 75.4953C7.76862 75.4392 8.07442 75.3575 8.33458 75.2501C8.59474 75.145 8.791 75.0119 8.92336 74.8484C9.05801 74.685 9.12419 74.4981 9.12419 74.2833C9.12419 74.0405 9.00095 73.8256 8.75449 73.6505C8.50574 73.4753 8.1794 73.3212 7.77319 73.1904C7.36926 73.0573 6.90827 72.9336 6.3948 72.8191C5.88133 72.7047 5.35416 72.5786 4.81559 72.4362C4.27245 72.2961 3.74757 72.1396 3.2341 71.9598C2.72063 71.78 2.25964 71.5581 1.85343 71.2966C1.44722 71.0327 1.11859 70.7175 0.872127 70.3485C0.62566 69.9796 0.502427 69.5382 0.502427 69.0221C0.502427 68.5061 0.671302 68.018 1.00221 67.579C1.33539 67.14 1.81463 66.7663 2.44449 66.4558C3.06979 66.1429 3.83429 65.9023 4.73343 65.7295C5.63714 65.5591 6.64811 65.4727 7.76634 65.4727C8.32545 65.4727 8.87088 65.4983 9.39804 65.5474C9.9252 65.5941 10.4022 65.6525 10.8289 65.7272C11.2557 65.8019 11.614 65.879 11.9106 65.963C12.205 66.0494 12.415 66.1218 12.5405 66.1826C12.6683 66.2456 12.7573 66.304 12.8098 66.3647C12.8668 66.4254 12.9056 66.5001 12.9307 66.5842C12.9581 66.6706 12.9832 66.7757 13.0015 66.9018C13.022 67.0302 13.0311 67.1867 13.0311 67.3735C13.0311 67.5953 13.022 67.7752 13.0015 67.9129C12.9832 68.053 12.949 68.1605 12.9033 68.2422C12.8554 68.3239 12.7915 68.38 12.7116 68.408C12.6341 68.4383 12.5382 68.4524 12.4309 68.4524C12.3123 68.4524 12.1251 68.408 11.8718 68.3263C11.6185 68.2399 11.3013 68.1488 10.9225 68.053C10.5414 67.955 10.1032 67.8639 9.60115 67.7822C9.10137 67.6958 8.53084 67.6537 7.89186 67.6537C7.43772 67.6537 7.04292 67.6817 6.70973 67.7378C6.37654 67.7985 6.10497 67.8802 5.89046 67.9853C5.67822 68.0951 5.51619 68.2165 5.41122 68.3636C5.30396 68.5061 5.25147 68.6602 5.25147 68.8283C5.25147 69.0829 5.37699 69.2977 5.6303 69.4658C5.88361 69.6386 6.21908 69.7904 6.63214 69.9212C7.0452 70.052 7.51531 70.1757 8.04476 70.2901C8.57192 70.4046 9.10593 70.5307 9.64679 70.6638C10.1899 70.8015 10.7239 70.958 11.2488 71.1378C11.776 71.3176 12.2461 71.5395 12.6614 71.801C13.0745 72.0649 13.41 72.3755 13.6633 72.7421C13.9143 73.1064 14.0444 73.5384 14.0444 74.0404" fill="black"/>
<path d="M27.5432 77.5416L25.3615 81.425C25.2428 81.6305 24.9165 81.7776 24.3825 81.8687C23.8485 81.9574 23.0703 82.0042 22.0456 82.0042C21.5116 82.0042 21.0872 81.9878 20.7677 81.9621C20.4482 81.9341 20.2085 81.8851 20.0488 81.822C19.8913 81.7543 19.8023 81.6726 19.7909 81.5745C19.7749 81.4741 19.816 81.3573 19.9096 81.2195L22.3012 77.5463C22.1278 77.4973 21.9726 77.4225 21.8311 77.3198C21.6896 77.217 21.5869 77.1096 21.5207 76.9952L15.3751 66.9142C15.2016 66.627 15.1172 66.4098 15.1172 66.2557C15.1172 66.1015 15.1971 65.9871 15.3568 65.9007C15.5166 65.8143 15.7858 65.7559 16.1647 65.7209C16.5458 65.6906 17.0478 65.6742 17.6731 65.6742C18.2459 65.6742 18.7001 65.6812 19.0333 65.6882C19.3665 65.7022 19.6243 65.7326 19.8115 65.7816C19.9986 65.8307 20.1378 65.9077 20.2336 66.0105C20.3249 66.1132 20.4185 66.258 20.5121 66.4472L24.7271 73.7843H24.7864L28.6181 66.2977C28.6979 66.0852 28.8006 65.9451 28.9284 65.875C29.0562 65.8073 29.2662 65.7536 29.5583 65.7186C29.8504 65.6882 30.3662 65.6719 31.0987 65.6719C31.6738 65.6719 32.1508 65.6859 32.5319 65.7186C32.9107 65.7536 33.1914 65.8167 33.3717 65.9054C33.552 65.9965 33.6432 66.1156 33.6432 66.2697C33.6432 66.4238 33.5908 66.5989 33.4835 66.8044L27.5478 77.5463L27.5432 77.5416Z" fill="black"/>
<path d="M48.8969 74.0381C48.8969 74.6593 48.7052 75.208 48.3264 75.6821C47.9476 76.1585 47.409 76.5554 46.7152 76.8777C46.0215 77.1953 45.1976 77.4335 44.2528 77.5946C43.3035 77.7534 42.2788 77.8328 41.1697 77.8328C40.5034 77.8328 39.8644 77.8024 39.2573 77.7417C38.6503 77.681 38.1072 77.6016 37.6256 77.5082C37.1464 77.4148 36.7448 77.3191 36.4253 77.2186C36.1035 77.1206 35.873 77.0295 35.7247 76.9454C35.5786 76.859 35.4645 76.7236 35.3846 76.5391C35.3047 76.3546 35.2637 76.0814 35.2637 75.7194C35.2637 75.4813 35.2774 75.2921 35.3047 75.1473C35.3321 75.0025 35.3709 74.8905 35.4234 74.8017C35.4759 74.7153 35.5444 74.6569 35.6242 74.6289C35.7041 74.6009 35.8022 74.5869 35.9255 74.5869C36.0715 74.5869 36.2883 74.6383 36.5759 74.7387C36.8634 74.8414 37.2194 74.9558 37.6462 75.0773C38.0729 75.1987 38.5681 75.3131 39.1364 75.4229C39.7001 75.528 40.3459 75.5817 41.0648 75.5817C41.5189 75.5817 41.9205 75.5536 42.2743 75.4953C42.628 75.4392 42.9338 75.3575 43.194 75.2501C43.4541 75.145 43.6481 75.0119 43.7827 74.8484C43.9151 74.685 43.9836 74.4981 43.9836 74.2833C43.9836 74.0405 43.8626 73.8256 43.6139 73.6505C43.3674 73.4753 43.0388 73.3212 42.6348 73.1904C42.2263 73.0573 41.7676 72.9336 41.2565 72.8191C40.7407 72.7047 40.2135 72.5786 39.675 72.4362C39.1341 72.2961 38.6092 72.1396 38.0935 71.9598C37.58 71.78 37.1213 71.5581 36.7128 71.2966C36.3043 71.0327 35.978 70.7175 35.7338 70.3485C35.4873 69.9796 35.3641 69.5382 35.3641 69.0221C35.3641 68.5061 35.5284 68.018 35.8616 67.579C36.1948 67.14 36.674 66.7663 37.3016 66.4558C37.9292 66.1429 38.6937 65.9023 39.5928 65.7295C40.4942 65.5591 41.5052 65.4727 42.6234 65.4727C43.1825 65.4727 43.728 65.4983 44.2551 65.5474C44.7823 65.5941 45.2593 65.6525 45.686 65.7272C46.1128 65.8019 46.4733 65.879 46.7654 65.963C47.0575 66.0494 47.2698 66.1218 47.3953 66.1826C47.5231 66.2456 47.6121 66.304 47.6646 66.3647C47.7194 66.4254 47.7581 66.5001 47.7855 66.5842C47.8129 66.6706 47.8357 66.7757 47.854 66.9018C47.8745 67.0302 47.8859 67.1867 47.8859 67.3735C47.8859 67.5953 47.8745 67.7752 47.854 67.9129C47.8357 68.053 47.8015 68.1605 47.7559 68.2422C47.7102 68.3239 47.644 68.38 47.5665 68.408C47.4866 68.4383 47.3907 68.4524 47.2835 68.4524C47.1648 68.4524 46.9754 68.408 46.7244 68.3263C46.471 68.2399 46.1561 68.1488 45.7727 68.053C45.3939 67.955 44.9535 67.8639 44.4514 67.7822C43.9539 67.6958 43.3811 67.6537 42.7421 67.6537C42.288 67.6537 41.8954 67.6817 41.56 67.7378C41.2268 67.7985 40.9529 67.8802 40.7407 67.9853C40.5262 68.0951 40.3664 68.2165 40.2615 68.3636C40.1542 68.5061 40.0994 68.6602 40.0994 68.8283C40.0994 69.0829 40.2272 69.2977 40.4805 69.4658C40.7339 69.6386 41.067 69.7904 41.4824 69.9212C41.8954 70.052 42.3678 70.1757 42.8927 70.2901C43.4222 70.4046 43.9562 70.5307 44.4948 70.6638C45.0379 70.8015 45.5719 70.958 46.0991 71.1378C46.6262 71.3176 47.0963 71.5395 47.5094 71.801C47.9225 72.0649 48.2579 72.3755 48.509 72.7421C48.7646 73.1064 48.8924 73.5384 48.8924 74.0404" fill="black"/>
<path d="M62.7854 76.042C62.7854 76.4016 62.7489 76.6772 62.6736 76.871C62.6005 77.0625 62.5047 77.2003 62.3837 77.2726C62.2628 77.352 62.0871 77.4198 61.8543 77.4828C61.6192 77.5459 61.3454 77.5972 61.0327 77.6439C60.7201 77.6883 60.38 77.721 60.0126 77.749C59.6452 77.7747 59.2755 77.784 58.9012 77.784C57.9017 77.784 57.0345 77.707 56.3019 77.5529C55.5671 77.3964 54.9601 77.1559 54.4808 76.8336C53.9993 76.509 53.6456 76.1027 53.4196 75.61C53.1937 75.1173 53.0796 74.5358 53.0796 73.8609V68.2378H50.9367C50.6834 68.2378 50.4894 68.1444 50.3571 67.9529C50.2224 67.7591 50.1562 67.4392 50.1562 66.9908C50.1562 66.755 50.1745 66.5565 50.2087 66.3907C50.243 66.2296 50.2909 66.1011 50.3594 66.0054C50.4278 65.912 50.5077 65.8443 50.6104 65.8046C50.7085 65.7649 50.8272 65.7415 50.9618 65.7415H53.0842V63.2989C53.0842 63.2195 53.1207 63.1448 53.1937 63.0794C53.2667 63.014 53.4014 62.958 53.5931 62.9113C53.7848 62.8669 54.0449 62.8342 54.3713 62.8132C54.6976 62.7945 55.0993 62.7852 55.5808 62.7852C56.0623 62.7852 56.4822 62.7945 56.8086 62.8132C57.1349 62.8365 57.3882 62.8692 57.5753 62.9113C57.7625 62.958 57.8948 63.014 57.977 63.0794C58.0546 63.1448 58.0957 63.2195 58.0957 63.2989V65.7415H61.9844C62.1167 65.7415 62.2354 65.7649 62.3358 65.8046C62.4339 65.8443 62.5184 65.912 62.5845 66.0054C62.653 66.1011 62.7032 66.2296 62.7352 66.3907C62.7694 66.5565 62.7877 66.755 62.7877 66.9908C62.7877 67.4392 62.7215 67.7614 62.5868 67.9529C62.4522 68.1444 62.2605 68.2378 62.0072 68.2378H58.0957V73.3962C58.0957 73.994 58.2508 74.4447 58.5566 74.7436C58.8647 75.0425 59.4124 75.1943 60.202 75.1943C60.4668 75.1943 60.7087 75.1803 60.9232 75.1523C61.1377 75.1243 61.3271 75.0892 61.4937 75.0519C61.6626 75.0145 61.8018 74.9842 61.9159 74.9538C62.03 74.9258 62.1304 74.9118 62.224 74.9118C62.3061 74.9118 62.3814 74.9258 62.4567 74.9538C62.5298 74.9842 62.5868 75.0402 62.6256 75.1266C62.6667 75.2107 62.7032 75.3274 62.7352 75.4769C62.7694 75.6263 62.7877 75.8132 62.7877 76.0443" fill="black"/>
<path d="M77.494 70.4412C77.5328 69.5725 77.2498 68.8929 76.6474 68.3979C76.0426 67.9028 75.1092 67.6553 73.8472 67.6553C73.2083 67.6553 72.6537 67.73 72.1813 67.8748C71.7112 68.0219 71.321 68.2181 71.006 68.4679C70.6957 68.7201 70.456 69.0144 70.2895 69.353C70.1251 69.6939 70.027 70.0559 70.0019 70.4388H77.4917L77.494 70.4412ZM82.3823 71.3239C82.3823 71.7022 82.2454 71.98 81.9715 72.1599C81.6977 72.3397 81.3211 72.4284 80.8441 72.4284H70.0019C70.0019 72.8978 70.0909 73.3228 70.2689 73.7081C70.4515 74.0911 70.7367 74.4133 71.1293 74.6819C71.5218 74.9504 72.0284 75.1559 72.6469 75.296C73.2653 75.4361 74.0093 75.5038 74.8742 75.5038C75.7391 75.5038 76.5241 75.4665 77.1905 75.3894C77.8569 75.31 78.432 75.2236 78.9181 75.1279C79.4041 75.0345 79.8081 74.9481 80.1253 74.8687C80.4448 74.7916 80.7049 74.7542 80.9058 74.7542C81.0244 74.7542 81.1248 74.7659 81.2047 74.7986C81.2846 74.8266 81.3508 74.878 81.4055 74.9504C81.458 75.0228 81.4945 75.1302 81.5151 75.2657C81.5333 75.4034 81.5448 75.5716 81.5448 75.7771C81.5448 75.9569 81.5379 76.111 81.5242 76.2394C81.5128 76.3679 81.49 76.4753 81.4649 76.564C81.4375 76.6574 81.3964 76.7321 81.3462 76.7929C81.2914 76.8559 81.2207 76.9143 81.134 76.9703C81.0473 77.0287 80.8099 77.1058 80.4242 77.2062C80.0363 77.3019 79.5434 77.3977 78.9454 77.4887C78.3453 77.5822 77.6583 77.6615 76.8847 77.7316C76.1111 77.7993 75.285 77.8344 74.4064 77.8344C72.818 77.8344 71.4282 77.7106 70.2347 77.4654C69.0411 77.2202 68.0461 76.8466 67.2429 76.3492C66.4441 75.8471 65.8462 75.2189 65.456 74.4553C65.0635 73.6917 64.8672 72.802 64.8672 71.7769C64.8672 70.7517 65.0726 69.9251 65.4856 69.1428C65.901 68.3605 66.4989 67.6973 67.2839 67.1532C68.0713 66.6091 69.0275 66.1911 70.1525 65.9062C71.2776 65.619 72.5464 65.4766 73.9613 65.4766C75.4538 65.4766 76.7295 65.612 77.7884 65.8805C78.8496 66.1514 79.7191 66.5274 80.3969 67.0038C81.0769 67.4848 81.5767 68.0499 81.8985 68.7038C82.2157 69.36 82.3777 70.0722 82.3777 70.8381V71.3285L82.3823 71.3239Z" fill="black"/>
<path d="M114.936 77.1237C114.936 77.2054 114.895 77.2778 114.815 77.3385C114.738 77.3992 114.603 77.4506 114.416 77.4926C114.231 77.5323 113.978 77.565 113.658 77.586C113.341 77.6047 112.935 77.6164 112.442 77.6164C111.949 77.6164 111.524 77.6047 111.205 77.586C110.885 77.565 110.63 77.5346 110.436 77.4926C110.242 77.4529 110.11 77.3992 110.036 77.3385C109.963 77.2778 109.927 77.2054 109.927 77.1237V70.6295C109.927 70.2605 109.868 69.9266 109.756 69.623C109.642 69.3195 109.468 69.0579 109.235 68.8431C109 68.6259 108.706 68.4601 108.352 68.3387C107.996 68.2219 107.574 68.1612 107.081 68.1612C106.476 68.1612 105.867 68.306 105.251 68.5909C104.637 68.8781 103.968 69.2938 103.247 69.8425V77.1213C103.247 77.203 103.206 77.2754 103.126 77.3362C103.046 77.3969 102.912 77.4482 102.716 77.4903C102.524 77.53 102.268 77.5627 101.949 77.5837C101.629 77.6024 101.23 77.614 100.753 77.614C100.276 77.614 99.8538 77.6024 99.5343 77.5837C99.2171 77.5627 98.9592 77.5323 98.7652 77.4903C98.5735 77.4506 98.4366 77.3969 98.3567 77.3362C98.2746 77.2754 98.2381 77.203 98.2381 77.1213V70.6272C98.2381 70.2582 98.181 69.9243 98.0669 69.6207C97.9528 69.3171 97.7839 69.0556 97.558 68.8408C97.3298 68.6236 97.0377 68.4578 96.6748 68.3364C96.3142 68.2196 95.8921 68.1589 95.4128 68.1589C94.7989 68.1589 94.1828 68.3037 93.5689 68.5886C92.9527 68.8758 92.2932 69.2914 91.5857 69.8402V77.119C91.5857 77.2007 91.5447 77.2731 91.4625 77.3338C91.3849 77.3945 91.2457 77.4459 91.054 77.4879C90.8623 77.5276 90.6044 77.5603 90.285 77.5813C89.9655 77.6 89.5592 77.6117 89.0663 77.6117C88.5734 77.6117 88.1694 77.6 87.8477 77.5813C87.5282 77.5603 87.2726 77.53 87.0763 77.4879C86.8846 77.4482 86.7477 77.3945 86.6678 77.3338C86.5857 77.2731 86.5469 77.2007 86.5469 77.119V66.153C86.5469 66.0712 86.5811 66.0012 86.6473 65.9381C86.7158 65.8751 86.8344 65.8237 87.0079 65.784C87.1813 65.7443 87.4049 65.7139 87.6788 65.6906C87.9527 65.6719 88.2927 65.6626 88.7057 65.6626C89.1188 65.6626 89.4862 65.6719 89.7646 65.6906C90.043 65.7116 90.2598 65.7443 90.4127 65.784C90.5656 65.826 90.6775 65.8774 90.7414 65.9381C90.8075 66.0012 90.8418 66.0712 90.8418 66.153V67.4186C91.8299 66.7694 92.8135 66.2814 93.7948 65.9568C94.7761 65.6299 95.7985 65.4688 96.8642 65.4688C97.5991 65.4688 98.2586 65.5155 98.8474 65.6089C99.4339 65.7023 99.9565 65.8377 100.417 66.0128C100.881 66.188 101.276 66.3958 101.609 66.6387C101.942 66.8839 102.22 67.1571 102.449 67.456C102.983 67.1057 103.507 66.8068 104.021 66.5546C104.537 66.3001 105.041 66.0969 105.543 65.9358C106.043 65.777 106.545 65.6602 107.045 65.5832C107.544 65.5084 108.056 65.4688 108.576 65.4688C109.763 65.4688 110.764 65.5902 111.577 65.8377C112.389 66.0829 113.049 66.4168 113.546 66.8372C114.048 67.2575 114.407 67.7526 114.619 68.3177C114.833 68.8851 114.938 69.4806 114.938 70.1111V77.119L114.936 77.1237Z" fill="black"/>
<path d="M132.412 74.0381C132.412 74.6593 132.223 75.208 131.842 75.6821C131.463 76.1585 130.927 76.5554 130.231 76.8777C129.537 77.1953 128.715 77.4335 127.77 77.5946C126.821 77.7534 125.794 77.8328 124.687 77.8328C124.021 77.8328 123.382 77.8024 122.775 77.7417C122.168 77.681 121.625 77.6016 121.143 77.5082C120.662 77.4148 120.262 77.3191 119.941 77.2186C119.621 77.1206 119.388 77.0295 119.242 76.9454C119.094 76.859 118.98 76.7236 118.902 76.5391C118.822 76.3546 118.781 76.0814 118.781 75.7194C118.781 75.4813 118.795 75.2921 118.822 75.1473C118.847 75.0025 118.888 74.8905 118.941 74.8017C118.993 74.7153 119.06 74.6569 119.14 74.6289C119.219 74.6009 119.32 74.5869 119.441 74.5869C119.587 74.5869 119.804 74.6383 120.089 74.7387C120.376 74.8414 120.73 74.9558 121.159 75.0773C121.584 75.1987 122.081 75.3131 122.649 75.4229C123.213 75.528 123.859 75.5817 124.578 75.5817C125.032 75.5817 125.436 75.5536 125.787 75.4953C126.141 75.4392 126.447 75.3575 126.707 75.2501C126.967 75.145 127.161 75.0119 127.296 74.8484C127.43 74.685 127.497 74.4981 127.497 74.2833C127.497 74.0405 127.371 73.8256 127.127 73.6505C126.878 73.4753 126.552 73.3212 126.143 73.1904C125.737 73.0573 125.278 72.9336 124.763 72.8191C124.251 72.7047 123.724 72.5786 123.181 72.4362C122.643 72.2961 122.118 72.1396 121.604 71.9598C121.088 71.78 120.63 71.5581 120.224 71.2966C119.815 71.0327 119.489 70.7175 119.242 70.3485C118.996 69.9796 118.873 69.5382 118.873 69.0221C118.873 68.5061 119.039 68.018 119.372 67.579C119.705 67.14 120.185 66.7663 120.812 66.4558C121.44 66.1429 122.204 65.9023 123.104 65.7295C124.003 65.5591 125.016 65.4727 126.134 65.4727C126.693 65.4727 127.239 65.4983 127.764 65.5474C128.291 65.5941 128.768 65.6525 129.194 65.7272C129.621 65.8019 129.984 65.879 130.276 65.963C130.571 66.0494 130.781 66.1218 130.906 66.1826C131.034 66.2456 131.123 66.304 131.175 66.3647C131.228 66.4254 131.269 66.5001 131.299 66.5842C131.324 66.6706 131.346 66.7757 131.367 66.9018C131.385 67.0302 131.397 67.1867 131.397 67.3735C131.397 67.5953 131.385 67.7752 131.367 67.9129C131.346 68.053 131.315 68.1605 131.267 68.2422C131.221 68.3239 131.157 68.38 131.075 68.408C130.997 68.4383 130.901 68.4524 130.794 68.4524C130.676 68.4524 130.486 68.408 130.235 68.3263C129.984 68.2399 129.665 68.1488 129.283 68.053C128.902 67.955 128.464 67.8639 127.964 67.7822C127.465 67.6958 126.892 67.6537 126.253 67.6537C125.796 67.6537 125.404 67.6817 125.071 67.7378C124.735 67.7985 124.464 67.8802 124.249 67.9853C124.035 68.0951 123.877 68.2165 123.77 68.3636C123.663 68.5061 123.61 68.6602 123.61 68.8283C123.61 69.0829 123.736 69.2977 123.991 69.4658C124.245 69.6386 124.578 69.7904 124.993 69.9212C125.406 70.052 125.876 70.1757 126.403 70.2901C126.933 70.4046 127.465 70.5307 128.005 70.6638C128.546 70.8015 129.08 70.958 129.608 71.1378C130.137 71.3176 130.607 71.5395 131.02 71.801C131.433 72.0649 131.766 72.3755 132.02 72.7421C132.273 73.1064 132.401 73.5384 132.401 74.0404" fill="black"/>
<path d="M136.493 6.59223C136.493 10.2328 133.501 13.1845 129.813 13.1845C126.125 13.1845 123.131 10.2328 123.131 6.59223C123.131 2.95167 126.123 0 129.813 0C133.503 0 136.493 2.95167 136.493 6.59223Z" fill="black"/>
<path d="M155.407 6.59223C155.407 10.2328 152.415 13.1845 148.725 13.1845C145.034 13.1845 142.045 10.2328 142.045 6.59223C142.045 2.95167 145.037 0 148.725 0C152.412 0 155.407 2.95167 155.407 6.59223Z" fill="black"/>
<path d="M155.407 27.7227C155.407 31.3633 152.415 34.3149 148.725 34.3149C145.034 34.3149 142.045 31.3633 142.045 27.7227C142.045 24.0822 145.037 21.1328 148.725 21.1328C152.412 21.1328 155.407 24.0845 155.407 27.7227Z" fill="black"/>
</g>
<defs>
<clipPath id="clip0_2691_26572">
<rect width="155" height="82" fill="white" transform="translate(0.40625)"/>
</clipPath>
</defs>
</svg>
