<svg width="370" height="100" viewBox="0 0 370 100" fill="none" xmlns="http://www.w3.org/2000/svg">
<path d="M130.525 75.9671C128.211 75.9671 127.621 74.3384 127.621 72.5918V45.8236C127.621 44.0729 128.211 42.4443 130.525 42.4443C132.839 42.4443 133.426 44.0729 133.426 45.8236V72.5918C133.426 74.3404 132.835 75.9671 130.525 75.9671ZM140.619 73.05H144.383V49.4409C144.383 39.6232 137.785 36.9102 130.525 36.9102C123.266 36.9102 116.67 39.6232 116.67 49.4409V68.9664C116.67 78.7881 123.268 81.4992 130.525 81.4992C134.375 81.4992 138.028 80.7249 140.619 78.544V73.0519V73.05Z" fill="black"/>
<path d="M297.995 37.6719V42.8459H292.396V80.5783H281.437V42.8459H275.83V37.6719H297.995Z" fill="black"/>
<path d="M273.966 37.7539V42.9259H262.224V54.3242H273.571V59.5002H262.224V75.4763H273.966V80.6603H251.277V37.7539H273.966Z" fill="black"/>
<path d="M186.034 37.7539V63.5478H186.101L193.619 37.7539H204.444V80.6603H194.543V54.6163H194.477L186.831 80.6603H176.135V37.7539H186.034Z" fill="black"/>
<path d="M11.3571 59.6963H13.0703C16.9054 59.6963 17.1622 56.0149 17.1622 50.9529C17.1622 45.891 16.9074 42.5617 13.0703 42.5617H11.3571V59.6983V59.6963ZM11.3571 80.6623H0.40625V37.7539H13.7945C22.5062 37.7539 28.1192 39.5626 28.1192 46.9714V55.2286C28.1192 61.675 21.8428 64.5081 15.3803 64.5081H11.3551V80.6623H11.3571Z" fill="black"/>
<path d="M72.8088 53.0603V45.8256C72.8088 44.0749 72.2161 42.4463 69.8395 42.4463C67.5943 42.4463 67.0037 44.0749 67.0037 45.8256V72.5918C67.0037 74.3424 67.5943 75.9691 69.8395 75.9691C72.2161 75.9691 72.8088 74.3424 72.8088 72.5918V63.9685H83.7637V69.6367C83.7637 77.6477 79.0751 81.5012 69.8395 81.5012C62.5841 81.5012 56.0508 78.7901 56.0508 68.9664V49.4429C56.0508 39.6252 62.5821 36.9102 69.8395 36.9102C77.8251 36.9102 83.7637 39.083 83.7637 48.3625V53.0623H72.8088V53.0603Z" fill="black"/>
<path d="M114.076 37.7539V80.6603H103.125V42.9259H97.3183V80.6603H86.3613V37.7539H114.076Z" fill="black"/>
<path d="M232.522 37.7539L227.851 68.5597L223.181 37.7539H207.414V80.6603H217.309V42.6858H217.441L223.768 80.6603H231.937L238.264 42.6858H238.398V80.6603H248.297V37.7539H232.522Z" fill="black"/>
<path d="M173.172 37.7539V80.6623H162.221V42.9279H157.34V70.2323C157.34 76.8628 154.636 80.6643 149.227 80.6643H143.027V75.4803H145.131C147.506 75.4803 148.104 73.5496 148.104 71.0826V37.7579H173.172V37.7539Z" fill="black"/>
<path d="M47.0236 37.9805L42.1833 57.1998L36.4955 37.9805H27.4277L37.4482 70.919L34.3979 81.4971H43.8318L57.1816 37.9805H47.0236Z" fill="black"/>
<path d="M333.278 44.8826C336.245 42.0255 339.285 39.6126 342.271 37.6719H307.031V80.4762H318.184C314.036 72.7773 320.616 57.0953 333.278 44.8846" fill="black"/>
<path d="M336.506 51.3534C331.657 56.0172 323.771 66.7713 325.512 74.2041C327.007 80.5465 338.741 79.222 349.04 69.3202C349.435 68.9401 349.859 68.4919 350.3 68.0157V39.875C345.759 42.8641 340.037 47.9581 336.504 51.3534" fill="black"/>
<path d="M339.256 80.4742H350.3V71.3047C347.822 74.4799 343.277 77.7852 339.256 80.4742Z" fill="black"/>
<path d="M369.405 18.5C360.457 26.8292 344.178 31.1048 326.502 29.7703L326.601 29.7803C344.648 32.3873 355.831 41.7429 358.117 60.9362C357.093 43.5836 361.319 27.3054 369.405 18.5Z" fill="black"/>
</svg>
