<svg width="217" height="100" viewBox="0 0 217 100" fill="none" xmlns="http://www.w3.org/2000/svg">
<g clip-path="url(#clip0_3633_89629)">
<path d="M145.451 19.9414H144.116C143.222 19.9414 143.26 20.5289 143.26 20.5289V32.3215C143.298 32.4852 143.459 32.7693 144.097 32.7886H145.432C146.326 32.7886 146.288 32.2011 146.288 32.2011V20.4277C146.25 20.264 146.09 19.9799 145.451 19.9607V19.9414Z" fill="black"/>
<path d="M26.1894 31.3937V36.9843H34.4508V32.6265C34.4508 31.5334 35.3262 30.6811 36.4003 30.6811H38.2314V22.134C38.2314 20.6797 37.0816 19.5048 35.6763 19.5H23.6295C22.2006 19.5048 21.0508 20.6797 21.0508 22.134V27.8882H22.7447C24.6374 27.8882 26.1894 29.4484 26.1894 31.3937Z" fill="black"/>
<path d="M35.6611 36.9829H34.4688V38.4804C34.4688 39.5735 35.3441 40.4643 36.4182 40.4643H42.1908C43.246 40.4643 44.1024 39.5735 44.1024 38.4804V32.6251C44.1024 31.532 43.227 30.6797 42.1908 30.6797H38.2493V34.4067C38.2493 35.8465 37.0948 37.0214 35.6801 37.0214L35.6611 36.9829Z" fill="black"/>
<path d="M34.4688 32.6245V36.9824H35.6611C37.0948 36.9824 38.2493 35.8074 38.2493 34.3677V30.6406H36.4182C35.3441 30.6406 34.4877 31.5315 34.4877 32.586L34.4688 32.6245Z" fill="black"/>
<path d="M22.7444 27.8867H3.85089C1.96296 27.8867 0.410982 29.4372 0.40625 31.3778V50.6437C0.410982 52.565 1.94404 54.1348 3.85089 54.1348H13.4845V49.8829C13.4845 47.4705 15.3961 45.5299 17.7667 45.5299H26.189V31.4115C26.189 29.4854 24.637 27.906 22.7444 27.906V27.8867Z" fill="black"/>
<path d="M43.5883 45.5117H26.19V50.6352C26.19 52.5613 24.638 54.1407 22.7453 54.1407H13.4902V76.1225C13.4902 78.5349 15.4018 80.4755 17.7724 80.4755H43.5552C45.9446 80.4755 47.8373 78.5301 47.8373 76.1225V49.8888C47.8373 47.4764 45.9257 45.5358 43.5552 45.5358L43.593 45.5165L43.5883 45.5117Z" fill="black"/>
<path d="M26.1889 50.6352V45.5117H17.7665C15.396 45.5117 13.4844 47.4571 13.4844 49.8647V54.1166H22.7395C24.6322 54.1166 26.1841 52.5565 26.1841 50.6111V50.6304L26.1889 50.6352Z" fill="black"/>
<path d="M22.7447 27.8867H21.0508V34.3681C21.0508 35.8079 22.2053 36.9828 23.639 36.9828H26.1894V31.3922C26.1894 29.4661 24.6374 27.8867 22.7447 27.8867Z" fill="black"/>
<path d="M85.7313 27.5638V36.111H96.5195C96.6615 36.111 96.917 36.2506 96.9974 36.737V38.1141C96.9359 38.6005 96.6615 38.7016 96.5195 38.7449H85.7313V47.032H96.5195C96.6615 47.0513 96.9359 47.1717 96.9974 47.658V49.0352C96.898 49.7238 96.4391 49.6612 96.4391 49.6612H83.2614C83.1005 49.6612 82.7457 49.5408 82.7457 48.8089V25.7003C82.7457 25.031 83.0438 24.8721 83.2046 24.848H96.5432C96.6851 24.8673 96.9217 25.0117 97.0021 25.474V26.8512C96.9217 27.4194 96.5858 27.4772 96.4627 27.4772H85.7313V27.559V27.5638ZM76.0551 49.7671H77.3894C78.2837 49.7479 78.2269 49.1797 78.2269 49.1797V25.3344C78.1891 24.9925 77.9667 24.9106 77.891 24.8914H77.2333C77.2333 24.8914 76.973 24.954 76.7743 25.214L67.1975 38.6872L57.6206 25.214C57.4408 24.9492 57.261 24.9106 57.1805 24.8914H56.5039C56.5039 24.8914 56.2058 24.9732 56.168 25.3344V49.1797C56.2058 49.3434 56.3478 49.666 57.0055 49.666H58.3398C59.0969 49.666 59.1773 49.2423 59.1773 49.1171V31.7965L67.0981 42.9005H67.3583L75.2602 31.7965V49.1989C75.298 49.3626 75.4589 49.666 76.0977 49.666L76.0598 49.7671H76.0551ZM123.036 35.9906H112.905C112.744 36.0291 112.465 36.1543 112.427 36.761V37.9167C112.465 38.4416 112.706 38.6246 112.867 38.6679H121.11C120.514 43.5891 116.549 47.3402 111.893 47.3402C106.797 47.3402 102.595 42.9246 102.576 37.3341C102.576 31.7628 106.778 27.3279 111.893 27.3279C114.997 27.3279 117.765 28.9892 119.459 31.522C119.459 31.522 119.657 31.8687 120.074 31.8687H122.246C122.506 31.8061 122.482 31.6279 122.482 31.5461C122.463 31.5076 122.444 31.445 122.421 31.4064C120.429 27.4146 116.468 24.6795 111.888 24.6795C105.259 24.6795 99.9831 30.3904 99.9831 37.3437C99.9831 44.297 105.259 49.9838 111.888 49.9838C118.517 49.9838 123.793 44.2921 123.793 37.3437V36.8766C123.755 36.1688 123.277 36.0243 123.017 36.005M146.349 49.6419H144.697C144.338 49.6419 144.158 49.5023 144.082 49.4012L141.475 43.5458H129.012L126.442 49.3578C126.381 49.4782 126.206 49.6419 125.827 49.6419H123.916C123.419 49.5793 123.4 49.276 123.419 49.1363L134.529 25.0503C134.647 24.8866 134.789 24.8288 134.888 24.8047H135.783C135.783 24.8047 136.024 24.8866 136.142 25.0503L146.973 49.0978C146.992 49.1989 147.035 49.6034 146.415 49.6467M140.259 40.8492L135.163 29.4418L130.147 40.8492H140.259ZM191.578 49.0352V45.3274C191.541 44.9422 191.28 44.8218 191.119 44.7785H181.902V39.0676H190.779C190.94 39.0676 191.176 38.9231 191.238 38.562V35.0998C191.176 34.6327 190.821 34.5316 190.698 34.5316H181.897V29.3648H191.077C191.238 29.3455 191.536 29.2203 191.555 28.758V25.4355C191.555 24.8673 191.157 24.7662 190.996 24.7469H177.1C176.92 24.7854 176.622 24.9106 176.622 25.4355V48.8763C176.622 49.6082 177.218 49.5649 177.218 49.5649H191.072C191.233 49.5456 191.489 49.4204 191.55 49.0785M173.106 34.5316H162.337C162.219 34.5316 161.778 34.6134 161.76 35.2009V38.9713C161.76 39.4576 162.077 39.578 162.237 39.5972H168.209C167.215 42.7801 164.405 45.0048 161.263 45.0241C157.302 45.0241 153.914 41.5378 153.896 37.0644C153.896 32.5862 157.279 29.124 161.263 29.1047C162.976 29.1047 164.589 29.7741 165.862 30.8671C165.862 30.8671 166.221 31.209 166.837 31.2524H171.653C172.112 31.2524 172.131 30.9875 172.112 30.8671C170.04 26.8367 165.98 24.0391 161.282 24.0391C154.373 24.0391 148.96 29.9763 148.937 37.0644C148.956 44.1525 154.35 50.0705 161.282 50.0897C168.171 50.0897 173.603 44.1525 173.603 37.0644V35.1576C173.565 34.7145 173.343 34.5701 173.163 34.5508L173.101 34.5316H173.106ZM215.369 49.2374V25.3151C215.331 25.1321 215.208 24.8673 214.792 24.8288H210.95C210.472 24.8288 210.354 25.1514 210.292 25.3344V38.9664L196.755 24.9684C196.575 24.8047 196.438 24.7469 196.357 24.7276H195.184C195.184 24.7276 194.867 24.771 194.867 25.0936V49.0978C194.905 49.2615 195.004 49.5215 195.406 49.5841H199.528C200.124 49.5456 200.105 48.9774 200.105 48.9774V35.3646L213.604 49.3434C213.784 49.5264 213.921 49.589 214.021 49.6082H214.995C214.995 49.6082 215.275 49.5456 215.293 49.2663M68.21 80.1949H70.4576L66.8757 72.476C68.6264 71.85 69.9797 70.4102 69.9797 66.9047C69.9797 62.9128 68.0302 61.1312 64.3443 61.1312H58.1742V80.2141H60.2467V72.8997H64.8647L68.229 80.2141L68.21 80.1949ZM67.8741 66.924C67.8741 69.6976 66.8 71.0555 64.3679 71.0555H60.2656V62.9947H64.3679C66.7763 62.9947 67.8741 64.29 67.8741 66.924ZM91.7405 61.1504H89.6681V74.4021C89.6681 78.577 91.6175 80.4983 95.7577 80.4983C99.8979 80.4983 101.89 78.6155 101.89 74.4021V61.1504H99.7985V74.5417C99.7985 77.4791 98.5447 78.6155 95.7766 78.6155C93.0086 78.6155 91.7547 77.4598 91.7547 74.5417V61.1504H91.7358H91.7405ZM132.016 61.4538C132.016 61.4538 129.149 60.8856 127.001 60.8856C123.296 60.8856 121.266 62.5084 121.266 66.1728C121.266 69.3942 123.116 70.4873 126.603 71.3203C129.154 71.8885 130.408 72.5338 130.408 74.8451C130.408 77.3346 129.315 78.6155 126.883 78.6155C125.113 78.6155 121.668 78.2303 121.668 78.2303L121.531 79.9541C121.531 79.9541 124.796 80.479 126.887 80.479C130.729 80.479 132.499 78.4518 132.499 74.6429C132.499 71.2385 130.829 70.3091 127.465 69.4375C124.659 68.7104 123.405 68.2434 123.405 65.932C123.405 63.6207 124.659 62.7539 127.11 62.7539C128.922 62.7539 131.908 63.1392 131.908 63.1392L132.007 61.4586H132.026L132.016 61.4538ZM161.717 61.4538C161.717 61.4538 158.85 60.8856 156.701 60.8856C152.997 60.8856 150.967 62.5084 150.967 66.1728C150.967 69.3942 152.817 70.4873 156.299 71.3203C158.85 71.8885 160.103 72.5338 160.103 74.8451C160.103 77.3346 159.01 78.6155 156.578 78.6155C154.809 78.6155 151.364 78.2303 151.364 78.2303L151.227 79.9541C151.227 79.9541 154.492 80.479 156.583 80.479C160.425 80.479 162.195 78.4518 162.195 74.6429C162.195 71.2385 160.525 70.3091 157.16 69.4375C154.355 68.7104 153.101 68.2434 153.101 65.932C153.101 63.6207 154.355 62.7539 156.806 62.7539C158.618 62.7539 161.603 63.1392 161.603 63.1392L161.703 61.4586H161.722L161.717 61.4538ZM181.666 80.2141H183.738V61.1312H181.666V80.2141ZM216.405 80.2141H214.333L213.036 75.3507H206.029L204.737 80.2141H202.646L207.505 61.1312H211.584L216.401 80.2141H216.405ZM209.138 63.014H209.933L212.62 73.4872H206.45L209.157 63.014H209.138Z" fill="black"/>
<path d="M209.158 63.0156H209.934L212.621 73.4889H206.451L209.158 63.0156Z" fill="black"/>
<path d="M209.139 63.0156H209.934L212.621 73.4889H206.451L209.158 63.0156H209.139Z" fill="white"/>
</g>
<defs>
<clipPath id="clip0_3633_89629">
<rect width="216" height="61" fill="white" transform="translate(0.40625 19.5)"/>
</clipPath>
</defs>
</svg>
