<svg width="221" height="100" viewBox="0 0 221 100" fill="none" xmlns="http://www.w3.org/2000/svg">
<g clip-path="url(#clip0_3633_89628)">
<path d="M28.1114 74.0029C14.9897 74.0029 4.36103 63.2605 4.36103 49.9984C4.36103 36.7363 14.9897 26.0002 28.1114 26.0002C41.2331 26.0002 51.8587 36.7426 51.8587 49.9984C51.8587 63.2543 41.23 74.0029 28.1114 74.0029ZM28.1114 22C12.8157 22 0.40625 34.539 0.40625 49.9984C0.40625 65.4578 12.8157 78 28.1114 78C43.4072 78 55.8135 65.4578 55.8135 49.9984C55.8135 34.539 43.4165 22 28.1114 22ZM25.349 52.2834V56.2085H12.2025V52.2834H25.349ZM30.8739 43.7853H44.0142V47.7104H30.8739V43.7853ZM30.8739 52.2834H43.0696C44.2341 52.2834 46.1635 52.2834 47.331 51.1628C48.3406 50.1768 48.5078 48.5868 48.5388 47.7104V43.7853C48.4614 42.1983 48.0681 41.0652 47.3279 40.3422C46.1727 39.2122 44.2372 39.2122 43.0696 39.2122H13.1532C11.9919 39.2122 10.0594 39.2122 8.89495 40.3328C7.88844 41.3188 7.71811 42.9182 7.67785 43.7853H25.3521V47.7104H13.1563C11.995 47.7104 10.0625 47.7104 8.89804 48.8309C7.9287 49.7825 7.7305 51.2818 7.68714 52.1738V52.2333C7.68714 52.2333 7.68095 52.274 7.68095 52.2834H7.68714V56.2085C7.76147 57.8017 8.15788 58.9316 8.89804 59.6578C10.0439 60.7878 11.9919 60.7878 13.1563 60.7878H43.0727C44.2372 60.7878 46.1665 60.7878 47.3341 59.6703C48.3437 58.675 48.5109 57.0849 48.5419 56.2116H30.8801V52.2865L30.8739 52.2834Z" fill="black"/>
<path d="M68.1979 51.9544C68.2723 53.7385 68.7244 55.0062 69.5668 55.8263C70.852 57.0908 73.0384 57.0908 74.3453 57.0908H88.1515C89.4553 57.0908 91.6386 57.0908 92.9269 55.8388C94.3268 54.471 94.3268 52.114 94.3268 51.1062V38.7831C94.3268 37.7721 94.3268 35.437 92.9424 34.0849C91.6386 32.8203 89.4553 32.8203 88.1515 32.8203H74.3453C73.0415 32.8203 70.8613 32.8203 69.5606 34.0786C68.4209 35.1898 68.2227 36.9833 68.1855 37.9599H88.071V42.3827H77.9316V47.5316H88.071V51.9544H68.1948H68.1979ZM200.236 32.8203C198.938 32.8203 196.752 32.8203 195.448 34.0786C194.07 35.4433 194.07 37.7971 194.07 38.7987V51.1312C194.07 52.1391 194.07 54.4835 195.445 55.8326C196.749 57.094 198.935 57.094 200.233 57.094H214.036C215.339 57.094 217.523 57.094 218.83 55.8419C219.963 54.7276 220.161 52.9341 220.192 51.9575H200.322V37.963H220.192C220.112 36.1851 219.669 34.9049 218.827 34.088C217.538 32.8234 215.346 32.8234 214.036 32.8234H200.233L200.236 32.8203ZM182.707 57.094H188.95V32.8203H182.707V42.3827H168.467V32.8203H162.227V57.094H168.467V47.5347H182.707V57.094ZM118.272 57.094H124.506V32.8203H118.015L95.0731 57.094H102.75L118.272 40.7832V57.094ZM150.883 40.7425L136.104 57.094H129.623V32.8203H135.866V48.2703L150.62 32.8203H157.126V57.094H150.883V40.7425Z" fill="black"/>
<path d="M163.571 71.3753C163.571 71.4723 163.571 71.5537 163.565 71.6194C163.558 71.6851 163.549 71.7446 163.537 71.7916C163.527 71.8416 163.512 71.8823 163.493 71.9168C163.475 71.9512 163.444 71.9888 163.404 72.0326C163.363 72.0764 163.283 72.1327 163.162 72.2016C163.041 72.2673 162.896 72.3362 162.725 72.3988C162.552 72.4583 162.357 72.5115 162.137 72.5522C161.917 72.5929 161.675 72.6148 161.418 72.6148C160.917 72.6148 160.465 72.5365 160.059 72.38C159.653 72.2235 159.309 71.9888 159.028 71.6758C158.743 71.3628 158.526 70.9746 158.374 70.5082C158.222 70.0419 158.148 69.4972 158.148 68.8775C158.148 68.2577 158.232 67.6849 158.399 67.1935C158.566 66.7021 158.798 66.292 159.096 65.9571C159.393 65.6222 159.752 65.3718 160.17 65.1997C160.588 65.0275 161.047 64.9399 161.552 64.9399C161.756 64.9399 161.951 64.9586 162.14 64.9931C162.329 65.0275 162.505 65.0713 162.666 65.1277C162.828 65.184 162.97 65.2466 163.1 65.3186C163.227 65.3937 163.32 65.4563 163.369 65.5064C163.419 65.5596 163.456 65.6034 163.475 65.6347C163.493 65.6692 163.509 65.713 163.518 65.7662C163.531 65.8225 163.54 65.8851 163.546 65.9571C163.552 66.0291 163.555 66.1168 163.555 66.2263C163.555 66.339 163.552 66.4392 163.543 66.5174C163.537 66.5988 163.521 66.6614 163.506 66.7115C163.487 66.7616 163.462 66.7991 163.438 66.8179C163.41 66.8429 163.379 66.8523 163.348 66.8523C163.292 66.8523 163.221 66.8179 163.134 66.7522C163.047 66.6864 162.936 66.6113 162.797 66.5299C162.657 66.4485 162.493 66.3734 162.301 66.3077C162.112 66.242 161.886 66.2075 161.62 66.2075C161.329 66.2075 161.068 66.267 160.842 66.3891C160.613 66.5111 160.421 66.6802 160.26 66.9055C160.099 67.1309 159.978 67.4001 159.895 67.7194C159.811 68.0355 159.771 68.3954 159.771 68.793C159.771 69.228 159.814 69.6068 159.904 69.926C159.994 70.2453 160.118 70.5082 160.285 70.7148C160.449 70.9214 160.647 71.0748 160.88 71.1749C161.112 71.2782 161.375 71.3283 161.663 71.3283C161.926 71.3283 162.155 71.297 162.347 71.2344C162.539 71.1718 162.704 71.0998 162.84 71.0278C162.979 70.9527 163.091 70.8838 163.181 70.8212C163.27 70.7618 163.339 70.7305 163.388 70.7305C163.425 70.7305 163.456 70.7367 163.478 70.7555C163.503 70.7712 163.521 70.7993 163.537 70.8463C163.549 70.8901 163.561 70.9558 163.571 71.0372C163.577 71.1217 163.583 71.2313 163.583 71.369M157.43 71.9043C157.43 72.0169 157.426 72.1077 157.417 72.186C157.408 72.2611 157.392 72.3205 157.374 72.3675C157.355 72.4145 157.33 72.4489 157.303 72.4708C157.275 72.4927 157.244 72.5021 157.21 72.5021H153.524C153.4 72.5021 153.295 72.4645 153.212 72.3894C153.125 72.3143 153.085 72.1922 153.085 72.0232V65.5408C153.085 65.3718 153.128 65.2497 153.212 65.1746C153.298 65.0995 153.4 65.0619 153.524 65.0619H157.191C157.225 65.0619 157.256 65.0713 157.281 65.0901C157.306 65.1089 157.33 65.1433 157.349 65.1903C157.368 65.2403 157.383 65.2998 157.392 65.3749C157.402 65.4501 157.405 65.544 157.405 65.6598C157.405 65.7662 157.402 65.857 157.392 65.9352C157.383 66.0103 157.368 66.0698 157.349 66.1168C157.33 66.1637 157.306 66.1981 157.281 66.2201C157.253 66.242 157.222 66.2514 157.191 66.2514H154.571V68.0637H156.779C156.813 68.0637 156.844 68.0731 156.872 68.095C156.9 68.1169 156.925 68.1482 156.943 68.192C156.962 68.2358 156.977 68.2953 156.987 68.3704C156.996 68.4455 156.999 68.5363 156.999 68.6396C156.999 68.7523 156.996 68.843 156.987 68.915C156.977 68.987 156.962 69.0465 156.943 69.0903C156.925 69.1341 156.9 69.1654 156.872 69.1842C156.844 69.203 156.813 69.2124 156.779 69.2124H154.571V71.3064H157.21C157.244 71.3064 157.275 71.3158 157.303 71.3377C157.33 71.3596 157.355 71.3941 157.374 71.441C157.392 71.4848 157.408 71.5474 157.417 71.6225C157.426 71.6977 157.43 71.7916 157.43 71.9043ZM151.487 72.2986C151.487 72.3362 151.474 72.3706 151.449 72.3988C151.425 72.427 151.384 72.452 151.332 72.4708C151.276 72.4896 151.205 72.5052 151.112 72.5146C151.019 72.5271 150.901 72.5334 150.759 72.5334C150.616 72.5334 150.502 72.5271 150.406 72.5146C150.31 72.5021 150.232 72.4864 150.17 72.4708C150.108 72.452 150.065 72.427 150.037 72.3988C150.012 72.3706 149.997 72.3362 149.997 72.2986V69.7602C149.796 69.7789 149.601 69.7946 149.405 69.8102C149.21 69.8228 149.015 69.829 148.82 69.829C148.414 69.829 148.046 69.7915 147.714 69.7195C147.383 69.6475 147.095 69.5191 146.857 69.3376C146.615 69.1561 146.429 68.9056 146.299 68.5895C146.169 68.2734 146.104 67.8727 146.104 67.3907V65.2623C146.104 65.2247 146.116 65.1903 146.138 65.1621C146.16 65.1339 146.197 65.1089 146.256 65.0901C146.312 65.0713 146.383 65.0557 146.476 65.0463C146.569 65.0338 146.686 65.0275 146.826 65.0275C146.965 65.0275 147.092 65.0338 147.185 65.0463C147.281 65.0588 147.361 65.0713 147.42 65.0901C147.479 65.1089 147.526 65.1339 147.55 65.1621C147.578 65.1903 147.591 65.2216 147.591 65.2623V67.2373C147.591 67.4658 147.615 67.6661 147.662 67.8352C147.708 68.0011 147.789 68.1419 147.897 68.2515C148.006 68.3641 148.151 68.4487 148.331 68.505C148.51 68.5613 148.736 68.5926 149.006 68.5926C149.176 68.5926 149.343 68.5864 149.505 68.5739C149.669 68.5613 149.833 68.5457 149.994 68.5238V65.2623C149.994 65.2216 150.006 65.1903 150.034 65.1621C150.062 65.1339 150.105 65.1089 150.167 65.0901C150.226 65.0713 150.304 65.0557 150.403 65.0463C150.499 65.0338 150.616 65.0275 150.756 65.0275C150.895 65.0275 151.016 65.0338 151.109 65.0463C151.202 65.0588 151.273 65.0713 151.329 65.0901C151.384 65.1089 151.422 65.1339 151.446 65.1621C151.471 65.1903 151.483 65.2247 151.483 65.2623V72.2986H151.487ZM144.862 72.3049C144.862 72.3425 144.85 72.3769 144.825 72.4051C144.8 72.4332 144.76 72.4583 144.704 72.4771C144.649 72.4958 144.571 72.5115 144.475 72.5209C144.379 72.5303 144.258 72.5334 144.116 72.5334C143.973 72.5334 143.853 72.5303 143.757 72.5209C143.661 72.5115 143.583 72.4958 143.531 72.4771C143.475 72.4583 143.435 72.4332 143.413 72.4051C143.388 72.3769 143.379 72.3425 143.379 72.3049V68.3861C143.379 68.2358 143.379 68.0887 143.385 67.9478C143.388 67.8039 143.394 67.6755 143.404 67.566H143.391C143.36 67.6192 143.326 67.6818 143.283 67.7507C143.239 67.8226 143.196 67.8946 143.15 67.9729C143.1 68.0511 143.05 68.1325 142.998 68.2139C142.942 68.2953 142.893 68.3767 142.84 68.4518L140.288 72.308C140.257 72.3487 140.226 72.3863 140.195 72.4145C140.161 72.4458 140.121 72.4708 140.068 72.4864C140.019 72.5052 139.957 72.5146 139.882 72.5209C139.808 72.5271 139.712 72.5303 139.594 72.5303C139.446 72.5303 139.328 72.5271 139.238 72.5177C139.148 72.5084 139.074 72.4927 139.024 72.4739C138.972 72.4551 138.938 72.4301 138.919 72.3988C138.901 72.3675 138.891 72.3299 138.891 72.2892V65.2529C138.891 65.2153 138.904 65.1809 138.928 65.1527C138.953 65.1245 138.994 65.0995 139.052 65.0807C139.111 65.0619 139.189 65.0463 139.282 65.0369C139.374 65.0275 139.495 65.0244 139.638 65.0244C139.78 65.0244 139.904 65.0275 139.997 65.0369C140.093 65.0463 140.167 65.0619 140.223 65.0807C140.279 65.0995 140.319 65.1245 140.341 65.1527C140.365 65.1809 140.375 65.2153 140.375 65.2529V69.1967C140.375 69.3188 140.375 69.4503 140.369 69.588C140.365 69.7257 140.359 69.8603 140.35 69.9887H140.362C140.427 69.876 140.511 69.7351 140.607 69.5755C140.706 69.4158 140.808 69.2562 140.914 69.106L143.469 65.2497C143.496 65.2122 143.524 65.1777 143.555 65.1496C143.586 65.1214 143.627 65.0964 143.676 65.0776C143.726 65.0588 143.791 65.0463 143.865 65.04C143.939 65.0338 144.038 65.0275 144.156 65.0275C144.299 65.0275 144.416 65.0306 144.506 65.04C144.596 65.0494 144.664 65.0651 144.72 65.0838C144.772 65.1026 144.81 65.1277 144.831 65.1558C144.853 65.184 144.862 65.2216 144.862 65.2623V72.3049ZM137.284 72.2924C137.284 72.3299 137.272 72.3644 137.247 72.3957C137.222 72.4238 137.182 72.452 137.126 72.4708C137.07 72.4896 136.993 72.5052 136.9 72.5146C136.807 72.5271 136.686 72.5334 136.547 72.5334C136.408 72.5334 136.278 72.5271 136.181 72.5146C136.085 72.5021 136.011 72.4864 135.955 72.4708C135.903 72.452 135.863 72.427 135.838 72.3957C135.813 72.3644 135.801 72.3299 135.801 72.2924V69.2875H133.044V72.2924C133.044 72.3299 133.032 72.3644 133.01 72.3957C132.989 72.4238 132.948 72.452 132.893 72.4708C132.837 72.4896 132.759 72.5052 132.666 72.5146C132.574 72.5271 132.453 72.5334 132.307 72.5334C132.162 72.5334 132.044 72.5271 131.948 72.5146C131.852 72.5021 131.775 72.4864 131.719 72.4708C131.663 72.452 131.623 72.427 131.598 72.3957C131.573 72.3644 131.561 72.3299 131.561 72.2924V65.2685C131.561 65.231 131.573 65.1965 131.598 65.1652C131.623 65.137 131.663 65.1089 131.719 65.0901C131.775 65.0713 131.852 65.0557 131.948 65.0463C132.044 65.0338 132.165 65.0275 132.307 65.0275C132.45 65.0275 132.574 65.0338 132.666 65.0463C132.762 65.0588 132.837 65.0744 132.893 65.0901C132.948 65.1089 132.989 65.1339 133.01 65.1652C133.035 65.1965 133.044 65.231 133.044 65.2685V68.0042H135.801V65.2685C135.801 65.231 135.813 65.1965 135.838 65.1652C135.863 65.137 135.903 65.1089 135.955 65.0901C136.011 65.0713 136.085 65.0557 136.181 65.0463C136.278 65.0338 136.401 65.0275 136.547 65.0275C136.692 65.0275 136.807 65.0338 136.9 65.0463C136.996 65.0588 137.07 65.0713 137.126 65.0901C137.182 65.1089 137.222 65.1339 137.247 65.1652C137.272 65.1965 137.284 65.231 137.284 65.2685V72.2924ZM130.387 71.9293C130.455 72.0639 130.499 72.1703 130.52 72.2517C130.542 72.3331 130.53 72.3957 130.483 72.4364C130.437 72.4802 130.356 72.5052 130.238 72.5177C130.118 72.5303 129.954 72.5365 129.743 72.5365C129.566 72.5365 129.424 72.5334 129.325 72.524C129.223 72.5177 129.142 72.5052 129.083 72.4864C129.024 72.4677 128.981 72.4458 128.956 72.4145C128.928 72.3863 128.907 72.3456 128.888 72.3018L127.504 69.6162L126.132 72.3018C126.107 72.3456 126.085 72.3863 126.058 72.4145C126.03 72.4458 125.989 72.4677 125.931 72.4864C125.872 72.5052 125.788 72.5146 125.686 72.524C125.584 72.5334 125.444 72.5365 125.274 72.5365C125.076 72.5365 124.924 72.5303 124.816 72.5177C124.71 72.5052 124.636 72.4802 124.596 72.4364C124.559 72.3957 124.553 72.3331 124.574 72.2517C124.596 72.1703 124.645 72.067 124.717 71.9293L126.473 68.6834L124.837 65.6316C124.769 65.4939 124.723 65.3812 124.698 65.2998C124.673 65.2184 124.683 65.1558 124.726 65.1151C124.769 65.0776 124.85 65.0494 124.967 65.04C125.085 65.0306 125.252 65.0275 125.466 65.0275C125.646 65.0275 125.785 65.0306 125.89 65.04C125.996 65.0494 126.076 65.0588 126.135 65.0776C126.197 65.0964 126.24 65.1183 126.262 65.1496C126.287 65.1777 126.312 65.2184 126.333 65.2623L127.631 67.7225L128.879 65.2623C128.904 65.2184 128.925 65.1777 128.95 65.1496C128.975 65.1183 129.015 65.0932 129.068 65.0776C129.12 65.0588 129.198 65.0494 129.294 65.04C129.39 65.0338 129.523 65.0275 129.693 65.0275C129.882 65.0275 130.031 65.0306 130.142 65.04C130.251 65.0494 130.325 65.0744 130.369 65.1183C130.409 65.159 130.421 65.2216 130.4 65.3029C130.378 65.3843 130.334 65.4907 130.273 65.6316L128.637 68.6646L130.384 71.9293H130.387ZM123.828 71.9043C123.828 72.0169 123.825 72.1077 123.815 72.186C123.806 72.2611 123.791 72.3205 123.772 72.3675C123.754 72.4145 123.729 72.4489 123.701 72.4708C123.673 72.4927 123.642 72.5021 123.608 72.5021H119.923C119.799 72.5021 119.693 72.4645 119.61 72.3894C119.523 72.3143 119.483 72.1922 119.483 72.0232V65.5408C119.483 65.3718 119.526 65.2497 119.61 65.1746C119.697 65.0995 119.799 65.0619 119.923 65.0619H123.589C123.623 65.0619 123.654 65.0713 123.679 65.0901C123.704 65.1089 123.729 65.1433 123.747 65.1903C123.766 65.2403 123.781 65.2998 123.791 65.3749C123.8 65.4501 123.803 65.544 123.803 65.6598C123.803 65.7662 123.8 65.857 123.791 65.9352C123.781 66.0103 123.769 66.0698 123.747 66.1168C123.729 66.1637 123.704 66.1981 123.679 66.2201C123.651 66.242 123.62 66.2514 123.589 66.2514H120.969V68.0637H123.177C123.212 68.0637 123.243 68.0731 123.27 68.095C123.298 68.1169 123.323 68.1482 123.342 68.192C123.36 68.2358 123.376 68.2953 123.385 68.3704C123.394 68.4455 123.397 68.5363 123.397 68.6396C123.397 68.7523 123.394 68.843 123.385 68.915C123.376 68.987 123.363 69.0465 123.342 69.0903C123.323 69.1341 123.298 69.1654 123.27 69.1842C123.243 69.203 123.212 69.2124 123.177 69.2124H120.969V71.3064H123.608C123.642 71.3064 123.673 71.3158 123.701 71.3377C123.729 71.3596 123.754 71.3941 123.772 71.441C123.791 71.4848 123.806 71.5474 123.815 71.6225C123.825 71.6977 123.828 71.7916 123.828 71.9043ZM118.606 65.6817C118.606 65.7944 118.603 65.8883 118.594 65.9696C118.585 66.0479 118.569 66.1105 118.551 66.1575C118.532 66.2075 118.507 66.242 118.479 66.2639C118.452 66.2889 118.421 66.2983 118.387 66.2983H116.55V72.2924C116.55 72.3299 116.538 72.3644 116.513 72.3957C116.488 72.4238 116.448 72.452 116.392 72.4708C116.336 72.4896 116.259 72.5052 116.163 72.5146C116.067 72.5271 115.946 72.5334 115.804 72.5334C115.661 72.5334 115.54 72.5271 115.444 72.5146C115.348 72.5021 115.271 72.4864 115.215 72.4708C115.16 72.452 115.119 72.427 115.094 72.3957C115.07 72.3644 115.057 72.3299 115.057 72.2924V66.2983H113.221C113.184 66.2983 113.15 66.2858 113.125 66.2639C113.1 66.242 113.075 66.2075 113.057 66.1575C113.038 66.1105 113.023 66.0479 113.013 65.9696C113.004 65.8883 113.001 65.7944 113.001 65.6817C113.001 65.569 113.004 65.4688 113.013 65.3906C113.023 65.3092 113.038 65.2466 113.057 65.1997C113.075 65.1496 113.1 65.1183 113.125 65.0964C113.153 65.0744 113.184 65.0651 113.221 65.0651H118.393C118.427 65.0651 118.458 65.0744 118.486 65.0964C118.513 65.1183 118.538 65.1527 118.557 65.1997C118.575 65.2466 118.591 65.3123 118.6 65.3906C118.609 65.472 118.613 65.569 118.613 65.6817H118.606ZM113.106 69.6037C113.106 69.8259 113.085 69.9824 113.044 70.07C113.001 70.1577 112.936 70.2046 112.846 70.2046H110.48C110.384 70.2046 110.316 70.1608 110.276 70.07C110.235 69.9793 110.214 69.8259 110.214 69.6068C110.214 69.3877 110.235 69.2406 110.276 69.1529C110.319 69.0653 110.387 69.0183 110.48 69.0183H112.846C112.893 69.0183 112.933 69.0277 112.964 69.0465C112.998 69.0653 113.023 69.0966 113.047 69.1435C113.069 69.1874 113.085 69.25 113.097 69.3282C113.106 69.4033 113.109 69.4972 113.109 69.6037H113.106ZM107.851 68.7711C107.851 68.3798 107.82 68.0261 107.761 67.7068C107.702 67.3876 107.597 67.1121 107.454 66.8868C107.309 66.6583 107.117 66.483 106.872 66.3578C106.631 66.2326 106.327 66.17 105.965 66.17C105.602 66.17 105.293 66.242 105.048 66.3797C104.803 66.5174 104.602 66.7083 104.45 66.94C104.299 67.1747 104.193 67.447 104.131 67.7569C104.069 68.0699 104.038 68.3986 104.038 68.7491C104.038 69.1561 104.069 69.5191 104.128 69.8447C104.187 70.1671 104.292 70.4456 104.435 70.6773C104.577 70.9058 104.769 71.081 105.011 71.2031C105.252 71.3221 105.556 71.3847 105.924 71.3847C106.293 71.3847 106.596 71.3158 106.841 71.1781C107.086 71.0404 107.287 70.8526 107.439 70.6147C107.591 70.3768 107.696 70.1013 107.758 69.7852C107.82 69.4691 107.851 69.131 107.851 68.7742V68.7711ZM109.418 68.6959C109.418 69.3126 109.343 69.8634 109.192 70.3486C109.04 70.8338 108.817 71.2501 108.517 71.585C108.219 71.923 107.848 72.1828 107.408 72.3612C106.965 72.5397 106.457 72.6273 105.878 72.6273C105.299 72.6273 104.81 72.5522 104.385 72.3988C103.958 72.2486 103.605 72.0169 103.32 71.7071C103.038 71.3972 102.824 71.0028 102.682 70.5239C102.54 70.045 102.468 69.4785 102.468 68.8243C102.468 68.2233 102.543 67.6818 102.694 67.2029C102.846 66.724 103.069 66.314 103.369 65.9759C103.667 65.6379 104.038 65.3812 104.478 65.2028C104.921 65.0212 105.432 64.9336 106.014 64.9336C106.596 64.9336 107.061 65.0087 107.485 65.1558C107.91 65.3061 108.266 65.5346 108.551 65.8476C108.839 66.1574 109.052 66.5487 109.198 67.0213C109.343 67.4971 109.418 68.0511 109.418 68.6959ZM101.214 72.2924C101.214 72.3299 101.202 72.3644 101.177 72.3957C101.152 72.4238 101.112 72.452 101.056 72.4708C101 72.4896 100.923 72.5052 100.83 72.5146C100.737 72.5271 100.616 72.5334 100.477 72.5334C100.338 72.5334 100.208 72.5271 100.112 72.5146C100.016 72.5021 99.9412 72.4864 99.8854 72.4708C99.8297 72.452 99.7925 72.427 99.7677 72.3957C99.743 72.3644 99.7306 72.3299 99.7306 72.2924V69.2875H96.9743V72.2924C96.9743 72.3299 96.9619 72.3644 96.9402 72.3957C96.9186 72.4238 96.8783 72.452 96.8226 72.4708C96.7668 72.4896 96.6894 72.5052 96.5965 72.5146C96.5036 72.5271 96.3828 72.5334 96.2372 72.5334C96.0917 72.5334 95.974 72.5271 95.878 72.5146C95.782 72.5021 95.7046 72.4864 95.6488 72.4708C95.5931 72.452 95.5528 72.427 95.528 72.3957C95.5033 72.3644 95.4909 72.3299 95.4909 72.2924V65.2685C95.4909 65.231 95.5033 65.1965 95.528 65.1652C95.5528 65.137 95.5931 65.1089 95.6488 65.0901C95.7046 65.0713 95.782 65.0557 95.878 65.0463C95.974 65.0338 96.0948 65.0275 96.2372 65.0275C96.3797 65.0275 96.5036 65.0338 96.5965 65.0463C96.6925 65.0588 96.7668 65.0744 96.8226 65.0901C96.8783 65.1089 96.9186 65.1339 96.9402 65.1652C96.965 65.1965 96.9743 65.231 96.9743 65.2685V68.0042H99.7306V65.2685C99.7306 65.231 99.743 65.1965 99.7677 65.1652C99.7925 65.137 99.8328 65.1089 99.8854 65.0901C99.9412 65.0713 100.016 65.0557 100.112 65.0463C100.208 65.0338 100.331 65.0275 100.477 65.0275C100.623 65.0275 100.737 65.0338 100.83 65.0463C100.926 65.0588 101 65.0713 101.056 65.0901C101.112 65.1089 101.152 65.1339 101.177 65.1652C101.202 65.1965 101.214 65.231 101.214 65.2685V72.2924ZM93.8867 72.2986C93.8867 72.3362 93.8743 72.3706 93.8495 72.3988C93.8247 72.427 93.7845 72.452 93.7318 72.4708C93.6761 72.4896 93.6049 72.5052 93.5119 72.5146C93.419 72.5271 93.3013 72.5334 93.1589 72.5334C93.0164 72.5334 92.9018 72.5271 92.8058 72.5146C92.7098 72.5021 92.6324 72.4864 92.5705 72.4708C92.5085 72.452 92.4652 72.427 92.4373 72.3988C92.4125 72.3706 92.4001 72.3362 92.4001 72.2986V69.7602C92.1988 69.7789 92.0037 69.7946 91.8086 69.8102C91.6135 69.8259 91.4184 69.829 91.2233 69.829C90.8176 69.829 90.4491 69.7915 90.1177 69.7195C89.7863 69.6475 89.4983 69.5191 89.2599 69.3376C89.0183 69.1561 88.8325 68.9056 88.7024 68.5895C88.5723 68.2734 88.5073 67.8727 88.5073 67.3907V65.2623C88.5073 65.2247 88.5197 65.1903 88.5414 65.1621C88.563 65.1339 88.6002 65.1089 88.659 65.0901C88.7148 65.0713 88.786 65.0557 88.8789 65.0463C88.9718 65.0338 89.0895 65.0275 89.2289 65.0275C89.3682 65.0275 89.4952 65.0338 89.5881 65.0463C89.6841 65.0588 89.7647 65.0713 89.8235 65.0901C89.8823 65.1089 89.9288 65.1339 89.9536 65.1621C89.9814 65.1903 89.9938 65.2216 89.9938 65.2623V67.2373C89.9938 67.4658 90.0186 67.6661 90.0651 67.8352C90.1115 68.0011 90.192 68.1419 90.3004 68.2515C90.4088 68.3641 90.5544 68.4487 90.734 68.505C90.9136 68.5613 91.1397 68.5926 91.4091 68.5926C91.5795 68.5926 91.7467 68.5864 91.9077 68.5739C92.0719 68.5613 92.236 68.5457 92.397 68.5238V65.2623C92.397 65.2216 92.4094 65.1903 92.4342 65.1621C92.4621 65.1339 92.5054 65.1089 92.5674 65.0901C92.6262 65.0713 92.7036 65.0557 92.8027 65.0463C92.8987 65.0338 93.0164 65.0275 93.1558 65.0275C93.2952 65.0275 93.4159 65.0338 93.5088 65.0463C93.6018 65.0588 93.673 65.0713 93.7287 65.0901C93.7845 65.1089 93.8216 65.1339 93.8464 65.1621C93.8712 65.1903 93.8836 65.2247 93.8836 65.2623V72.2986H93.8867ZM86.0267 70.4456C85.8594 70.8745 85.6984 71.2282 85.5373 71.5067C85.3763 71.7884 85.2029 72.0075 85.0232 72.1703C84.8405 72.3331 84.6392 72.4457 84.4224 72.5084C84.2057 72.571 83.9579 72.6023 83.6792 72.6023C83.577 72.6023 83.4779 72.596 83.3788 72.5835C83.2797 72.571 83.1899 72.5522 83.1031 72.5271C83.0164 72.5021 82.939 72.4771 82.8771 72.4458C82.812 72.4145 82.7656 72.3863 82.7346 72.3581C82.7036 72.3299 82.6789 72.3018 82.6634 72.2673C82.6479 72.236 82.6324 72.1922 82.6231 72.139C82.6107 72.0858 82.6014 72.0169 82.5953 71.9355C82.5891 71.8542 82.5891 71.7509 82.5891 71.6288C82.5891 71.4066 82.6045 71.2469 82.6386 71.153C82.6696 71.0591 82.7191 71.0122 82.7873 71.0122C82.8213 71.0122 82.8585 71.0247 82.8987 71.0529C82.9421 71.0779 82.9917 71.1092 83.0505 71.1374C83.1093 71.1687 83.1775 71.1969 83.2549 71.2219C83.3323 71.2469 83.4221 71.2595 83.5274 71.2595C83.6079 71.2595 83.6792 71.2532 83.7473 71.2344C83.8154 71.2156 83.8805 71.1843 83.9393 71.1343C83.9982 71.0842 84.0601 71.0153 84.1189 70.9245C84.1778 70.8369 84.2459 70.718 84.314 70.574L81.8984 65.594C81.8458 65.4751 81.8148 65.3781 81.8055 65.3029C81.7962 65.2278 81.8117 65.1683 81.8582 65.1277C81.9046 65.0838 81.9821 65.0557 82.0874 65.0431C82.1957 65.0306 82.3413 65.0244 82.524 65.0244C82.7067 65.0244 82.843 65.0275 82.9514 65.0369C83.0567 65.0463 83.1434 65.0619 83.2084 65.087C83.2735 65.112 83.323 65.1464 83.3571 65.1934C83.3912 65.2435 83.4252 65.3061 83.4593 65.3812L84.4875 67.6317C84.6021 67.8727 84.7074 68.1137 84.8096 68.3548C84.9118 68.5926 85.0109 68.8368 85.1038 69.0809H85.1223C85.1967 68.8243 85.2803 68.5739 85.3639 68.3328C85.4506 68.0887 85.5435 67.8352 85.6457 67.566L86.4943 65.281C86.5129 65.2278 86.5376 65.184 86.5686 65.1527C86.5996 65.1183 86.6429 65.0932 86.7049 65.0744C86.7637 65.0557 86.8473 65.0431 86.9557 65.0369C87.061 65.0306 87.1973 65.0306 87.3676 65.0306C87.5379 65.0306 87.6804 65.0369 87.7795 65.0494C87.8817 65.0619 87.956 65.0838 87.9994 65.1151C88.0458 65.1496 88.0644 65.1934 88.0613 65.2497C88.0582 65.3092 88.0397 65.3843 88.0056 65.4751L86.0359 70.4488L86.0267 70.4456ZM78.7241 66.4767H78.7179L77.6959 69.6381H79.7585L78.7272 66.4767H78.7241ZM82.0935 71.9355C82.1369 72.0733 82.1679 72.1828 82.1803 72.2642C82.1926 72.3456 82.1772 72.4051 82.1369 72.4458C82.0935 72.4833 82.0192 72.5115 81.9139 72.5209C81.8086 72.5303 81.6631 72.5334 81.4773 72.5334C81.2821 72.5334 81.1335 72.5334 81.0251 72.524C80.9167 72.5177 80.8362 72.5052 80.7773 72.4896C80.7216 72.4708 80.6813 72.4489 80.6597 72.4176C80.6349 72.3894 80.6163 72.3456 80.6039 72.2986L80.1208 70.8056H77.349L76.8845 72.2579C76.869 72.3143 76.8504 72.3581 76.8257 72.3925C76.8009 72.4301 76.7606 72.4583 76.708 72.4802C76.6553 72.5021 76.5748 72.5146 76.4757 72.524C76.3766 72.5334 76.2434 72.5365 76.0793 72.5365C75.9059 72.5365 75.7696 72.5303 75.6705 72.5177C75.5714 72.5052 75.5033 72.4771 75.4661 72.4364C75.4289 72.3925 75.4135 72.3299 75.4258 72.2486C75.4382 72.1672 75.4661 72.0608 75.5126 71.9262L77.7764 65.328C77.7981 65.2622 77.826 65.209 77.8569 65.1715C77.8848 65.1308 77.9344 65.0995 77.9994 65.0807C78.0675 65.0588 78.1573 65.0463 78.275 65.04C78.3927 65.0338 78.5476 65.0338 78.7396 65.0338C78.9625 65.0338 79.1422 65.0338 79.2722 65.04C79.4054 65.0463 79.5076 65.0588 79.5819 65.0807C79.6563 65.1026 79.7089 65.1339 79.7399 65.1746C79.7708 65.2184 79.7987 65.2748 79.8204 65.3468L82.0904 71.9387L82.0935 71.9355ZM74.4782 72.2924C74.4782 72.3299 74.4658 72.3644 74.441 72.3957C74.4162 72.4238 74.376 72.452 74.3202 72.4708C74.2645 72.4896 74.1871 72.5052 74.0942 72.5146C74.0013 72.5271 73.8805 72.5334 73.738 72.5334C73.5956 72.5334 73.4686 72.5271 73.3726 72.5146C73.2766 72.5021 73.2022 72.4864 73.1465 72.4708C73.0908 72.452 73.0536 72.427 73.0288 72.3957C73.004 72.3644 72.9917 72.3299 72.9917 72.2924V69.2875H70.2354V72.2924C70.2354 72.3299 70.223 72.3644 70.2013 72.3957C70.1796 72.4238 70.1394 72.452 70.0836 72.4708C70.0279 72.4896 69.9505 72.5052 69.8576 72.5146C69.7646 72.5271 69.6439 72.5334 69.4983 72.5334C69.3528 72.5334 69.2351 72.5271 69.1391 72.5146C69.0431 72.5021 68.9656 72.4864 68.9099 72.4708C68.8542 72.452 68.8139 72.427 68.7891 72.3957C68.7643 72.3644 68.752 72.3299 68.752 72.2924V65.2685C68.752 65.231 68.7643 65.1965 68.7891 65.1652C68.8139 65.137 68.8542 65.1089 68.9099 65.0901C68.9656 65.0713 69.0431 65.0557 69.1391 65.0463C69.2351 65.0338 69.3559 65.0275 69.4983 65.0275C69.6408 65.0275 69.7646 65.0338 69.8576 65.0463C69.9536 65.0588 70.0279 65.0744 70.0836 65.0901C70.1394 65.1089 70.1796 65.1339 70.2013 65.1652C70.2261 65.1965 70.2354 65.231 70.2354 65.2685V68.0042H72.9917V65.2685C72.9917 65.231 73.004 65.1965 73.0288 65.1652C73.0536 65.137 73.0939 65.1089 73.1465 65.0901C73.2022 65.0713 73.2766 65.0557 73.3726 65.0463C73.4686 65.0338 73.5925 65.0275 73.738 65.0275C73.8836 65.0275 73.9982 65.0338 74.0942 65.0463C74.1902 65.0588 74.2645 65.0713 74.3202 65.0901C74.376 65.1089 74.4162 65.1339 74.441 65.1652C74.4658 65.1965 74.4782 65.231 74.4782 65.2685V72.2924Z" fill="black"/>
<path d="M218.848 67.4333C218.848 67.1735 218.801 66.9576 218.712 66.7885C218.622 66.6195 218.507 66.4943 218.374 66.4129C218.241 66.3315 218.102 66.2815 217.956 66.2596C217.807 66.2376 217.659 66.2283 217.501 66.2283H216.863V68.7573H217.538C217.779 68.7573 217.978 68.7229 218.142 68.6603C218.303 68.5946 218.436 68.5038 218.538 68.3849C218.64 68.2691 218.718 68.1282 218.774 67.9654C218.826 67.8027 218.854 67.6243 218.854 67.4333M220.406 67.3238C220.406 67.7432 220.341 68.1126 220.211 68.435C220.084 68.7573 219.895 69.0297 219.647 69.2488C219.402 69.471 219.099 69.6369 218.739 69.7527C218.38 69.8685 217.959 69.9249 217.473 69.9249H216.86V72.2943C216.86 72.3319 216.847 72.3663 216.822 72.3976C216.798 72.4258 216.757 72.454 216.702 72.4727C216.646 72.4915 216.569 72.5072 216.476 72.5166C216.383 72.5291 216.262 72.5353 216.116 72.5353C215.971 72.5353 215.853 72.5291 215.757 72.5166C215.661 72.504 215.584 72.4884 215.528 72.4727C215.472 72.454 215.432 72.4289 215.41 72.3976C215.385 72.3663 215.376 72.3319 215.376 72.2943V65.6054C215.376 65.4238 215.423 65.2892 215.516 65.1985C215.608 65.1077 215.729 65.0639 215.881 65.0639H217.612C217.786 65.0639 217.953 65.0701 218.111 65.0826C218.269 65.0952 218.455 65.1265 218.678 65.1703C218.897 65.2141 219.12 65.2955 219.343 65.4144C219.569 65.5334 219.761 65.6836 219.919 65.8652C220.077 66.0467 220.201 66.2596 220.285 66.5037C220.368 66.7478 220.409 67.0202 220.409 67.3206L220.406 67.3238ZM214.497 65.6836C214.497 65.7963 214.494 65.8902 214.484 65.9716C214.475 66.0498 214.46 66.1124 214.441 66.1594C214.422 66.2095 214.398 66.2439 214.37 66.2658C214.342 66.2909 214.311 66.3002 214.277 66.3002H212.44V72.2943C212.44 72.3319 212.428 72.3663 212.403 72.3976C212.378 72.4258 212.338 72.454 212.282 72.4727C212.227 72.4915 212.149 72.5072 212.053 72.5166C211.957 72.5291 211.836 72.5353 211.694 72.5353C211.551 72.5353 211.431 72.5291 211.335 72.5166C211.239 72.504 211.161 72.4884 211.106 72.4727C211.05 72.454 211.01 72.4289 210.985 72.3976C210.96 72.3663 210.948 72.3319 210.948 72.2943V66.3002H209.111C209.074 66.3002 209.043 66.2877 209.015 66.2658C208.99 66.2439 208.966 66.2095 208.947 66.1594C208.928 66.1124 208.913 66.0498 208.904 65.9716C208.894 65.8902 208.891 65.7963 208.891 65.6836C208.891 65.5709 208.894 65.4708 208.904 65.3925C208.913 65.3111 208.928 65.2485 208.947 65.2016C208.966 65.1515 208.99 65.1202 209.015 65.0983C209.043 65.0764 209.074 65.067 209.111 65.067H214.283C214.317 65.067 214.348 65.0764 214.376 65.0983C214.404 65.1202 214.429 65.1546 214.447 65.2016C214.466 65.2485 214.481 65.3143 214.49 65.3925C214.5 65.4739 214.503 65.5709 214.503 65.6836H214.497ZM208.015 72.2943C208.015 72.3319 208.002 72.3663 207.978 72.3976C207.953 72.4258 207.913 72.454 207.857 72.4727C207.801 72.4915 207.724 72.5072 207.631 72.5166C207.538 72.5291 207.417 72.5353 207.278 72.5353C207.138 72.5353 207.008 72.5291 206.912 72.5166C206.816 72.504 206.742 72.4884 206.686 72.4727C206.63 72.454 206.593 72.4289 206.569 72.3976C206.544 72.3663 206.531 72.3319 206.531 72.2943V69.2895H203.775V72.2943C203.775 72.3319 203.763 72.3663 203.741 72.3976C203.719 72.4258 203.679 72.454 203.623 72.4727C203.568 72.4915 203.49 72.5072 203.397 72.5166C203.304 72.5291 203.184 72.5353 203.038 72.5353C202.892 72.5353 202.775 72.5291 202.679 72.5166C202.583 72.504 202.505 72.4884 202.45 72.4727C202.394 72.454 202.354 72.4289 202.329 72.3976C202.304 72.3663 202.292 72.3319 202.292 72.2943V65.2705C202.292 65.2329 202.304 65.1985 202.329 65.1672C202.354 65.139 202.394 65.1108 202.45 65.092C202.505 65.0733 202.583 65.0576 202.679 65.0482C202.775 65.0357 202.896 65.0294 203.038 65.0294C203.18 65.0294 203.304 65.0357 203.397 65.0482C203.493 65.0607 203.568 65.0764 203.623 65.092C203.679 65.1108 203.719 65.1359 203.741 65.1672C203.766 65.1985 203.775 65.2329 203.775 65.2705V68.0061H206.531V65.2705C206.531 65.2329 206.544 65.1985 206.569 65.1672C206.593 65.139 206.634 65.1108 206.686 65.092C206.742 65.0733 206.816 65.0576 206.912 65.0482C207.008 65.0357 207.132 65.0294 207.278 65.0294C207.423 65.0294 207.538 65.0357 207.631 65.0482C207.727 65.0607 207.801 65.0733 207.857 65.092C207.913 65.1108 207.953 65.1359 207.978 65.1672C208.002 65.1985 208.015 65.2329 208.015 65.2705V72.2943ZM200.96 71.9062C200.96 72.0189 200.957 72.1096 200.948 72.1879C200.938 72.263 200.926 72.3225 200.904 72.3694C200.886 72.4164 200.861 72.4508 200.833 72.4727C200.805 72.4946 200.774 72.504 200.74 72.504H197.055C196.931 72.504 196.826 72.4665 196.742 72.3914C196.655 72.3162 196.615 72.1942 196.615 72.0251V65.5428C196.615 65.3737 196.658 65.2517 196.742 65.1766C196.829 65.1014 196.931 65.0639 197.055 65.0639H200.722C200.756 65.0639 200.787 65.0733 200.811 65.092C200.836 65.1108 200.861 65.1453 200.879 65.1922C200.898 65.2423 200.914 65.3018 200.923 65.3769C200.932 65.452 200.935 65.5459 200.935 65.6617C200.935 65.7681 200.932 65.8589 200.923 65.9372C200.914 66.0123 200.898 66.0717 200.879 66.1187C200.861 66.1657 200.836 66.2001 200.811 66.222C200.783 66.2439 200.752 66.2533 200.722 66.2533H198.102V68.0656H200.31C200.344 68.0656 200.375 68.075 200.403 68.0969C200.43 68.1188 200.455 68.1501 200.474 68.1939C200.492 68.2378 200.508 68.2972 200.517 68.3723C200.526 68.4475 200.53 68.5382 200.53 68.6415C200.53 68.7542 200.526 68.845 200.517 68.917C200.508 68.989 200.492 69.0484 200.474 69.0923C200.455 69.1361 200.43 69.1674 200.403 69.1862C200.375 69.2049 200.344 69.2143 200.31 69.2143H198.102V71.3083H200.74C200.774 71.3083 200.805 71.3177 200.833 71.3397C200.861 71.3616 200.886 71.396 200.904 71.4429C200.923 71.4868 200.938 71.5494 200.948 71.6245C200.957 71.6996 200.96 71.7935 200.96 71.9062ZM195.559 74.2475C195.559 74.2882 195.55 74.3195 195.531 74.3445C195.512 74.3696 195.482 74.3915 195.432 74.4102C195.385 74.429 195.32 74.4415 195.234 74.4509C195.147 74.4603 195.042 74.4635 194.915 74.4635C194.788 74.4635 194.679 74.4603 194.596 74.4509C194.512 74.4415 194.447 74.4259 194.398 74.4102C194.345 74.3915 194.311 74.3696 194.289 74.3445C194.268 74.3163 194.258 74.285 194.258 74.2475V72.5009H189.402C189.269 72.5009 189.164 72.4602 189.086 72.382C189.009 72.3037 188.969 72.1848 188.969 72.022V65.2579C188.969 65.2204 188.981 65.1859 189.006 65.1578C189.031 65.1296 189.071 65.1046 189.127 65.0858C189.182 65.067 189.26 65.0513 189.356 65.042C189.452 65.0326 189.573 65.0294 189.715 65.0294C189.857 65.0294 189.981 65.0326 190.074 65.042C190.17 65.0513 190.245 65.067 190.3 65.0858C190.356 65.1046 190.396 65.1296 190.418 65.1578C190.443 65.1859 190.452 65.2204 190.452 65.2579V71.252H193.171V65.2579C193.171 65.2204 193.184 65.1859 193.208 65.1578C193.233 65.1296 193.273 65.1046 193.329 65.0858C193.385 65.067 193.462 65.0513 193.558 65.042C193.654 65.0326 193.775 65.0294 193.918 65.0294C194.06 65.0294 194.184 65.0326 194.277 65.042C194.373 65.0513 194.447 65.067 194.503 65.0858C194.559 65.1046 194.599 65.1296 194.621 65.1578C194.645 65.1859 194.655 65.2204 194.655 65.2579V71.252H195.299C195.395 71.252 195.46 71.2739 195.494 71.3177C195.531 71.3616 195.55 71.4429 195.55 71.5619V74.2475H195.559ZM183.877 63.0638C183.877 63.2766 183.84 63.4801 183.769 63.6741C183.698 63.8682 183.58 64.0403 183.419 64.1875C183.258 64.3377 183.044 64.4535 182.781 64.5411C182.518 64.6288 182.196 64.6757 181.812 64.6757C181.428 64.6757 181.124 64.635 180.861 64.5537C180.598 64.4723 180.387 64.3627 180.223 64.2219C180.059 64.081 179.938 63.912 179.864 63.7148C179.789 63.5145 179.749 63.2985 179.749 63.0638C179.749 63.0074 179.758 62.9605 179.78 62.9229C179.802 62.8853 179.836 62.8572 179.885 62.8321C179.935 62.8102 180.003 62.7946 180.087 62.782C180.173 62.7727 180.282 62.7695 180.409 62.7695C180.536 62.7695 180.629 62.7758 180.712 62.7883C180.793 62.8008 180.852 62.8165 180.892 62.8384C180.935 62.8634 180.963 62.8916 180.982 62.9292C181 62.9667 181.006 63.0105 181.006 63.0575C181.006 63.1483 181.025 63.239 181.062 63.3173C181.099 63.3987 181.152 63.4675 181.22 63.527C181.291 63.5865 181.378 63.6366 181.48 63.6772C181.582 63.7148 181.697 63.7336 181.821 63.7336C181.945 63.7336 182.053 63.7148 182.152 63.6772C182.251 63.6397 182.335 63.5927 182.409 63.5333C182.481 63.4738 182.53 63.4049 182.567 63.3204C182.604 63.239 182.623 63.1451 182.623 63.045C182.623 63.0012 182.632 62.9573 182.648 62.926C182.66 62.8916 182.691 62.8603 182.735 62.8384C182.778 62.8165 182.837 62.8008 182.908 62.7883C182.982 62.7758 183.075 62.7695 183.19 62.7695C183.326 62.7695 183.438 62.7727 183.527 62.782C183.614 62.7914 183.685 62.8102 183.738 62.8321C183.791 62.8572 183.828 62.8853 183.849 62.9229C183.871 62.9605 183.88 63.0074 183.88 63.0638H183.877ZM184.738 72.3068C184.738 72.3444 184.726 72.3788 184.701 72.407C184.676 72.4352 184.636 72.4602 184.58 72.479C184.525 72.4978 184.447 72.5134 184.351 72.5228C184.255 72.5322 184.134 72.5353 183.992 72.5353C183.849 72.5353 183.729 72.5322 183.633 72.5228C183.537 72.5134 183.459 72.4978 183.407 72.479C183.351 72.4602 183.311 72.4352 183.289 72.407C183.267 72.3788 183.255 72.3444 183.255 72.3068V68.388C183.255 68.2378 183.255 68.0906 183.261 67.9498C183.264 67.8058 183.27 67.6775 183.28 67.5679H183.267C183.236 67.6211 183.202 67.6837 183.159 67.7526C183.115 67.8246 183.072 67.8966 183.026 67.9748C182.976 68.0531 182.927 68.1345 182.874 68.2158C182.818 68.2972 182.769 68.3786 182.716 68.4537L180.164 72.31C180.133 72.3507 180.102 72.3882 180.071 72.4164C180.037 72.4477 179.997 72.4727 179.944 72.4884C179.895 72.5072 179.833 72.5166 179.758 72.5228C179.684 72.5291 179.588 72.5322 179.47 72.5322C179.322 72.5322 179.204 72.5291 179.114 72.5197C179.024 72.5103 178.95 72.4946 178.901 72.4759C178.848 72.4571 178.814 72.432 178.795 72.4007C178.777 72.3694 178.767 72.3319 178.767 72.2912V65.2548C178.767 65.2172 178.78 65.1828 178.805 65.1546C178.829 65.1265 178.87 65.1014 178.928 65.0826C178.987 65.0639 179.065 65.0482 179.158 65.0388C179.25 65.0294 179.371 65.0263 179.514 65.0263C179.656 65.0263 179.78 65.0294 179.873 65.0388C179.969 65.0482 180.043 65.0639 180.099 65.0826C180.155 65.1014 180.195 65.1265 180.217 65.1546C180.238 65.1828 180.251 65.2172 180.251 65.2548V69.1987C180.251 69.3208 180.251 69.4522 180.245 69.5899C180.241 69.7277 180.235 69.8623 180.226 69.9906H180.238C180.303 69.8779 180.387 69.7371 180.483 69.5774C180.582 69.4178 180.684 69.2582 180.79 69.1079L183.345 65.2517C183.372 65.2141 183.4 65.1797 183.431 65.1515C183.462 65.1233 183.503 65.0983 183.552 65.0795C183.602 65.0607 183.667 65.0482 183.741 65.042C183.815 65.0357 183.914 65.0294 184.032 65.0294C184.175 65.0294 184.292 65.0326 184.382 65.042C184.472 65.0513 184.54 65.067 184.596 65.0858C184.648 65.1046 184.686 65.1296 184.707 65.1578C184.729 65.1859 184.738 65.2235 184.738 65.2642V72.3068ZM177.163 72.3068C177.163 72.3444 177.151 72.3788 177.126 72.407C177.101 72.4352 177.061 72.4602 177.005 72.479C176.949 72.4978 176.872 72.5134 176.776 72.5228C176.68 72.5322 176.559 72.5353 176.417 72.5353C176.274 72.5353 176.154 72.5322 176.058 72.5228C175.962 72.5134 175.884 72.4978 175.831 72.479C175.776 72.4602 175.735 72.4352 175.714 72.407C175.689 72.3788 175.68 72.3444 175.68 72.3068V68.388C175.68 68.2378 175.68 68.0906 175.686 67.9498C175.689 67.8058 175.695 67.6775 175.704 67.5679H175.692C175.661 67.6211 175.627 67.6837 175.584 67.7526C175.54 67.8246 175.497 67.8966 175.451 67.9748C175.401 68.0531 175.351 68.1345 175.299 68.2158C175.243 68.2972 175.193 68.3786 175.141 68.4537L172.589 72.31C172.558 72.3507 172.527 72.3882 172.496 72.4164C172.462 72.4477 172.422 72.4727 172.369 72.4884C172.32 72.5072 172.258 72.5166 172.183 72.5228C172.109 72.5291 172.013 72.5322 171.895 72.5322C171.747 72.5322 171.629 72.5291 171.539 72.5197C171.449 72.5103 171.375 72.4946 171.325 72.4759C171.273 72.4571 171.239 72.432 171.22 72.4007C171.202 72.3694 171.192 72.3319 171.192 72.2912V65.2548C171.192 65.2172 171.205 65.1828 171.229 65.1546C171.254 65.1265 171.294 65.1014 171.353 65.0826C171.412 65.0639 171.49 65.0482 171.582 65.0388C171.675 65.0294 171.796 65.0263 171.939 65.0263C172.081 65.0263 172.205 65.0294 172.298 65.0388C172.394 65.0482 172.468 65.0639 172.524 65.0826C172.58 65.1014 172.62 65.1265 172.642 65.1546C172.666 65.1828 172.676 65.2172 172.676 65.2548V69.1987C172.676 69.3208 172.676 69.4522 172.669 69.5899C172.666 69.7277 172.66 69.8623 172.651 69.9906H172.663C172.728 69.8779 172.812 69.7371 172.908 69.5774C173.007 69.4178 173.109 69.2582 173.215 69.1079L175.77 65.2517C175.797 65.2141 175.825 65.1797 175.856 65.1515C175.887 65.1233 175.927 65.0983 175.977 65.0795C176.027 65.0607 176.092 65.0482 176.166 65.042C176.24 65.0357 176.339 65.0294 176.457 65.0294C176.599 65.0294 176.717 65.0326 176.807 65.042C176.897 65.0513 176.965 65.067 177.021 65.0858C177.073 65.1046 177.11 65.1296 177.132 65.1578C177.154 65.1859 177.163 65.2235 177.163 65.2642V72.3068ZM170.084 72.3006C170.084 72.3413 170.071 72.3757 170.049 72.407C170.028 72.4352 169.988 72.4602 169.929 72.479C169.87 72.4978 169.792 72.5134 169.693 72.5228C169.594 72.5322 169.467 72.5353 169.312 72.5353C169.148 72.5353 169.015 72.5322 168.916 72.5228C168.814 72.5134 168.733 72.4978 168.674 72.4759C168.613 72.454 168.569 72.4258 168.538 72.3882C168.51 72.3538 168.486 72.3068 168.47 72.2536L167.879 70.5978C167.795 70.3537 167.708 70.1534 167.618 69.9906C167.529 69.8278 167.426 69.6932 167.315 69.5931C167.207 69.4929 167.08 69.4209 166.94 69.3771C166.798 69.3364 166.643 69.3145 166.466 69.3145H166.132V72.2975C166.132 72.3381 166.119 72.3726 166.098 72.4039C166.076 72.432 166.036 72.4571 165.98 72.479C165.924 72.5009 165.847 72.5166 165.754 72.5259C165.661 72.5353 165.54 72.5385 165.395 72.5385C165.249 72.5385 165.132 72.5353 165.036 72.5259C164.94 72.5166 164.862 72.5009 164.806 72.479C164.751 72.4571 164.71 72.4352 164.686 72.4039C164.661 72.3757 164.648 72.3381 164.648 72.2975V65.2673C164.648 65.2266 164.661 65.1922 164.686 65.1609C164.71 65.1327 164.751 65.1077 164.806 65.0889C164.862 65.0701 164.94 65.0545 165.036 65.0451C165.132 65.0357 165.252 65.0326 165.395 65.0326C165.537 65.0326 165.661 65.0357 165.754 65.0451C165.85 65.0545 165.924 65.067 165.98 65.0889C166.036 65.1077 166.076 65.1327 166.098 65.1609C166.123 65.1891 166.132 65.2235 166.132 65.2673V68.0562H166.466C166.637 68.0562 166.788 68.0312 166.915 67.9873C167.045 67.9404 167.16 67.8684 167.265 67.7682C167.371 67.6681 167.464 67.5397 167.55 67.3801C167.637 67.2205 167.717 67.0264 167.798 66.7917L168.294 65.3111C168.312 65.2579 168.334 65.2141 168.362 65.1766C168.39 65.139 168.433 65.1108 168.489 65.0889C168.547 65.067 168.625 65.0513 168.721 65.042C168.817 65.0326 168.947 65.0294 169.108 65.0294C169.257 65.0294 169.377 65.0326 169.473 65.042C169.569 65.0513 169.647 65.0639 169.7 65.0826C169.755 65.1014 169.792 65.1233 169.811 65.1515C169.83 65.1797 169.839 65.2172 169.839 65.2579C169.839 65.308 169.833 65.3706 169.814 65.4426C169.796 65.5146 169.768 65.6116 169.724 65.7306L169.232 67.0515C169.142 67.2956 169.049 67.5053 168.959 67.6775C168.87 67.8496 168.774 67.9967 168.671 68.1157C168.572 68.2378 168.467 68.3348 168.352 68.413C168.241 68.4882 168.117 68.5508 167.984 68.604C168.136 68.676 168.272 68.748 168.396 68.8293C168.52 68.9138 168.637 69.0171 168.746 69.1423C168.851 69.2707 168.956 69.4241 169.055 69.6087C169.151 69.7934 169.254 70.0188 169.356 70.2879L169.96 71.8311C170.022 71.9876 170.056 72.0971 170.068 72.1566C170.08 72.2161 170.087 72.263 170.087 72.3037L170.084 72.3006Z" fill="black"/>
</g>
<defs>
<clipPath id="clip0_3633_89628">
<rect width="220" height="56" fill="white" transform="translate(0.40625 22)"/>
</clipPath>
</defs>
</svg>
