<svg width="169" height="100" viewBox="0 0 169 100" fill="none" xmlns="http://www.w3.org/2000/svg">
<g clip-path="url(#clip0_3633_89627)">
<path fill-rule="evenodd" clip-rule="evenodd" d="M65.6205 67.9752L65.605 68.0496C18.2607 86.2838 -19.0334 40.855 34.9956 8H73.0459C54.1261 12.519 30.9483 25.3688 24.121 40.4146C17.3186 55.4076 27.8058 74.8607 65.6205 67.9721" fill="black"/>
<path fill-rule="evenodd" clip-rule="evenodd" d="M26.0076 41.2786C22.205 49.6528 24.926 58.6536 32.8565 63.2688H34.905V29.7035C30.9754 33.3075 27.8453 37.2155 26.0107 41.2817M0.40625 11.4414V22.514H14.6123C17.9531 18.3145 21.9323 14.6701 26.209 11.4414H0.40625ZM6.27277 43.9925C6.24178 37.6218 8.51649 31.5024 11.9378 26.2266H0.40625V63.2657H14.5721C9.44311 58.1636 6.30066 51.2905 6.27277 43.9925ZM68.3066 11.4414C58.0952 14.5926 47.0812 19.9583 38.6146 26.5678V44.7647H53.4374V22.514H93.0898V11.4414H68.3066Z" fill="black"/>
<path fill-rule="evenodd" clip-rule="evenodd" d="M162.967 58.6304C162.729 59.0584 162.199 59.6756 161.092 59.6756H158.889V53.9408C158.889 53.6244 159.162 53.3608 159.478 53.3608H161.244C161.557 53.3608 162.605 53.4197 163.038 54.5208C163.243 55.0605 163.262 55.7242 163.262 56.4934C163.262 57.3742 163.243 58.0907 162.967 58.6335M166.937 51.1339C165.679 49.8219 163.909 49.7227 163.023 49.7227H156.41C154.941 49.7227 153.865 50.8951 153.865 52.1791V68.2608H158.889V63.32H162.605C164.008 63.32 166.063 63.1897 167.29 61.4404C168.347 59.9268 168.4 57.2843 168.4 56.1088C168.4 54.7968 168.301 52.5451 166.937 51.1339Z" fill="black"/>
<path fill-rule="evenodd" clip-rule="evenodd" d="M143.223 53.2442C143.586 53.0364 144.373 53.0116 144.959 53.0116C145.21 53.0116 145.882 53.0364 146.295 53.117C147.038 53.2659 147.215 53.6784 147.215 54.0351C147.215 54.2863 147.116 54.7516 146.388 54.7516H142.678C142.632 54.0599 142.709 53.5202 143.22 53.2411M142.914 59.0317C142.725 58.7433 142.656 58.2998 142.681 57.9307H150.088C150.55 57.9307 150.984 57.909 151.414 57.5492C152.183 56.9382 152.236 55.9302 152.236 55.0586C152.236 53.573 152.084 51.5507 150.773 50.5055C149.701 49.6246 147.909 49.5781 145.173 49.5781C142.607 49.5781 140.013 49.6246 138.764 50.9087C137.537 52.1648 137.658 54.1902 137.658 56.6714C137.658 59.1527 137.766 60.567 138.352 61.5409C139.43 63.3088 141.141 63.3088 143.168 63.3088H151.752V59.6769H145.173C144.277 59.6769 143.351 59.7265 142.914 59.0286V59.0317Z" fill="black"/>
<path fill-rule="evenodd" clip-rule="evenodd" d="M136.037 63.3092V49.7305H131.01V54.4914H126.554V49.7305H121.533V63.3092H126.554V58.1326H131.01V63.3092H136.037Z" fill="black"/>
<path fill-rule="evenodd" clip-rule="evenodd" d="M93.5681 53.2442C93.9245 53.0364 94.724 53.0116 95.316 53.0116C95.5639 53.0116 96.2364 53.0364 96.6331 53.117C97.383 53.2659 97.5566 53.6784 97.5566 54.0351C97.5566 54.2863 97.4574 54.7516 96.7384 54.7516H93.0351C92.9824 54.0599 93.0567 53.5202 93.5681 53.2411M93.2675 59.0317C93.0846 58.7433 93.0072 58.2998 93.0351 57.9307H100.433C100.894 57.9307 101.328 57.909 101.765 57.5492C102.534 56.9382 102.58 55.9302 102.58 55.0586C102.58 53.573 102.434 51.5507 101.124 50.5055C100.054 49.6246 98.2601 49.5781 95.5205 49.5781C92.9576 49.5781 90.3668 49.6246 89.1116 50.9087C87.8875 52.1648 88.0177 54.1902 88.0177 56.6714C88.0177 59.1527 88.1199 60.567 88.7057 61.5409C89.7872 63.3088 91.4917 63.3088 93.5185 63.3088H102.097V59.6769H95.5205C94.6249 59.6769 93.6889 59.7265 93.2706 59.0286L93.2675 59.0317Z" fill="black"/>
<path fill-rule="evenodd" clip-rule="evenodd" d="M81.8093 63.3092V53.3097H86.8701V49.7305H71.7188V53.3097H76.7826V63.3092H81.8093Z" fill="black"/>
<path fill-rule="evenodd" clip-rule="evenodd" d="M70.3384 63.3092V49.7305H65.3055V54.4914H60.8491V49.7305H55.8379V63.3092H60.8491V58.1326H65.3055V63.3092H70.3384Z" fill="black"/>
<path fill-rule="evenodd" clip-rule="evenodd" d="M48.2441 58.9015C48.0209 59.2333 47.3949 59.8257 46.0406 59.8257C44.4973 59.8257 43.9178 59.0503 43.8124 58.9015C43.6079 58.6285 43.3228 58.0051 43.3228 56.5195C43.3228 54.9314 43.6296 54.3484 43.8124 54.0785C44.0634 53.7529 44.6585 53.2163 46.0406 53.2163C47.4228 53.2163 48.0209 53.7529 48.2658 54.0785C48.5292 54.4414 48.7585 55.0834 48.7585 56.5195C48.7585 57.4965 48.6532 58.3432 48.2472 58.9015M52.0869 50.9552C50.5994 49.6526 48.1883 49.5781 46.0406 49.5781C43.893 49.5781 41.4819 49.6526 39.9882 50.9552C38.3116 52.4657 38.2031 55.161 38.2031 56.5195C38.2031 57.8779 38.3085 60.567 39.9882 62.0775C41.4819 63.3957 43.8868 63.4732 46.0406 63.4732C48.1945 63.4732 50.5994 63.3957 52.0869 62.0775C53.7759 60.5701 53.8751 57.8873 53.8751 56.5195C53.8751 55.1517 53.7759 52.4657 52.0869 50.9552Z" fill="black"/>
<path fill-rule="evenodd" clip-rule="evenodd" d="M117.683 39.8177V36.378H112.706C111.941 36.378 110.639 36.4649 110.013 35.4538C109.886 35.218 109.607 34.6566 109.607 33.1028C109.607 32.4111 109.657 31.8466 109.83 31.31C110.119 30.4292 110.704 29.6631 112.421 29.6631H117.68V26.2266H110.094C108.473 26.2266 107.035 26.5305 105.985 27.6316C104.581 29.0955 104.463 31.2263 104.463 33.1958C104.463 35.2708 104.627 36.9673 105.675 38.1955C106.911 39.6595 108.675 39.8146 109.827 39.8146H117.68L117.683 39.8177Z" fill="black"/>
<path fill-rule="evenodd" clip-rule="evenodd" d="M102.569 39.8177V26.2266H97.5394V30.9968H93.0892V26.2266H88.0625V39.8177H93.0892V34.6349H97.5394V39.8177H102.569Z" fill="black"/>
<path fill-rule="evenodd" clip-rule="evenodd" d="M81.2292 35.3328C81.2292 35.5623 81.2044 35.8166 80.9719 35.9965C80.817 36.1237 80.4823 36.1671 80.2282 36.1671H77.6095C77.0392 36.1671 76.6983 35.829 76.7138 35.2553C76.7417 34.7063 77.1539 34.4799 77.656 34.4799H81.2261V35.3328H81.2292ZM84.9666 27.4052C84.3809 26.8035 83.2776 26.2266 81.6135 26.2266H72.6169V29.6104H79.4379C79.9462 29.6104 80.597 29.6383 80.975 30.1439C81.2075 30.4509 81.2323 30.8107 81.2323 31.0433V31.248H75.2883C74.4856 31.248 73.6179 31.2728 72.8741 31.8404C71.7894 32.6623 71.6934 34.0953 71.6934 35.2708C71.6934 36.3501 71.7429 38.149 72.7997 39.0919C73.5187 39.7649 74.4422 39.8146 75.2883 39.8146H83.2776C84.0462 39.8146 84.948 39.7649 85.5864 39.0919C86.1939 38.453 86.2558 37.628 86.2558 36.9177V31.2263C86.2558 30.1159 86.0978 28.5 84.9635 27.4052H84.9666Z" fill="black"/>
<path fill-rule="evenodd" clip-rule="evenodd" d="M64.9406 35.1281C64.7082 35.5623 64.169 36.1671 63.0657 36.1671H60.8623V30.4385C60.8623 30.1252 61.135 29.874 61.448 29.874H63.2238C63.5275 29.874 64.5811 29.9205 65.015 31.0247C65.2195 31.552 65.2443 32.225 65.2443 32.9942C65.2443 33.8688 65.2196 34.5822 64.9406 35.1281ZM68.9136 27.6316C67.6554 26.3289 65.8889 26.2266 64.9933 26.2266H58.3861C56.9234 26.2266 55.8418 27.3866 55.8418 28.6768V44.7647H60.8654V39.8177H64.5811C65.9881 39.8177 68.0397 39.6905 69.2762 37.9443C70.3175 36.4308 70.3733 33.7851 70.3733 32.6096C70.3733 31.3069 70.2679 29.0428 68.9105 27.6316H68.9136Z" fill="black"/>
<path fill-rule="evenodd" clip-rule="evenodd" d="M111.898 49.2195C115.155 49.2195 117.684 47.4237 117.684 44.7656H114.38C114.38 45.9349 113.292 46.5894 111.898 46.5894C110.503 46.5894 109.409 45.9349 109.409 44.7656H106.103C106.103 47.4206 108.631 49.2195 111.898 49.2195ZM116.81 49.5762C115.273 49.5762 114.867 50.091 114.458 50.5997L109.543 56.7687C109.434 56.9021 109.285 57.1626 109.078 57.1626C108.87 57.1626 108.848 57.0075 108.848 56.7687L109.099 49.7281H104.082V60.9031C104.082 63.2541 105.848 63.4712 106.949 63.4712C108.049 63.4712 108.644 63.341 109.487 62.2864L114.306 56.2632C114.489 56.0554 114.606 55.8476 114.761 55.8476C114.966 55.8476 114.966 56.0554 114.966 56.2632L114.715 63.3069H119.729V52.2869C119.729 51.5922 119.683 49.5731 116.81 49.5731V49.5762Z" fill="black"/>
<path fill-rule="evenodd" clip-rule="evenodd" d="M4.99023 83.6075H2.30024V90.1674H0.416016V82.0195H4.99023V83.6075Z" fill="black"/>
<path fill-rule="evenodd" clip-rule="evenodd" d="M8.90327 82.0187C9.61296 82.0187 10.397 82.118 11.0447 82.6918C11.742 83.3028 11.8412 84.1061 11.8412 84.6706C11.8412 85.6941 11.4507 86.271 11.1408 86.5874C10.4931 87.2449 9.63775 87.3069 9.06442 87.3069H7.91157V90.1635H6.02734V82.0156H8.90017L8.90327 82.0187ZM7.91157 85.7685H8.58407C8.84129 85.7685 9.29375 85.7561 9.60056 85.4646C9.77101 85.2909 9.90737 85.0117 9.90737 84.6582C9.90737 84.3046 9.7865 84.0379 9.60056 83.8642C9.31854 83.5943 8.91257 83.5571 8.54688 83.5571H7.91157V85.7685Z" fill="black"/>
<path fill-rule="evenodd" clip-rule="evenodd" d="M14.2879 82.0195L16.0016 85.7817L17.641 82.0195H19.6709L15.9397 90.1674H13.9098L15.0936 87.8226L12.1836 82.0195H14.2879Z" fill="black"/>
<path fill-rule="evenodd" clip-rule="evenodd" d="M27.498 82.0195V90.1674H25.6138V83.6106H22.5178V90.1674H20.6367V82.0195H27.498Z" fill="black"/>
<path fill-rule="evenodd" clip-rule="evenodd" d="M36.1476 82.0195V90.1674H34.2603V83.6106H31.1674V90.1674H29.2832V82.0195H36.1476Z" fill="black"/>
<path fill-rule="evenodd" clip-rule="evenodd" d="M42.7276 88.629H39.644L39.0211 90.1674H37.0625L40.3568 82.0195H42.0799L45.2998 90.1674H43.3443L42.7307 88.629H42.7276ZM42.2131 87.1868L41.2121 84.4512L40.1956 87.1868H42.2131Z" fill="black"/>
<path fill-rule="evenodd" clip-rule="evenodd" d="M50.9487 85.4158L53.7378 82.0195H56.0373L52.7337 85.8779L56.2946 90.1674H53.8711L50.9487 86.554V90.1674H49.0645V82.0195H50.9487V85.4158Z" fill="black"/>
<path fill-rule="evenodd" clip-rule="evenodd" d="M63.9773 83.0238C64.749 83.7682 65.2479 84.8414 65.2479 86.1006C65.2479 87.1862 64.8575 88.2996 63.9773 89.1526C63.2181 89.8845 62.1923 90.3498 60.8194 90.3498C59.2916 90.3498 58.2503 89.7388 57.6398 89.1526C56.8557 88.4206 56.3691 87.3226 56.3691 86.1223C56.3691 84.922 56.896 83.7651 57.6274 83.0331C58.179 82.4842 59.1924 81.8359 60.8194 81.8359C62.0931 81.8359 63.1561 82.2267 63.9773 83.0238ZM59.0219 84.2676C58.6686 84.6118 58.2999 85.2105 58.2999 86.113C58.2999 86.8574 58.5447 87.456 59.0467 87.9429C59.5736 88.4454 60.1593 88.616 60.7946 88.616C61.6282 88.616 62.214 88.3089 62.6075 87.9181C62.9237 87.6142 63.3172 87.0404 63.3172 86.1006C63.3172 85.257 62.9732 84.6336 62.6075 84.2676C62.2047 83.8768 61.5539 83.5728 60.807 83.5728C60.0973 83.5728 59.462 83.8271 59.0219 84.2676Z" fill="black"/>
<path fill-rule="evenodd" clip-rule="evenodd" d="M66.2773 90.1674L67.5851 82.0195H69.1502L71.1801 86.8952L73.213 82.0195H74.7781L76.0859 90.1674H74.2047L73.5539 85.3072L71.5086 90.1674H70.8516L68.8062 85.3072L68.1585 90.1674H66.2773Z" fill="black"/>
<path fill-rule="evenodd" clip-rule="evenodd" d="M84.3574 82.0195V90.1674H82.4732V83.6106H79.3772V90.1674H77.4961V82.0195H84.3574Z" fill="black"/>
<path fill-rule="evenodd" clip-rule="evenodd" d="M90.9385 88.629H87.8549L87.232 90.1674H85.2734L88.5646 82.0195H90.2877L93.5076 90.1674H91.5521L90.9385 88.629ZM90.4241 87.1868L89.42 84.4512L88.4035 87.1868H90.421H90.4241Z" fill="black"/>
<path fill-rule="evenodd" clip-rule="evenodd" d="M96.3061 85.1242H99.5601V82.0195H101.444V90.1674H99.5601V86.7091H96.3061V90.1674H94.4219V82.0195H96.3061V85.1242Z" fill="black"/>
<path fill-rule="evenodd" clip-rule="evenodd" d="M105.114 82.0172V87.3426L108.894 81.918H110.556V90.1651H108.674V84.8272L104.894 90.2612H103.232V82.0172H105.114Z" fill="black"/>
<path fill-rule="evenodd" clip-rule="evenodd" d="M114.228 82.018V87.3403L118.009 81.9187H119.673V90.1658H117.789V84.828L114.008 90.262H112.344V82.018H114.228ZM118.436 79.881C118.229 80.3711 117.876 80.7495 117.507 80.979C117.017 81.2736 116.49 81.3232 116.004 81.3232C115.517 81.3232 115.003 81.2736 114.513 80.979C114.144 80.7495 113.788 80.3711 113.583 79.881L114.879 79.332C114.966 79.5553 115.127 79.7973 115.285 79.9182C115.468 80.0547 115.75 80.1291 116.032 80.1291C116.218 80.1291 116.509 80.1043 116.754 79.9182C116.94 79.7725 117.082 79.5274 117.147 79.332L118.443 79.881H118.436Z" fill="black"/>
<path fill-rule="evenodd" clip-rule="evenodd" d="M126.362 89.3764L124.918 87.4317L126.337 85.4777L125.373 84.8047L123.477 87.4317L125.373 90.0712L126.362 89.3764ZM128.909 89.3764L127.918 90.0712L126.021 87.4317L127.918 84.8047L128.884 85.4777L127.465 87.4317L128.909 89.3764Z" fill="black"/>
<path fill-rule="evenodd" clip-rule="evenodd" d="M137.055 82.0195V88.6042H137.97V92.0004H136.284V90.1674H131.279V92.0004H129.59V88.6042C130.117 88.5049 130.433 88.2258 130.507 88.1544C131.192 87.5186 131.204 86.3586 131.204 85.4685V82.0195H137.052H137.055ZM133.014 85.4034C133.014 85.9647 132.99 86.8084 132.856 87.3077C132.76 87.6644 132.562 88.1514 132.122 88.6042H135.193V83.5827H133.014V85.4034Z" fill="black"/>
<path fill-rule="evenodd" clip-rule="evenodd" d="M143.598 83.6075H140.867V85.1831H143.461V86.7742H140.867V88.5794H143.598V90.1674H138.986V82.0195H143.598V83.6075Z" fill="black"/>
<path fill-rule="evenodd" clip-rule="evenodd" d="M151.87 82.0195V90.1674H149.985V83.6106H147.773V86.4052C147.773 87.7978 147.602 88.9578 146.951 89.6184C146.61 89.9596 146.046 90.2635 145.117 90.2635C144.835 90.2635 144.59 90.2263 144.357 90.1674V88.4832C144.494 88.5328 144.652 88.5577 144.822 88.5577C145.138 88.5577 145.408 88.4491 145.566 88.2878C145.91 87.9466 145.935 87.2271 145.935 86.5789V82.0195H151.87Z" fill="black"/>
<path fill-rule="evenodd" clip-rule="evenodd" d="M160.884 83.0238C161.656 83.7682 162.155 84.8414 162.155 86.1006C162.155 87.1862 161.765 88.2996 160.884 89.1526C160.125 89.8845 159.099 90.3498 157.73 90.3498C156.202 90.3498 155.16 89.7388 154.55 89.1526C153.766 88.4206 153.279 87.3226 153.279 86.1223C153.279 84.922 153.806 83.7651 154.538 83.0331C155.089 82.4842 156.103 81.8359 157.73 81.8359C159.003 81.8359 160.066 82.2267 160.884 83.0238ZM155.929 84.2676C155.576 84.6118 155.207 85.2105 155.207 86.113C155.207 86.8574 155.452 87.456 155.954 87.9429C156.481 88.4454 157.066 88.616 157.702 88.616C158.535 88.616 159.121 88.3089 159.515 87.9181C159.831 87.6142 160.224 87.0404 160.224 86.1006C160.224 85.257 159.88 84.6336 159.515 84.2676C159.112 83.8768 158.461 83.5728 157.714 83.5728C157.004 83.5728 156.369 83.8271 155.929 84.2676Z" fill="black"/>
<path fill-rule="evenodd" clip-rule="evenodd" d="M163.001 85.4777L164.421 87.4317L162.977 89.3764L163.968 90.0712L165.862 87.4317L163.968 84.8047L163.001 85.4777ZM165.546 85.4777L166.513 84.8047L168.409 87.4286L166.513 90.0681L165.521 89.3733L166.965 87.4286L165.546 85.4746V85.4777Z" fill="black"/>
</g>
<defs>
<clipPath id="clip0_3633_89627">
<rect width="168" height="84" fill="white" transform="translate(0.40625 8)"/>
</clipPath>
</defs>
</svg>
