<svg width="174" height="100" viewBox="0 0 174 100" fill="none" xmlns="http://www.w3.org/2000/svg">
<g clip-path="url(#clip0_3633_89653)">
<path fill-rule="evenodd" clip-rule="evenodd" d="M88.5198 70.5408H98.2704L111.809 29H102.058L88.5172 70.5408H88.5198ZM141.519 70.8845H151.27L161.651 39.05H170.249L173.409 29.3437H147.791L144.63 39.05H151.903L141.522 70.8845H141.519ZM18.4793 55.3924L13.8266 50.6586C10.6973 47.4731 10.1234 43.5869 11.2918 40.0156C13.1446 34.3163 19.2179 29.4093 28.2274 29.4093H38.0784L34.9182 39.1156H23.536C21.0759 39.1156 20.2164 41.7947 23.2813 44.5237L27.8825 48.625C36.084 55.9329 28.4435 71 13.9707 71H0.40625L3.5664 61.2938H16.2739C20.6075 61.2885 21.8556 58.8246 18.4793 55.3924ZM106.577 70.8321L116.423 40.8317C118.124 36.775 120.615 33.7836 123.657 31.8077C126.544 29.9289 131.565 29.286 136.56 29.286H140.971L137.811 38.9923H132.126C128.933 38.9135 126.735 39.8765 125.404 42.9834L124.295 46.3894H135.67L132.51 56.0956H121.135L116.331 70.8321H106.58H106.577ZM52.8652 69.8769C50.3613 70.7087 45.9582 70.8977 43.4722 69.8717C39.6687 68.292 37.8391 64.112 39.2853 59.2313L47.7801 30.5613C47.9963 29.8134 48.7863 29.1968 49.5198 29.1968H57.6131L48.4492 55.5314C46.9258 59.9135 48.9665 61.6165 51.5141 61.5719C53.9357 61.5273 56.8025 59.9608 57.8216 56.7621L66.6406 29.1942H75.5884L66.4245 55.5288C64.901 59.9109 66.9392 61.6139 69.4894 61.5693C71.911 61.5247 74.7778 59.9581 75.7994 56.7595L84.6133 29.1942H91.2013C91.9398 29.1942 92.3619 29.8056 92.138 30.5587L83.6432 59.226C82.3745 63.5032 78.4114 67.2424 74.0778 69.1658C70.9434 70.5565 64.8701 71.2388 61.5299 69.9005C60.0373 69.3023 58.8406 68.2946 58.0172 67.0089C56.4551 68.2763 54.6897 69.2708 52.8626 69.8743L52.8652 69.8769Z" fill="black"/>
</g>
<defs>
<clipPath id="clip0_3633_89653">
<rect width="173" height="42" fill="white" transform="translate(0.40625 29)"/>
</clipPath>
</defs>
</svg>
