<svg width="306" height="100" viewBox="0 0 306 100" fill="none" xmlns="http://www.w3.org/2000/svg">
<g clip-path="url(#clip0_3633_89652)">
<path fill-rule="evenodd" clip-rule="evenodd" d="M53.0905 46.694C52.8491 46.9066 52.5898 47.1043 52.2977 47.3259C50.5213 48.7123 47.7106 49.8173 43.815 50.8654C35.7318 53.0604 29.8631 53.3839 23.1866 55.0309C21.8931 55.3453 20.528 55.7945 19.2702 56.3125C20.528 56.9474 21.8692 57.5343 23.2432 58.0644C25.9466 57.2828 27.2581 56.9234 31.1834 56.2527C32.6767 55.9921 37.2846 55.1806 40.6169 54.4679C46.6287 53.1742 55.4362 50.3713 53.0905 46.694ZM49.2188 39.0668C47.9431 38.4889 46.3366 37.9139 44.6406 37.4528C43.8836 38.0667 42.9984 38.6057 41.7376 39.1028C43.8567 39.4831 45.4454 40.073 47.2278 40.5911C47.5497 40.7558 48.9922 39.3873 49.2188 39.0668ZM19.762 47.1761C13.3806 49.0657 11.7115 51.4314 11.7115 51.3775C8.90381 47.4816 18.6383 44.7056 20.4833 44.1426C25.2015 42.7352 30.7036 41.6362 35.7139 41.0373C39.1654 40.633 40.9507 41.0103 44.2114 41.8967C35.8629 44.1337 27.6187 44.8523 19.762 47.1761ZM14.3463 60.5588C14.3284 61.2805 14.7606 61.9273 15.7233 62.7209C15.8425 62.3286 16.0154 62.0382 16.2986 61.6668C15.6309 61.3284 14.9782 60.9511 14.3463 60.5618V60.5588ZM18.0332 60.1905C17.1242 59.7114 16.2389 59.1993 15.3507 58.6842C15.7233 58.3219 16.1972 57.9715 16.7188 57.6421C17.8842 58.1812 19.0287 58.6932 20.1465 59.1574C19.3298 59.4838 18.6204 59.8371 18.0332 60.1905ZM48.2262 43.3431C48.3127 43.2263 50.876 44.478 51.1531 44.7865C50.253 45.4932 49.0429 46.1011 47.7434 46.5742C43.7524 48.0176 36.5604 49.5388 32.7244 50.1407C28.8675 50.7576 25.6724 51.2607 21.3774 52.4136C18.9155 53.0754 17.2702 53.8181 16.0452 54.6086C15.1302 54.0966 14.6205 53.9289 13.8009 53.2641C16.7486 50.7367 22.7306 49.3083 24.9511 48.8231C31.9405 47.2869 38.447 46.3466 41.1117 45.6759C44.3634 44.8464 46.6406 44.0768 48.2262 43.3401V43.3431ZM50.5451 41.9057C51.326 42.292 52.0294 42.5825 52.712 43.0676C53.2067 42.1243 52.9027 41.5044 51.8774 40.633C51.487 41.1061 51.0309 41.5224 50.5481 41.9057H50.5451ZM13.9648 56.2257C13.2703 55.8334 12.7904 55.5579 12.2033 55.1477C11.8844 55.8364 12.4805 56.6 13.1123 56.9684C13.3806 56.6958 13.6906 56.4772 13.9648 56.2257ZM47.3947 34.3384C47.2605 34.8804 46.6853 35.5003 46.2889 35.9256C47.4751 36.237 48.6614 36.6772 49.803 37.1114C49.6688 36.0543 48.4438 35.0272 47.3947 34.3384ZM10.4358 41.0912C18.6681 35.6441 27.7677 32.4698 43.1951 35.1559C44.0475 34.6589 44.5155 34.1917 44.733 33.1676C40.8792 31.7691 36.7094 31.275 31.3027 31.3648C26.4473 31.5026 17.7113 33.3203 13.0468 36.1052L14.4685 34.3145C17.7322 32.389 26.2357 29.8166 32.6052 29.6909C37.1028 29.607 39.4396 29.8616 44.7777 31.3139C44.3128 30.3886 43.198 29.9274 41.5885 29.1938C36.4143 26.852 26.7514 26.6364 18.838 30.152C19.8424 29.4932 20.8201 28.8734 22.1017 28.2804C24.7097 27.0796 28.9778 25.9087 34.3249 26.0016C38.5901 26.0704 43.6541 27.5767 46.7598 30.6821C47.2754 31.299 47.5735 31.9488 47.7046 32.4728C50.1636 33.7245 51.5853 34.9014 52.3901 36.2939C52.715 36.9946 52.858 37.7822 52.706 38.6536C53.7283 39.2735 54.2142 39.7825 54.7149 40.4713C55.0845 41.0343 55.3527 41.6781 55.4183 42.268C55.5256 43.0496 55.6091 43.918 54.8043 44.9422C55.6508 45.3524 56.3065 46.5293 56.4108 47.0474C56.7983 48.919 55.612 50.7367 54.0353 52.1531C52.2291 53.7552 48.2441 55.6537 44.9983 56.4862C38.5484 58.1272 32.8526 58.822 28.3221 59.6605C30.3399 60.1486 33.1089 60.8134 37.6244 60.8134C47.2397 60.8134 55.7492 56.2197 55.7492 56.2197C55.7492 56.2197 55.5554 56.8246 55.3676 57.3517C49.2635 61.0799 39.526 62.655 35.386 62.4634C31.1656 62.2687 27.6247 61.6339 24.1523 60.5588C23.0853 60.8403 22.0361 61.1787 21.0287 61.6309C26.3132 64.0595 30.2982 64.6015 34.8227 64.9309C39.4247 65.2753 47.0489 64.1553 53.4929 61.8016C53.1978 62.095 53.0488 62.5712 52.7477 62.8467C49.4542 64.5865 42.4797 66.3443 38.9806 66.4911C35.5023 66.6348 31.2401 66.506 27.5561 65.7993C24.3639 65.1735 21.7768 64.1553 19.0615 62.9605C18.5608 63.3198 18.3164 63.8049 18.23 64.329C28.8228 69.9198 38.76 70.0396 50.0474 66.5001L49.0131 67.5062C36.5812 72.588 26.8587 70.6146 19.3357 66.9522C19.0913 66.8444 18.7903 66.7216 18.5727 66.5779C19.2642 67.8027 25.0167 72.037 31.4338 72.57C35.8659 72.9384 41.2726 72.1718 44.4767 70.8781L42.6019 71.8693C41.0431 72.6359 36.9329 74.3787 31.1685 73.9984C23.5055 73.4774 19.1867 70.0576 17.2523 68.2609C16.3552 67.4254 15.932 66.4491 15.6607 65.2633C13.926 64.344 12.8352 63.4007 11.935 61.9753C11.4015 61.1398 11.5058 60.2085 11.6459 59.4179C11.6847 59.1723 11.7502 58.9388 11.8426 58.7172C11.0111 58.1063 10.1705 57.4565 9.80691 56.7977C9.04985 55.4202 9.5178 54.2343 10.0424 53.315C9.58039 52.7969 9.1661 52.2669 8.97534 51.7428C8.77266 51.099 8.7369 50.5031 8.79055 49.8293C8.93361 48.6674 9.54761 47.6073 10.3375 46.688C12.0155 44.7386 14.6473 43.2203 19.1658 41.714C23.5771 40.2437 25.3565 40.0221 28.6857 39.2405C32.5724 38.3302 37.228 38.0397 41.1236 36.6652C30.2714 34.7397 18.9989 36.4885 9.81287 42.8759L10.4358 41.0942V41.0912ZM1.518 50.006C1.518 32.6944 15.464 18.617 32.6022 18.617C49.7404 18.617 63.6894 32.6914 63.6894 50.006C63.6894 67.3206 49.7493 81.38 32.6022 81.38C15.4551 81.38 1.518 67.3056 1.518 50.006ZM0.40625 50.006C0.40625 32.0775 14.85 17.5 32.6022 17.5C50.3544 17.5 64.8041 32.0775 64.8041 50.006C64.8041 67.9344 50.3573 82.503 32.6022 82.503C14.847 82.503 0.40625 67.9255 0.40625 50.006Z" fill="black"/>
<path fill-rule="evenodd" clip-rule="evenodd" d="M199.159 35.7513H204.714L209.617 42.4501L214.553 35.7513H220.094V64.1996H213.561V46.8401L209.617 51.8231L205.698 46.8401V64.2056L199.159 64.1996V35.7513ZM82.9707 35.7513L96.3772 35.7423L96.3862 42.8454H89.6293V64.2056L82.9707 64.1996V35.7513ZM185.651 57.6625C183.353 57.6625 182.158 54.9464 182.158 49.9335C182.158 44.9206 183.353 42.2076 185.651 42.2076C187.949 42.2076 189.144 44.9176 189.144 49.9335C189.144 54.9494 187.958 57.6625 185.651 57.6625ZM185.651 64.541C193.403 64.541 196.02 57.2343 196.02 49.9335C196.02 42.6328 193.4 35.332 185.651 35.332C177.901 35.332 175.284 42.6328 175.284 49.9335C175.284 57.2343 177.898 64.541 185.651 64.541ZM162.876 42.0099H164.429C165.917 42.0099 166.843 42.9023 166.843 45.262C166.843 48.3434 165.276 48.556 164.429 48.556H162.876V42.0099ZM156.331 64.1906L162.876 64.1966V54.8147H165.07C171.553 54.8147 173.541 48.9393 173.541 45.2141C173.541 41.4889 171.261 35.7423 165.07 35.7513L156.331 35.7423V64.1906ZM134.755 35.7423H152.596V64.1906H146.06V42.5938H141.291V64.1966L134.755 64.1906V35.7423ZM121.327 47.0827C122.383 47.0827 124.338 46.394 124.338 44.3008C124.338 41.8213 122.087 41.6536 121.459 41.6536C120.707 41.6536 119.28 41.7763 117.852 42.4561L117.804 36.3023C120.022 35.7273 121.62 35.5566 123.512 35.5656C128.853 35.5656 131.265 39.3507 131.265 43.0281C131.265 46.7054 129.193 48.8136 127.217 49.649V49.9275C129.11 50.5294 131.691 52.3921 131.691 56.7521C131.691 62.1124 127.977 65.08 123.235 65.08C120.678 65.074 119.029 64.7027 117.047 63.6007L117.158 57.6924C119.003 58.495 120.245 58.5549 121.494 58.5549C123.596 58.5549 124.436 57.0067 124.436 55.8448C124.436 54.2457 123.432 53.1766 121.202 53.1766H118.532V47.0827H121.324H121.327ZM105.352 44.3337L106.589 53.0149H104.115L105.352 44.3337ZM95.6261 64.1906H102.267L103.075 59.2736H107.641L108.443 64.1906H115.08L109.477 35.7423H101.239L95.6291 64.1906H95.6261Z" fill="black"/>
<path fill-rule="evenodd" clip-rule="evenodd" d="M252.097 44.3845L253.334 53.0627H250.86L252.097 44.3845ZM242.374 64.2444H249.012L249.814 59.3244H254.38L255.188 64.2444H261.822L256.216 35.7931H247.975L242.374 64.2444ZM286.299 35.7422H292.701L292.689 45.9836H294.078L297.753 35.7422H304.707L299.714 49.2477L305.41 64.1935H297.884L294.209 52.7543H292.689L292.701 64.1935H286.299V35.7422ZM264.63 35.7422H271.032V45.9866H275.602V35.7422H281.995V64.1905H275.602V52.8142H271.032V64.1905H264.63V35.7422ZM230.911 58.4979V52.0266H231.862C232.628 52.0266 234.693 52.0685 234.693 54.9912C234.693 57.9139 232.628 58.4979 231.862 58.4979H230.911ZM224.503 64.1905H232.315C234.008 64.1905 241.075 63.4838 241.093 54.8775C241.099 47.6007 235.612 46.3399 232.065 46.3399H230.908V42.5758H239.561V35.7422H224.5V64.1905H224.503Z" fill="black"/>
</g>
<defs>
<clipPath id="clip0_3633_89652">
<rect width="305" height="65" fill="white" transform="translate(0.40625 17.5)"/>
</clipPath>
</defs>
</svg>
