<svg width="226" height="100" viewBox="0 0 226 100" fill="none" xmlns="http://www.w3.org/2000/svg">
<path fill-rule="evenodd" clip-rule="evenodd" d="M28.9332 71.0377V43.0785L0.40625 43.0616V29.1328H43.4071V71.0377H28.9332Z" fill="#231F20"/>
<path fill-rule="evenodd" clip-rule="evenodd" d="M11.4958 60.1009V49.168H0.40625V71.0367H22.5824V60.1009H11.4958Z" fill="#231F20"/>
<path fill-rule="evenodd" clip-rule="evenodd" d="M114.993 28.9609L99.4338 64.0582V28.9609H85.0487V43.8667H71.7602V28.9609H57.375V71.0352H71.7602V55.5281H85.0487V71.0352H110.97L113.833 63.7024H130.045L132.911 71.0352H147.783L129.132 28.9609H114.99H114.993ZM117.796 53.4838L121.942 42.9038L126.088 53.4838H117.799H117.796Z" fill="#231F20"/>
<path fill-rule="evenodd" clip-rule="evenodd" d="M225.408 28.9628H211.014L200.13 44.6507H195.741V28.9628H181.356V33.698C180.07 32.6081 178.647 31.6424 177.061 30.8264C173.405 28.9431 169.279 28 164.689 28C160.099 28 155.973 28.9431 152.316 30.8264C148.66 32.7097 145.794 35.3244 143.721 38.6703C141.648 42.0163 140.611 45.7943 140.611 50.0014C140.611 54.2086 141.648 57.9865 143.721 61.3325C145.794 64.6784 148.657 67.2931 152.316 69.1764C155.973 71.0597 160.099 72 164.689 72C169.279 72 173.405 71.0569 177.061 69.1764C178.644 68.3604 180.067 67.3975 181.356 66.3048V71.0372H195.741V55.8293H199.764L209.734 71.0372H225.347L211.349 49.4L225.408 28.9628ZM171.563 57.5658C170.968 58.2181 170.295 58.7715 169.536 59.2233C168.093 60.0845 166.478 60.5165 164.692 60.5165C162.905 60.5165 161.287 60.0873 159.847 59.2233C158.404 58.3621 157.256 57.1394 156.402 55.5582C155.549 53.9742 155.122 52.1219 155.122 49.9986C155.122 47.8752 155.549 46.023 156.402 44.4389C157.256 42.8577 158.404 41.6351 159.847 40.7711C161.29 39.9099 162.905 39.4779 164.692 39.4779C166.478 39.4779 168.093 39.9099 169.536 40.7711C170.292 41.2229 170.968 41.7791 171.563 42.4314L181.359 33.9239V66.0733L171.563 57.5658Z" fill="#231F20"/>
</svg>
