<svg width="138" height="100" viewBox="0 0 138 100" fill="none" xmlns="http://www.w3.org/2000/svg">
<g clip-path="url(#clip0_3633_89650)">
<path fill-rule="evenodd" clip-rule="evenodd" d="M41.0078 37.0412C41.0078 52.7456 53.4982 65.4769 68.9055 65.4769C84.3127 65.4769 96.8031 52.7473 96.8031 37.0412C96.8031 21.3351 84.3127 8.60547 68.9055 8.60547C53.4982 8.60547 41.0078 21.3351 41.0078 37.0412Z" fill="white"/>
<path d="M96.0944 34.4852C94.7094 19.1807 81.4148 7.91825 66.3998 9.3299C51.3849 10.7416 40.3356 24.2928 41.7205 39.5973C43.1055 54.9019 56.4003 66.1641 71.4152 64.7525C86.4301 63.3408 97.4793 49.7897 96.0944 34.4852ZM97.2799 34.3738C98.7252 50.3456 87.1942 64.4876 71.5246 65.9608C55.8549 67.4341 41.9804 55.6807 40.535 39.7088C39.0897 23.7369 50.6208 9.59477 66.2905 8.12153C81.9602 6.64832 95.8345 18.4019 97.2799 34.3738Z" fill="black"/>
<path fill-rule="evenodd" clip-rule="evenodd" d="M65.5644 46.3621C64.1256 45.407 63.0473 45.8126 62.9282 45.8611C62.6442 45.9808 63.066 47.0348 63.3517 46.9152C63.3585 46.9117 63.8041 46.6378 65.0882 47.3659C65.3399 47.5098 65.8229 46.5338 65.5644 46.3621Z" fill="black"/>
<path fill-rule="evenodd" clip-rule="evenodd" d="M74.7536 45.7882C73.1464 45.5767 72.3844 46.3083 72.3028 46.3932C72.0851 46.6151 72.5545 47.3692 72.6974 47.3692C72.978 47.3692 73.5103 46.5787 74.6107 46.9185C74.905 47.0086 75.0614 45.8281 74.7536 45.7882Z" fill="black"/>
<path fill-rule="evenodd" clip-rule="evenodd" d="M58.4693 36.0043C58.6666 35.9436 59.7721 35.5882 59.7619 36.2158C59.7619 36.4048 59.5986 36.5261 59.3078 36.5296C59.8725 37.6945 61.478 37.2663 61.5307 36.195C61.5307 36.1898 62.0834 36.3874 62.1583 36.3874C62.3743 36.3874 62.6634 35.4218 62.3811 35.2953C59.9779 34.2361 58.1564 34.9052 58.0815 34.9347C57.7924 35.0439 58.1734 36.0927 58.4676 36.0026" fill="black"/>
<path fill-rule="evenodd" clip-rule="evenodd" d="M66.9987 36.6844C67.2317 36.577 67.8593 36.2146 68.0804 36.6168C68.1705 36.7815 68.0855 37.0312 67.7147 37.1178C68.645 38.2863 70.1451 37.1785 69.8186 36.2493C70.0516 36.2771 70.2931 36.3204 70.5482 36.3828C70.8475 36.4556 71.1095 35.3479 70.8084 35.2751C68.2658 34.6527 66.7402 35.5594 66.5344 35.6668C66.2589 35.809 66.7521 36.7989 67.0004 36.6844" fill="black"/>
<path fill-rule="evenodd" clip-rule="evenodd" d="M75.8784 36.3856C76.273 36.3405 77.0723 35.7407 77.2067 36.3786C77.2526 36.5988 77.0281 36.7635 76.8121 36.7687C77.7577 37.9458 79.2408 36.8294 78.9176 35.9037C79.1881 35.9539 79.4738 35.999 79.632 36.0319C79.9313 36.0978 80.1898 34.997 79.8905 34.9242C77.3461 34.3036 75.6658 35.283 75.5944 35.3246C75.329 35.4841 75.6879 36.4081 75.8784 36.3856Z" fill="black"/>
<path fill-rule="evenodd" clip-rule="evenodd" d="M62.2646 39.3654C62.1643 39.8785 61.9942 42.4477 64.843 42.5187C67.2614 42.5794 67.6322 40.539 67.4179 39.355C67.3669 39.0724 66.2189 39.2856 66.2631 39.511C66.4553 40.5078 66.309 41.4214 64.8957 41.4093C63.5181 41.3971 63.2408 40.4749 63.4483 39.5283C63.5385 39.1227 62.3513 38.9285 62.2663 39.3654" fill="black"/>
<path fill-rule="evenodd" clip-rule="evenodd" d="M69.4373 42.8275C64.8877 44.8419 60.3994 42.7391 59.1851 41.8446C58.9351 41.6591 58.2752 42.5918 58.5303 42.7669C62.4029 45.4053 67.2535 45.095 69.6227 43.9994C69.7298 43.9491 69.7196 42.7044 69.4356 42.8293" fill="black"/>
<path fill-rule="evenodd" clip-rule="evenodd" d="M83.0415 34.0312C82.4972 33.9151 81.9513 34.0694 81.5125 34.4716C81.2846 34.683 82.0346 35.5256 82.2625 35.3158C82.4513 35.1407 82.7149 35.0523 83.0602 35.2135C83.7779 35.5464 85.2236 39.3897 82.7149 39.8335C82.7149 38.8731 82.6486 37.8659 82.5091 36.8084C82.4666 36.4964 81.3526 36.6489 81.4019 36.9592C82.9224 46.5493 77.3694 51.4328 70.3878 49.1531C70.3793 48.6383 70.3742 48.2309 70.3674 48.1997C70.9422 47.6224 71.6991 46.0552 72.0426 44.9302C74.8659 44.9423 77.0548 44.2367 78.9579 42.8915C79.0719 42.81 78.8797 41.5393 78.6331 41.7283C76.8048 43.1186 74.6856 43.8103 72.3318 43.7981C72.4474 43.2607 72.529 42.7251 72.5852 42.2067C74.4679 42.6973 76.5973 41.8826 76.1976 38.9528C76.1347 38.4969 74.8846 38.8644 74.9611 39.1158C75.4101 40.5581 74.4305 41.7092 72.677 41.0331C72.7638 39.1591 72.5716 37.6162 72.5137 37.2123C73.5767 30.4999 72.8284 24.5868 70.1633 22.3175C73.7179 23.3733 74.6057 29.0281 74.2791 33.2182C74.2553 33.532 75.3948 33.5372 75.3965 33.2234C75.3965 33.0587 75.4237 32.1052 75.4374 31.5834C76.5939 32.0064 81.1672 33.2164 83.0381 34.033M57.2817 49.2433C57.2511 48.9624 57.1609 48.0471 57.0912 47.475C60.0897 51.8124 66.1767 51.783 69.2772 49.2936C69.2874 49.9662 69.3095 50.9023 69.3469 51.861C66.5492 55.4755 57.7409 53.286 57.2817 49.2415V49.2433ZM54.6047 35.3002C53.7169 35.8965 53.2628 39.0846 55.0282 39.8317C55.0486 38.8332 55.1557 37.8069 55.3598 36.772C55.4194 36.4652 56.5061 36.6853 56.4551 36.9956C54.6574 48.061 61.6356 49.8483 63.9402 49.8483C66.3978 49.8483 72.7008 49.1115 71.3997 37.2106C72.0579 34.7125 72.5835 25.171 68.9949 22.7838C71.1242 26.1435 70.5919 31.5384 70.5119 33.0379C70.4983 33.3413 69.3809 33.2945 69.3962 32.979C69.4081 32.7709 70.1599 27.0103 68.3707 23.9765C68.5952 27.5945 68.4302 28.6901 68.0118 32.8091C67.9812 33.1003 66.8604 32.9911 66.9029 32.6808C67.1801 30.6005 67.2397 29.6332 67.3145 28.5636C64.9572 31.6389 56.5946 33.005 54.8241 34.0122C55.2425 33.9549 55.7578 34.0364 56.3531 34.4386C56.6116 34.612 55.9959 35.562 55.7408 35.3903C55.1404 34.9882 54.8156 35.1615 54.6047 35.3019V35.3002ZM89.4108 30.7635C83.7201 26.1175 73.9016 24.0528 73.8846 24.0511C73.6209 23.6038 73.2077 22.9797 72.808 22.6469C76.5735 22.3383 84.5381 25.691 88.2407 28.2792C88.336 28.3469 89.1285 27.5165 88.8717 27.3414C83.2762 23.4911 74.7979 20.7174 71.6259 21.6952C71.4712 21.5981 71.3113 21.5045 71.148 21.4195C74.354 19.2144 81.1145 20.9081 86.1828 24.3389C86.2797 24.4047 87.0587 23.5778 86.807 23.3958C81.407 19.4779 72.7365 17.7704 70.0391 20.9567C69.3129 20.7192 68.3979 20.5579 67.3553 20.5233C66.2753 19.4623 60.1747 17.4913 51.0093 23.3958C50.7474 23.5639 51.5382 24.4082 51.6335 24.3389C57.195 20.3239 65.7039 19.0983 67.1495 22.0609C64.8858 20.6308 57.1524 22.0609 48.9411 27.3431C48.6809 27.5095 49.4786 28.3503 49.5738 28.281C54.1319 25.0115 64.4997 21.026 66.976 23.2987C66.391 23.6541 55.5826 25.112 48.402 30.7652C48.1588 30.9576 48.9854 31.7464 49.0857 31.6666C55.3071 26.641 66.7907 24.5295 67.2822 24.3943C65.7175 27.8701 56.1932 27.6084 49.3799 33.0899C49.1367 33.2841 49.965 34.0694 50.067 33.9862C55.8803 29.3749 64.345 28.7907 67.3757 26.1227C65.9199 31.6528 54.3768 31.2107 51.1079 35.028C50.9055 35.2655 51.8154 35.9243 51.926 35.8029C52.4192 35.2638 53.0978 34.8148 53.8955 34.423C52.142 35.7527 52.1981 40.5026 55.0503 41.0158C55.1166 42.2674 55.3275 43.4618 55.6762 44.5609C55.666 44.6164 55.9279 47.3797 56.1677 48.9884C55.2816 49.5779 53.2305 50.904 53.2084 50.9179C52.9481 51.0861 53.7135 51.939 53.807 51.88C53.8853 51.8298 55.3564 50.8763 56.3361 50.2349C57.6576 54.3382 65.9369 56.3232 69.432 53.3934C69.4473 53.6188 69.4643 53.8372 69.483 54.0453C69.5102 54.3417 70.6259 54.255 70.5953 53.9412C70.5017 52.8786 70.449 51.5073 70.4201 50.3822C74.9305 51.7552 79.077 49.668 80.4444 47.5739C80.2063 50.1725 78.1909 52.8508 73.2179 52.8335C72.91 52.8335 72.8165 53.9586 73.1243 53.9673C77.9239 54.1129 80.0481 51.7344 80.8747 50.1603L83.2711 51.6339C83.3612 51.6911 84.113 50.8226 83.8476 50.6596L81.2693 49.0734C81.8935 45.6669 82.1333 44.3234 82.1316 44.2957C82.4292 43.2954 82.6146 42.1981 82.6877 41.0123C86.659 40.3587 85.1504 35.1494 83.7354 34.3346C84.5841 34.6154 85.3137 35.2707 85.8937 35.8029C86.1743 36.0612 86.9107 35.269 86.7134 35.028C84.7014 32.601 77.4085 31.3009 75.434 30.3665C75.4152 29.7701 75.371 29.1235 75.2843 28.4578C76.2775 28.8201 83.2983 30.4705 87.7526 33.9862C87.8563 34.0659 88.671 33.2979 88.4397 33.0899C84.6997 29.6973 75.8847 27.5806 75.0666 27.1871C74.9356 26.5786 74.7621 25.9684 74.5325 25.379C78.9851 26.5162 84.4208 28.274 88.7339 31.6666C88.836 31.7464 89.6574 30.9611 89.4159 30.7652L89.4108 30.7635Z" fill="black"/>
<path fill-rule="evenodd" clip-rule="evenodd" d="M93.1708 91.9017C91.9174 91.9017 91.4395 90.8893 91.4395 90.1785V76.3377C91.4395 75.828 91.6197 75.3929 91.9616 75.0774C92.249 74.7602 92.6742 74.5781 93.1691 74.5781H100.29C101.397 74.5781 101.95 75.464 101.977 76.3377C102.008 77.4004 101.168 78.0886 100.29 78.0973H94.8988V80.0285H99.3514C100.459 80.0285 101.035 80.9143 101.035 81.788C101.035 82.712 100.351 83.5476 99.3514 83.5476H94.8988V88.3791H101.459C102.569 88.3791 103.146 89.2649 103.146 90.1404C103.146 91.0141 102.568 91.8999 101.459 91.8999H93.1691L93.1708 91.9017Z" fill="black"/>
<path fill-rule="evenodd" clip-rule="evenodd" d="M128.931 87.0303C129.496 84.2133 125.803 83.4228 124.303 83.2893V88.4016C124.982 88.4172 128.571 88.8159 128.931 87.0303ZM122.572 91.8947C121.392 91.8583 120.824 90.9343 120.842 90.1352V76.2944C120.842 75.1675 121.713 74.5781 122.572 74.5781C123.431 74.5781 124.302 75.1675 124.302 76.2944V79.7528C127.565 79.9626 133.401 82.2492 132.197 88.0011C131.222 92.6575 125.545 91.9866 122.572 91.8947Z" fill="black"/>
<path fill-rule="evenodd" clip-rule="evenodd" d="M135.677 91.9017C134.818 91.9017 133.949 91.3123 133.949 90.1872V76.2926C133.949 75.1658 134.818 74.5781 135.677 74.5781C136.536 74.5781 137.407 75.1675 137.407 76.2926V90.1872C137.407 91.314 136.539 91.9017 135.677 91.9017Z" fill="black"/>
<path fill-rule="evenodd" clip-rule="evenodd" d="M11.3303 91.9217C10.553 91.9217 9.97815 91.3999 9.8591 90.5938C9.42541 87.6034 7.59368 83.9265 3.8622 83.11V90.1898C3.8622 91.3167 2.99481 91.9061 2.13593 91.9061C1.27704 91.9061 0.40625 91.3167 0.40625 90.1898V76.349C0.40625 75.2222 1.27364 74.6328 2.13593 74.6328C2.99822 74.6328 3.8622 75.2222 3.8622 76.349V79.544C4.2925 79.6099 4.72449 79.7052 5.14628 79.8283C6.56472 78.8488 7.626 77.4481 8.14133 75.8636C8.38624 75.113 9.02062 74.6467 9.79787 74.6467C10.3948 74.6467 10.9595 74.9258 11.2809 75.3765C11.5752 75.7891 11.6381 76.3074 11.468 76.8379C10.8847 78.6252 9.87951 80.2426 8.53931 81.5445C11.0343 83.4428 12.73 86.4072 13.2164 89.7547C13.2963 90.2991 13.1484 90.8226 12.8031 91.23C12.4341 91.6634 11.883 91.9234 11.3303 91.9234V91.9217Z" fill="black"/>
<path fill-rule="evenodd" clip-rule="evenodd" d="M63.3012 79.7558C64.5138 79.8096 65.8013 80.0228 66.9816 80.3695C69.3321 78.0032 65.8387 77.5559 63.3012 77.887V79.7558ZM63.3012 88.408C64.4441 88.5207 68.6262 88.7704 69.2096 87.2778C70.4512 84.1209 65.2519 83.249 63.3012 83.2784V88.4063V88.408ZM61.5715 91.9047C61.0766 91.8856 60.648 91.7226 60.3367 91.3777C60.0221 91.0864 59.8418 90.6513 59.8418 90.1451V76.3043C59.8418 75.4687 60.3367 74.8308 61.1361 74.6401C66.8915 73.7005 69.8474 75.044 70.776 77.2161C71.424 78.7347 71.2097 80.3695 70.208 81.8482C72.5125 83.424 73.2795 85.5875 72.5669 88.1706C71.3373 92.6241 64.7876 92.0277 61.5715 91.9047Z" fill="black"/>
<path fill-rule="evenodd" clip-rule="evenodd" d="M108.766 79.7558C109.979 79.8096 111.266 80.0228 112.446 80.3695C114.797 78.0032 111.304 77.5559 108.766 77.887V79.7558ZM108.766 88.408C109.909 88.5207 114.088 88.7704 114.674 87.2778C115.916 84.1209 110.717 83.249 108.766 83.2784V88.4063V88.408ZM107.036 91.9047C106.541 91.8856 106.113 91.7226 105.802 91.3777C105.487 91.0864 105.307 90.6513 105.307 90.1451V76.3043C105.307 75.4687 105.802 74.8308 106.599 74.6401C112.355 73.7005 115.311 75.044 116.241 77.2161C116.889 78.7347 116.675 80.3695 115.673 81.8482C117.977 83.424 118.744 85.5875 118.033 88.1706C116.806 92.6241 110.254 92.0277 107.038 91.9047H107.036Z" fill="black"/>
<path fill-rule="evenodd" clip-rule="evenodd" d="M24.5786 85.0211C23.9272 82.5299 22.9306 77.5442 22.3319 77.5442C21.7332 77.5442 20.6838 82.653 20.0665 85.0211H24.5786ZM16.9303 91.9051C16.335 91.9051 15.7618 91.6225 15.4353 91.17C15.1394 90.7574 15.0645 90.2391 15.2329 89.7104C15.7652 88.0063 17.7364 80.389 18.4184 78.3624C18.9695 76.7173 19.9406 74.5312 22.3302 74.5312C24.7198 74.5312 25.7657 76.8629 26.2947 78.5583C26.8661 80.389 28.8339 87.8242 29.4122 89.6618C29.5771 90.1923 29.504 90.7106 29.2081 91.1232C28.8849 91.5757 28.3101 91.8583 27.7165 91.8583C26.9308 91.8583 26.3049 91.3833 26.0804 90.6205C25.8933 89.9843 25.7011 89.2804 25.5021 88.5437H19.1447C18.9423 89.3099 18.745 90.0311 18.5613 90.6673C18.3385 91.4318 17.7143 91.9068 16.9286 91.9068L16.9303 91.9051Z" fill="black"/>
<path fill-rule="evenodd" clip-rule="evenodd" d="M52.7891 85.0189C52.1377 82.5278 51.1377 77.542 50.539 77.542C49.9403 77.542 48.8944 82.6491 48.277 85.0189H52.7891ZM45.1391 91.9029C44.5421 91.9029 43.9707 91.622 43.6475 91.1679C43.3482 90.7553 43.2767 90.2369 43.4434 89.7065C43.9792 88.0024 45.9503 80.3851 46.6272 78.3585C47.1783 76.7134 48.1494 74.5273 50.5407 74.5273C52.932 74.5273 53.9797 76.859 54.5086 78.5544C55.08 80.3851 57.0478 87.8203 57.6244 89.6579C57.7894 90.1884 57.7196 90.7067 57.422 91.1193C57.0955 91.5718 56.524 91.8543 55.927 91.8543C55.1413 91.8543 54.5171 91.3793 54.2943 90.6166C54.1072 89.9804 53.9116 89.2765 53.716 88.538H47.3586C47.1528 89.3043 46.9572 90.0254 46.7735 90.6616C46.5507 91.4262 45.9248 91.9012 45.1391 91.9012V91.9029Z" fill="black"/>
<path fill-rule="evenodd" clip-rule="evenodd" d="M84.0922 85.0189C83.4408 82.5278 82.4408 77.542 81.8421 77.542C81.2434 77.542 80.1975 82.6491 79.5801 85.0189H84.0922ZM76.4405 91.9029C75.8452 91.9029 75.272 91.622 74.9455 91.1679C74.6496 90.7553 74.5781 90.2369 74.7431 89.7065C75.2788 88.0024 77.25 80.3851 77.9286 78.3585C78.478 76.7134 79.4508 74.5273 81.8404 74.5273C84.23 74.5273 85.2776 76.859 85.8083 78.5544C86.3797 80.3851 88.3458 87.8203 88.9224 89.6579C89.0874 90.1884 89.0176 90.7067 88.7183 91.1193C88.3934 91.5718 87.822 91.8543 87.2267 91.8543C86.441 91.8543 85.8168 91.3793 85.594 90.6166C85.4086 89.9804 85.2113 89.2765 85.014 88.538H78.66C78.4559 89.3043 78.2603 90.0254 78.0766 90.6616C77.8538 91.4262 77.2262 91.9012 76.4422 91.9012L76.4405 91.9029Z" fill="black"/>
<path fill-rule="evenodd" clip-rule="evenodd" d="M35.2381 82.8938C36.5954 82.5938 39.7197 81.6855 39.4135 79.2723C39.2332 77.8751 36.512 77.9097 35.2381 78.1004V82.8938ZM33.5068 91.9031C32.6479 91.9031 31.7754 91.3137 31.7754 90.1886V76.3461C31.7754 75.8485 31.9506 75.4169 32.2839 75.1014C32.5713 74.772 33.0016 74.5865 33.5068 74.5865C37.6277 74.3923 42.2266 74.5588 42.7317 78.5633C43.4018 83.8715 37.6192 86.2222 35.2381 86.4944V90.1886C35.2381 91.3154 34.3674 91.9031 33.5085 91.9031H33.5068Z" fill="black"/>
</g>
<defs>
<clipPath id="clip0_3633_89650">
<rect width="137" height="84" fill="white" transform="translate(0.40625 8)"/>
</clipPath>
</defs>
</svg>
