<svg width="175" height="100" viewBox="0 0 175 100" fill="none" xmlns="http://www.w3.org/2000/svg">
<g clip-path="url(#clip0_3633_89649)">
<path d="M174.406 15H0.40625V85H174.406V15Z" fill="black"/>
<path fill-rule="evenodd" clip-rule="evenodd" d="M77.1738 38.8633L87.8748 57.7086C89.2973 60.2133 91.6419 61.7598 95.6157 61.7598H96.4117C100.385 61.7598 102.73 60.2133 104.153 57.7086L114.854 38.8633H106.343L97.323 54.7489C97.0338 55.2586 96.5248 55.5123 96.0159 55.5123C95.5069 55.5123 94.998 55.2586 94.7087 54.7489L85.689 38.8633H77.1782H77.1738Z" fill="white"/>
<path fill-rule="evenodd" clip-rule="evenodd" d="M32.3191 53.9812V38.4609H23.8301V55.5344C23.8301 58.9622 26.5945 61.7425 30.0027 61.7425H48.8469L52.3791 55.5344H33.8612C33.0086 55.5344 32.3169 54.8387 32.3169 53.9812H32.3191Z" fill="white"/>
<path fill-rule="evenodd" clip-rule="evenodd" d="M123.452 44.9839H136.382C137.222 44.9839 137.902 45.6686 137.902 46.5152C137.902 47.3617 137.222 48.0442 136.382 48.0442H123.452V44.9839ZM137.082 61.8145H145.661L137.35 53.3992H138.666C142.026 53.3992 144.751 50.6583 144.751 47.2786V44.9839C144.751 41.6042 142.026 38.8633 138.666 38.8633H115.846V61.8145H123.452V53.3992H127.858C128.443 53.3992 129.004 53.6333 129.416 54.0511L137.082 61.8145Z" fill="white"/>
<path fill-rule="evenodd" clip-rule="evenodd" d="M64.6522 51.9469L68.0692 45.9291C68.3563 45.4216 68.863 45.1678 69.372 45.1678C69.8809 45.1678 70.3855 45.4216 70.6748 45.9291L74.0917 51.9469H64.6544H64.6522ZM79.651 61.7425H88.1205L77.4695 42.9847C76.0536 40.4909 73.722 38.9531 69.7657 38.9531H68.974C65.0176 38.9531 62.686 40.4909 61.2701 42.9847L50.6191 61.7425H59.0908L61.6573 57.2231H77.0845L79.651 61.7425Z" fill="white"/>
<path fill-rule="evenodd" clip-rule="evenodd" d="M147.253 40.985H147.566C147.973 40.985 148.177 40.8625 148.177 40.6153C148.177 40.3681 147.973 40.2478 147.566 40.2478H147.253V40.985ZM146.587 39.7294H147.592C148.425 39.7294 148.84 40.0072 148.84 40.5606C148.84 40.8887 148.669 41.1119 148.325 41.23C148.505 41.3022 148.627 41.4006 148.69 41.5253C148.753 41.6478 148.79 41.8644 148.799 42.1728C148.799 42.3194 148.821 42.4463 148.866 42.5556H148.214C148.179 42.4834 148.155 42.35 148.147 42.1597C148.138 41.8863 148.094 41.7091 148.018 41.6281C147.942 41.545 147.777 41.5056 147.522 41.5056H147.25V42.5578H146.585V39.7316L146.587 39.7294ZM149.125 39.6594C149.532 40.0684 149.736 40.565 149.736 41.1491C149.736 41.7331 149.532 42.2275 149.125 42.6366C148.719 43.0456 148.223 43.2513 147.644 43.2513C147.066 43.2513 146.572 43.0456 146.165 42.6366C145.758 42.2275 145.554 41.7309 145.554 41.1491C145.554 40.5672 145.756 40.0706 146.165 39.6594C146.574 39.2503 147.066 39.0447 147.644 39.0447C148.223 39.0447 148.716 39.2503 149.125 39.6594ZM145.861 39.3531C146.354 38.8566 146.948 38.6094 147.646 38.6094C148.344 38.6094 148.94 38.8566 149.438 39.3531C149.937 39.8475 150.185 40.4469 150.185 41.1491C150.185 41.8513 149.937 42.4506 149.438 42.9516C148.943 43.4525 148.344 43.7019 147.646 43.7019C146.948 43.7019 146.354 43.4525 145.861 42.9516C145.367 42.4506 145.121 41.8513 145.121 41.1491C145.121 40.4469 145.367 39.8497 145.861 39.3531Z" fill="white"/>
</g>
<defs>
<clipPath id="clip0_3633_89649">
<rect width="174" height="70" fill="white" transform="translate(0.40625 15)"/>
</clipPath>
</defs>
</svg>
