<svg width="206" height="100" viewBox="0 0 206 100" fill="none" xmlns="http://www.w3.org/2000/svg">
<path d="M65.0664 32.4948H57.9258C57.8354 32.4948 57.7477 32.5206 57.6702 32.5695C57.5928 32.6185 57.5334 32.6882 57.4947 32.7681L43.265 62.3255C43.2418 62.3744 43.2031 62.4131 43.154 62.4363C43.105 62.4596 43.0508 62.4673 42.9965 62.4544C42.9449 62.4415 42.8959 62.4131 42.8623 62.3719C42.8287 62.3306 42.8081 62.2765 42.8081 62.2249V32.9744C42.8081 32.8481 42.7565 32.7243 42.6661 32.634C42.5757 32.5438 42.4544 32.4948 42.3253 32.4948H37.3558C37.2293 32.4948 37.1054 32.5463 37.015 32.634C36.9247 32.7243 36.873 32.8455 36.873 32.9744V69.8811C36.873 70.0075 36.9247 70.1313 37.015 70.2215C37.1054 70.3118 37.2267 70.3608 37.3558 70.3608H44.5016C44.592 70.3608 44.6797 70.335 44.7572 70.286C44.8346 70.237 44.894 70.1674 44.9327 70.0874L59.1624 40.463C59.1701 40.4321 59.183 40.4011 59.2011 40.3753C59.2192 40.3496 59.2424 40.3264 59.2708 40.3083C59.2992 40.2903 59.3276 40.2799 59.3611 40.2722C59.3921 40.267 59.4257 40.267 59.4567 40.2722C59.4876 40.2799 59.5186 40.2928 59.5444 40.3109C59.5703 40.3289 59.5935 40.3521 59.6116 40.3805C59.6296 40.4089 59.64 40.4372 59.6477 40.4708C59.6529 40.5017 59.6529 40.5352 59.6477 40.5662V69.8785C59.6477 70.0049 59.6993 70.1287 59.7897 70.2189C59.88 70.3092 60.0014 70.3582 60.1305 70.3582H65.0716C65.1981 70.3582 65.322 70.3066 65.4124 70.2189C65.5027 70.1287 65.5543 70.0075 65.5543 69.8785V32.9718C65.5543 32.8455 65.5027 32.7217 65.4124 32.6314C65.322 32.5412 65.2007 32.4922 65.0716 32.4922" fill="black"/>
<path d="M93.4172 64.5832C93.4172 64.7095 93.3656 64.8333 93.2752 64.9236C93.1848 65.0138 93.0635 65.0628 92.9344 65.0628H77.9458C77.8813 65.0628 77.8167 65.0448 77.7599 65.0112C77.7031 64.9777 77.6592 64.9313 77.6283 64.8746C77.5973 64.8178 77.5818 64.7534 77.5844 64.6889C77.587 64.6244 77.6076 64.56 77.6438 64.5058C78.3434 63.2964 78.8958 62.007 79.2882 60.6661C80.0214 58.4252 80.4138 55.488 80.4603 51.852L80.7236 38.4813C80.7236 38.355 80.7752 38.2312 80.8656 38.1409C80.9559 38.0507 81.0773 38.0017 81.2063 38.0017H92.9422C93.0687 38.0017 93.1926 38.0532 93.2829 38.1409C93.3733 38.2312 93.4249 38.3524 93.4249 38.4813L93.4198 64.5832H93.4172ZM101.554 65.0628H100.114C99.9873 65.0628 99.8634 65.0112 99.773 64.9236C99.6827 64.8333 99.631 64.7121 99.631 64.5832V32.9757C99.631 32.8494 99.5794 32.7256 99.489 32.6353C99.3987 32.5451 99.2774 32.4961 99.1483 32.4961H75.3539C75.2274 32.4961 75.1035 32.5477 75.0131 32.6353C74.9228 32.7256 74.8711 32.8468 74.8711 32.9757L74.4684 51.6973C74.4271 55.2379 73.9805 58.1518 73.1286 60.4443C72.3257 62.6001 71.5616 64.0881 70.8207 64.9029C70.7768 64.9519 70.7226 64.9906 70.6606 65.0164C70.6012 65.0422 70.5341 65.0577 70.4696 65.0577C69.7054 65.0577 68.9722 65.3619 68.4301 65.9009C67.8906 66.4399 67.5859 67.1748 67.5859 67.9381V79.5114C67.5859 79.6378 67.6376 79.7615 67.7279 79.8518C67.8183 79.9421 67.9396 79.991 68.0687 79.991H72.62C72.7465 79.991 72.8704 79.9395 72.9608 79.8518C73.0511 79.7615 73.1028 79.6403 73.1028 79.5114V70.8417C73.1028 70.7154 73.1544 70.5916 73.2448 70.5013C73.3351 70.4111 73.4564 70.3621 73.5855 70.3621H98.4745C98.601 70.3621 98.7249 70.4137 98.8153 70.5013C98.9056 70.5916 98.9572 70.7128 98.9572 70.8417V79.5217C98.9572 79.6481 99.0089 79.7719 99.0992 79.8621C99.1896 79.9524 99.3109 80.0014 99.44 80.0014H103.991C104.118 80.0014 104.242 79.9498 104.332 79.8621C104.422 79.7719 104.474 79.6507 104.474 79.5217V67.9484C104.474 67.5668 104.399 67.1903 104.252 66.837C104.105 66.4837 103.891 66.1665 103.62 65.8983C103.348 65.6301 103.028 65.4187 102.675 65.2743C102.321 65.1299 101.942 65.0602 101.562 65.0628H101.554Z" fill="black"/>
<path d="M32.2293 32.5284H19.1872V32.5C15.8234 32.5542 12.9398 33.3407 10.8694 34.8621C9.93226 35.5145 9.15779 36.3732 8.60791 37.3712C8.05804 38.3718 7.74567 39.4832 7.69662 40.623C7.69662 40.6385 7.69662 40.6539 7.69662 40.672V41.1516L7.60626 45.5097C7.5443 48.6686 7.44362 53.7384 7.44362 53.7384C7.39457 58.0036 6.94796 60.964 6.09862 62.6195C5.24928 64.275 3.76746 65.1002 1.65315 65.0977H0.889005C0.762507 65.0977 0.638592 65.1492 0.548237 65.2395C0.457882 65.3297 0.40625 65.4509 0.40625 65.5799V70.3815C0.40625 70.5078 0.457882 70.6316 0.548237 70.7219C0.638592 70.8121 0.759926 70.8637 0.889005 70.8637H1.99392C6.03408 70.8637 8.95126 69.5563 10.7455 66.9414C12.5397 64.3266 13.5 60.0073 13.6291 53.9808L13.8175 45.5612H13.784L13.8743 41.149C13.975 40.7235 14.166 40.3264 14.4319 39.9809C14.6978 39.6353 15.036 39.3517 15.4207 39.1454C15.7769 38.9262 16.1564 38.7508 16.554 38.6219C17.4059 38.3382 18.2991 38.1861 19.1975 38.1706H26.1368C26.2375 38.1964 26.3278 38.2557 26.3898 38.3382C26.4518 38.4207 26.4905 38.5213 26.4905 38.627V69.8889C26.4905 70.0153 26.5421 70.1391 26.6325 70.2293C26.7228 70.3196 26.8442 70.3686 26.9732 70.3686H32.2164C32.3429 70.3686 32.4668 70.317 32.5572 70.2293C32.6475 70.1391 32.6992 70.0179 32.6992 69.8889V32.9822C32.6914 32.8636 32.6372 32.7501 32.5494 32.6676C32.4617 32.5851 32.3481 32.5387 32.2267 32.5361L32.2293 32.5284Z" fill="black"/>
<path d="M138.206 32.5245H125.143V32.4961C121.779 32.5477 118.896 33.3368 116.82 34.8582C115.883 35.5106 115.108 36.3693 114.559 37.3673C114.009 38.3653 113.696 39.4793 113.647 40.6191C113.647 40.6345 113.647 40.65 113.647 40.6681V41.1477L113.557 45.5058C113.495 48.6647 113.399 53.7345 113.399 53.7345C113.35 58.0048 112.904 60.9652 112.054 62.6156C111.205 64.266 109.723 65.0938 107.609 65.0938H106.85C106.723 65.0938 106.6 65.1453 106.509 65.2356C106.419 65.3258 106.367 65.447 106.367 65.576V70.4008C106.367 70.5271 106.419 70.6509 106.509 70.7412C106.6 70.8314 106.721 70.8804 106.85 70.8804H107.955C111.995 70.8804 114.912 69.573 116.706 66.9582C118.501 64.3434 119.461 60.024 119.59 53.9975L119.773 45.578H119.74L119.835 41.1658C119.936 40.7429 120.127 40.3432 120.393 39.9976C120.659 39.6521 120.997 39.3684 121.382 39.1621C121.738 38.9429 122.117 38.7676 122.515 38.6386C123.367 38.355 124.26 38.2028 125.158 38.1873H132.118C132.219 38.2131 132.309 38.2724 132.377 38.355C132.441 38.4375 132.477 38.538 132.48 38.6438V69.9057C132.48 70.032 132.531 70.1558 132.622 70.2461C132.712 70.3363 132.834 70.3853 132.963 70.3853H138.206C138.332 70.3853 138.456 70.3337 138.547 70.2461C138.637 70.1558 138.689 70.0346 138.689 69.9057V32.9989C138.689 32.8752 138.634 32.754 138.547 32.6663C138.459 32.5786 138.337 32.5296 138.213 32.527L138.206 32.5245Z" fill="black"/>
<path d="M166.017 56.1693C166.022 56.404 166.014 56.6386 165.988 56.8707C165.963 57.1363 165.914 57.3994 165.844 57.6572L165.815 57.7759C165.55 58.9827 165.09 60.1406 164.45 61.1978C163.843 62.2061 163.066 63.1009 162.147 63.8384C161.556 64.3104 160.91 64.7126 160.224 65.0376C159.741 65.231 159.243 65.3908 158.739 65.5172C156.504 66.0974 154.152 66.0845 151.924 65.4734C151.201 65.2 150.527 64.808 149.928 64.3155C149.208 63.7043 148.638 62.9359 148.261 62.072C147.884 61.2056 147.711 60.2669 147.755 59.3231C147.755 57.3504 148.351 55.7902 149.546 54.6427C150.742 53.4926 152.373 52.9201 154.438 52.9201H165.986L166.009 56.1642L166.017 56.1693ZM168.418 35.1862C165.89 32.9453 162.444 31.8262 158.081 31.8262C155.644 31.7901 153.228 32.2594 150.982 33.2032C148.994 34.0284 147.233 35.3152 145.844 36.9578C144.657 38.389 143.867 40.1064 143.557 41.9399C143.547 42.0095 143.549 42.0792 143.57 42.1462C143.588 42.2133 143.622 42.2752 143.668 42.3293C143.715 42.3835 143.771 42.4247 143.836 42.4531C143.9 42.4814 143.97 42.4969 144.04 42.4943H149.293C149.404 42.4969 149.513 42.4608 149.601 42.3938C149.688 42.3267 149.75 42.2287 149.774 42.1204C150.181 40.8001 151.031 39.6552 152.177 38.879C153.599 37.8036 155.505 37.2647 157.895 37.2621C160.376 37.2621 162.351 37.9016 163.825 39.1833C165.299 40.4623 166.022 42.2519 165.994 44.5444V48.3326H154.276C150.372 48.3326 147.272 49.3434 144.972 51.3626C142.672 53.3817 141.523 56.159 141.525 59.697C141.525 63.1809 142.674 65.9478 144.972 67.9928C147.187 69.9603 150.197 70.9686 153.992 71.0408H154.415C155.265 71.0408 156.114 70.9893 156.958 70.8809H157.054C158.135 70.8087 159.201 70.5844 160.221 70.2182L160.299 70.1795H160.361C160.683 70.0454 160.941 69.9165 161.114 69.8288C161.202 69.785 161.287 69.7463 161.37 69.6999C163.36 68.5756 165.005 66.9303 166.133 64.9421V69.9113C166.133 70.0377 166.185 70.1615 166.275 70.2517C166.365 70.342 166.487 70.391 166.616 70.391H172.2V44.3536C172.21 40.4907 170.95 37.4349 168.423 35.1837L168.418 35.1862Z" fill="black"/>
<path d="M199.171 56.2163C199.171 59.0709 198.402 61.335 196.861 63.0138C195.157 64.6306 192.895 65.5332 190.543 65.5332C188.192 65.5332 185.933 64.6306 184.226 63.0138C182.677 61.335 181.905 59.0683 181.911 56.2163V50.0273C181.903 49.05 182.009 48.0778 182.226 47.1237C182.461 46.3294 182.796 45.5687 183.219 44.857C183.759 43.9389 184.453 43.1215 185.277 42.4433C185.806 42.0101 186.387 41.6413 187.007 41.3447L187.407 41.1849C188.419 40.8599 189.477 40.7001 190.543 40.7104C191.713 40.6537 192.88 40.8496 193.967 41.2854C195.053 41.7187 196.034 42.384 196.842 43.2298C198.381 44.9085 199.153 47.1752 199.153 50.0273L199.174 56.2163H199.171ZM201.864 39.4288C199.53 36.832 196.355 35.5323 192.338 35.5323C191.692 35.5323 191.047 35.5658 190.407 35.638C188.809 35.7566 187.252 36.2157 185.842 36.9815C184.51 37.8222 183.364 38.9285 182.484 40.2333C182.357 40.4087 182.231 40.584 182.12 40.7645C182.009 40.945 181.769 41.1771 181.769 41.3164V38.3998C181.874 34.72 182.938 31.7828 184.996 29.6012C187.156 27.301 190.032 26.1509 193.626 26.1457H202.816C202.943 26.1457 203.064 26.0967 203.152 26.0065C203.242 25.9162 203.291 25.7976 203.291 25.6713V20.488C203.291 20.3617 203.242 20.2405 203.152 20.1502C203.064 20.06 202.943 20.0084 202.814 20.0058H193.646C190.311 19.9233 187.014 20.7227 184.087 22.3215C181.415 23.8326 179.252 26.1045 177.873 28.8482C176.353 31.9969 175.606 35.4601 175.697 38.9543V56.2291C175.697 60.7806 177.031 64.3908 179.701 67.0624C182.37 69.7339 185.984 71.0671 190.541 71.062C195.095 71.062 198.709 69.7288 201.381 67.0624C204.055 64.396 205.395 60.7832 205.406 56.2291V50.0247C205.406 45.5635 204.226 42.0307 201.864 39.4288Z" fill="black"/>
</svg>
