<svg width="205" height="100" viewBox="0 0 205 100" fill="none" xmlns="http://www.w3.org/2000/svg">
<path d="M20.4484 47.9023H14.5V77.6562H20.4484V47.9023Z" fill="black"/>
<path d="M27.4894 41.7617H21.541V77.6556H27.4894V41.7617Z" fill="black"/>
<path d="M34.5289 47.9023H28.5898V77.6562H34.5289V47.9023Z" fill="black"/>
<path d="M6.34535 49.0681L0.40625 43.7618V28.5078H6.34535V49.0681Z" fill="black"/>
<path d="M13.3996 55.701L7.45117 49.8374V21.7695H13.3996V55.701Z" fill="black"/>
<path d="M20.4484 15.1367H14.5V46.97H20.4484V15.1367Z" fill="black"/>
<path d="M27.4894 8.5H21.541V40.4457H27.4894V8.5Z" fill="black"/>
<path d="M42.6797 49.0681L48.6188 43.7618V28.5078H42.6797V49.0681Z" fill="black"/>
<path d="M35.6309 55.701L41.584 49.8374V21.7695H35.6309V55.701Z" fill="black"/>
<path d="M34.5289 15.1367H28.5898V46.97H34.5289V15.1367Z" fill="black"/>
<path d="M75.2074 68.3879C75.2074 67.5542 75.0302 66.9313 74.6849 66.5567C74.3397 66.1679 73.5699 65.9806 72.3755 65.9806H69.8375C68.7318 65.9806 67.9947 66.1913 67.6261 66.5988C67.2482 67.0203 67.0663 67.6104 67.0663 68.3832V71.8396C67.0663 72.6077 67.2482 73.1931 67.6261 73.6193C67.99 74.0267 68.7318 74.2469 69.8375 74.2469H72.3755C73.5699 74.2469 74.3257 74.0548 74.6616 73.6755C74.9882 73.2914 75.1701 72.692 75.2074 71.863V68.3832V68.3879ZM78.6179 76.5745C77.8807 77.3239 76.4951 77.6985 74.4703 77.6985H67.8407C65.8299 77.6985 64.449 77.3426 63.6698 76.612C62.886 75.8861 62.4941 74.7948 62.4941 73.3383V66.8892C62.4941 65.4233 62.886 64.3414 63.6698 63.6108C64.449 62.8848 65.8299 62.5195 67.8407 62.5195H74.4703C76.4951 62.5195 77.8807 62.8942 78.6179 63.6482C79.369 64.3976 79.7422 65.4888 79.7422 66.8892V73.3383C79.7422 74.748 79.3737 75.8252 78.6179 76.5745Z" fill="black"/>
<path d="M98.4918 76.5745C97.75 77.3239 96.369 77.6985 94.3536 77.6985H87.7193C85.7178 77.6985 84.3229 77.3426 83.5437 76.612C82.7646 75.8861 82.3867 74.7948 82.3867 73.3383V66.8892C82.3867 65.4279 82.7646 64.3414 83.5437 63.6108C84.3275 62.8848 85.7225 62.5195 87.7193 62.5195H94.3536C96.369 62.5195 97.75 62.8942 98.4918 63.6482C99.2383 64.4023 99.6022 65.4888 99.6022 66.8892V68.3879H95.0767C95.0767 67.5542 94.8994 66.9313 94.5542 66.5567C94.2136 66.1679 93.4391 65.9806 92.2494 65.9806H89.7068C88.6011 65.9806 87.8686 66.1913 87.4907 66.5988C87.1268 67.0203 86.9402 67.6104 86.9402 68.3832V71.8396C86.9402 72.6077 87.1268 73.1931 87.4907 73.6193C87.8733 74.0267 88.6057 74.2469 89.7068 74.2469H92.2494C93.4391 74.2469 94.2136 74.0548 94.5542 73.6755C94.8994 73.2914 95.0767 72.6732 95.0767 71.8396H99.6022V73.3336C99.6022 74.7433 99.2383 75.8205 98.4918 76.5698" fill="black"/>
<path d="M106.787 77.6985H102.285L102.252 73.3336V66.8892L102.285 62.5195H106.787V68.3364H114.923V62.5195H119.481V77.6985H114.923V71.7834H106.787V77.6985Z" fill="black"/>
<path d="M127.954 71.7834H126.652C126.676 72.5889 126.867 73.1978 127.245 73.624C127.614 74.0314 128.355 74.2469 129.461 74.2469H139.356V77.6985H127.464C125.458 77.6985 124.063 77.3426 123.289 76.6073C122.514 75.8861 122.127 74.7901 122.127 73.3336V66.8845C122.127 65.4186 122.514 64.3367 123.289 63.6061C124.063 62.8802 125.458 62.5195 127.464 62.5195H139.356V65.9806H129.461C128.351 65.9806 127.614 66.196 127.245 66.5988C126.867 67.0203 126.68 67.5917 126.652 68.3317H139.356V71.7787H127.954V71.7834Z" fill="black"/>
<path d="M174.198 65.9806H167.979V62.5195H185.185V65.9806H178.704V77.6985H174.198V65.9806Z" fill="black"/>
<path d="M146.35 70.134C146.35 68.2372 147.918 68.4526 147.918 68.4526H152.499V71.6561H147.89C147.89 71.6561 146.35 71.7123 146.35 70.134ZM161.587 71.6561H156.983V68.4526H161.55C161.55 68.4526 163.132 68.2372 163.132 70.134C163.132 71.7123 161.587 71.6561 161.587 71.6561ZM163.986 65.2445H156.983V62.4766H152.513V65.2445H145.338C145.338 65.2445 141.27 65.3616 141.27 70.0075C141.27 74.6535 145.459 74.6769 145.459 74.6769H152.513V77.6743H156.983V74.6769H163.878C163.878 74.6769 168.068 74.6395 168.068 70.0075C168.068 65.3756 163.99 65.2445 163.99 65.2445H163.986Z" fill="black"/>
<path d="M53.8525 69.0155H47.1763V65.9759H53.8525C54.6923 65.9759 55.3688 66.655 55.3688 67.498C55.3688 68.341 54.6923 69.0155 53.8525 69.0155ZM58.7466 63.6482C58.0001 62.8989 56.6285 62.5195 54.6037 62.5195H42.6602V77.6985H47.167V72.4625H54.6037C56.6285 72.4625 58.0001 72.0878 58.7466 71.3431C59.493 70.5938 59.8663 69.5025 59.8663 68.0928V66.8798C59.8663 65.4795 59.493 64.3929 58.7466 63.6389V63.6482Z" fill="black"/>
<path d="M199.904 72.7201C199.904 73.5631 199.227 74.2422 198.387 74.2422H191.711V71.2073H198.387C199.232 71.2073 199.904 71.8911 199.904 72.7201ZM204.406 73.3336V72.1253C204.406 70.7109 204.033 69.629 203.3 68.875C202.549 68.1209 201.173 67.7556 199.148 67.7556H191.711V62.5195H187.209V77.6985H199.148C201.173 77.6985 202.549 77.3239 203.3 76.5745C204.037 75.8158 204.406 74.7339 204.406 73.3289V73.3336Z" fill="black"/>
<path d="M132.691 85.1992L130.825 89.7796L128.954 85.1992H126.178V91.4938H128.058V86.9789L129.966 91.4938H131.688L133.591 86.9789V91.4938H135.471V85.1992H132.691Z" fill="black"/>
<path d="M143.503 85.6676C143.196 85.3538 142.622 85.1992 141.782 85.1992H139.029C138.194 85.1992 137.616 85.3491 137.298 85.6535C136.972 85.9533 136.809 86.4029 136.809 87.0164V91.4938H138.703V89.508H142.085V91.4938C142.085 91.4938 142.095 91.4938 142.109 91.4938H143.97V87.0164C143.97 86.4263 143.821 85.9814 143.508 85.6676M138.703 87.6346C138.703 87.3161 138.782 87.0679 138.936 86.8993C139.09 86.726 139.393 86.637 139.855 86.637H140.91C141.404 86.637 141.721 86.7167 141.871 86.8759C142.011 87.0304 142.085 87.288 142.085 87.6346V88.0748H138.703V87.6346Z" fill="black"/>
<path d="M147.419 86.637H144.844V85.1992H151.973V86.637H149.29V91.4984H147.419V86.637Z" fill="black"/>
<path d="M155.26 89.0443H154.719C154.733 89.3768 154.813 89.6297 154.967 89.8077C155.12 89.9763 155.428 90.0653 155.89 90.0653H159.991V91.4984H155.06C154.229 91.4984 153.651 91.3486 153.329 91.0488C153.007 90.7491 152.844 90.2948 152.844 89.6906V87.0117C152.844 86.4075 153.007 85.9579 153.329 85.6535C153.651 85.3538 154.225 85.1992 155.06 85.1992H159.991V86.637H155.89C155.428 86.637 155.12 86.726 154.967 86.8946C154.813 87.0679 154.733 87.3021 154.719 87.6112H159.991V89.0443H155.265H155.26Z" fill="black"/>
<path d="M165.712 87.8969H162.945V86.637H165.712C166.057 86.637 166.337 86.918 166.337 87.2693C166.337 87.6206 166.062 87.8969 165.712 87.8969ZM167.741 85.6676C167.433 85.3585 166.864 85.1992 166.024 85.1992H161.074V91.4938H162.945V89.3253H166.029C166.869 89.3253 167.438 89.1708 167.746 88.857C168.054 88.5479 168.217 88.0936 168.217 87.5128V87.007C168.217 86.431 168.058 85.9814 167.746 85.6629L167.741 85.6676Z" fill="black"/>
<path d="M174.674 85.1992L171.166 89.8733V85.1992H169.281V91.4938H171.815L175.267 86.8244V91.4938H177.143V85.1992H174.674Z" fill="black"/>
<path d="M184.9 85.6676C184.592 85.3538 184.018 85.1992 183.183 85.1992H180.426C179.595 85.1992 179.017 85.3491 178.69 85.6535C178.368 85.9533 178.205 86.4029 178.205 87.0164V91.4938H180.099V89.508H183.477V91.4938C183.477 91.4938 183.491 91.4938 183.496 91.4938H185.357V87.0164C185.357 86.4263 185.203 85.9814 184.891 85.6676M180.104 87.6346C180.104 87.3161 180.179 87.0679 180.333 86.8993C180.486 86.726 180.794 86.637 181.256 86.637H182.311C182.81 86.637 183.118 86.7167 183.262 86.8759C183.412 87.0304 183.482 87.288 183.482 87.6346V88.0748H180.104V87.6346Z" fill="black"/>
<path d="M202.35 87.6112V85.1992H204.244V91.4938H202.35V89.0443V87.6112Z" fill="black"/>
<path d="M200.002 89.4362C200.002 89.7827 199.717 90.0638 199.372 90.0638H196.605V88.8039H199.372C199.717 88.8039 200.002 89.0849 200.002 89.4362ZM201.868 89.6891V89.188C201.868 88.6025 201.714 88.1529 201.406 87.8391C201.093 87.5253 200.529 87.3755 199.684 87.3755H196.601V85.207H194.734V91.5016H199.684C200.529 91.5016 201.093 91.347 201.406 91.0379C201.714 90.7241 201.868 90.2745 201.868 89.6938V89.6891Z" fill="black"/>
<path d="M189.3 85.2109C188.47 85.2109 187.891 85.3608 187.569 85.6605C187.248 85.9603 187.084 86.4146 187.084 87.0234V89.0888C187.084 89.3932 187.005 89.6274 186.851 89.7913C186.734 89.9225 186.529 90.0068 186.23 90.0349V91.4821H186.762C187.597 91.4821 188.167 91.3322 188.489 91.0324C188.82 90.7327 188.978 90.2784 188.978 89.6696V87.6042C188.978 87.2998 189.058 87.0656 189.207 86.9017C189.356 86.7284 189.664 86.6441 190.121 86.6441H191.764V91.4961H193.639V85.2109H189.296H189.3Z" fill="black"/>
<path d="M68.1148 85.6676C67.8069 85.3538 67.2284 85.1992 66.3933 85.1992H63.636C62.8056 85.1992 62.227 85.3491 61.9051 85.6535C61.5785 85.9533 61.4199 86.4029 61.4199 87.0164V91.4938H63.3141V89.508H66.6965V91.4938C66.6965 91.4938 66.7059 91.4938 66.7152 91.4938H68.5767V87.0164C68.5767 86.4263 68.4227 85.9814 68.1148 85.6676ZM63.3141 87.6346C63.3141 87.3161 63.3934 87.0679 63.5474 86.8993C63.6967 86.726 64.0046 86.637 64.4664 86.637H65.5162C66.0107 86.637 66.328 86.7167 66.4726 86.8759C66.6125 87.0304 66.6919 87.288 66.6919 87.6346V88.0748H63.3094V87.6346H63.3141Z" fill="black"/>
<path d="M83.2868 87.6307C83.2868 87.2841 83.2168 87.0265 83.0675 86.8767C82.9276 86.7174 82.6103 86.6331 82.1111 86.6331H81.0661C80.6042 86.6331 80.2963 86.7221 80.147 86.8907C79.993 87.064 79.909 87.3075 79.909 87.626V89.0591C79.909 89.3776 79.9883 89.6258 80.147 89.7991C80.2963 89.9677 80.6042 90.0567 81.0661 90.0567H82.1111C82.6103 90.0567 82.9229 89.9771 83.0582 89.8179C83.1935 89.6586 83.2681 89.4104 83.2821 89.0685V87.626L83.2868 87.6307ZM84.7051 91.0262C84.3972 91.34 83.8233 91.4945 82.9836 91.4945H80.2356C79.4052 91.4945 78.8267 91.34 78.5094 91.0402C78.1828 90.7405 78.0195 90.2862 78.0195 89.6774V87.0031C78.0195 86.399 78.1828 85.9493 78.5094 85.6496C78.8313 85.3452 79.4052 85.1953 80.2356 85.1953H82.9836C83.8233 85.1953 84.3972 85.3499 84.7051 85.659C85.0177 85.9681 85.167 86.4224 85.167 87.0031V89.6774C85.167 90.2628 85.0177 90.7124 84.7051 91.0215V91.0262Z" fill="black"/>
<path d="M49.3411 91.0262C49.0331 91.34 48.464 91.4945 47.6242 91.4945H44.8716C44.0411 91.4945 43.4626 91.3447 43.1407 91.0449C42.8188 90.7452 42.6602 90.2909 42.6602 89.6867V87.0078C42.6602 86.4036 42.8188 85.954 43.1407 85.6496C43.4626 85.3499 44.0411 85.1953 44.8716 85.1953H47.6242C48.464 85.1953 49.0331 85.3545 49.3411 85.6637C49.649 85.9774 49.8029 86.4271 49.8029 87.0078V87.6307H47.9274C47.9274 87.2841 47.8528 87.0265 47.7082 86.872C47.5682 86.7127 47.2463 86.6331 46.7517 86.6331H45.6974C45.2401 86.6331 44.9369 86.7221 44.7783 86.8907C44.629 87.064 44.5497 87.3075 44.5497 87.626V89.0591C44.5497 89.3776 44.629 89.6212 44.7783 89.7991C44.9369 89.9677 45.2401 90.0567 45.6974 90.0567H46.7517C47.2463 90.0567 47.5682 89.9771 47.7082 89.8179C47.8528 89.6586 47.9274 89.4057 47.9274 89.0591H49.8029V89.6774C49.8029 90.2628 49.6536 90.7077 49.3411 91.0168" fill="black"/>
<path d="M96.4993 91.4984H94.6331L94.6191 89.686V87.0117L94.6331 85.1992H96.4993V87.6112H99.8724V85.1992H101.762V91.4984H99.8724V89.0443H96.4993V91.4984Z" fill="black"/>
<path d="M116.001 89.0443H115.46C115.47 89.3768 115.549 89.6297 115.703 89.8077C115.857 89.9763 116.165 90.0653 116.622 90.0653H120.723V91.4984H115.792C114.961 91.4984 114.383 91.3486 114.065 91.0488C113.743 90.7491 113.58 90.2948 113.58 89.6906V87.0117C113.58 86.4075 113.743 85.9579 114.065 85.6535C114.383 85.3538 114.961 85.1992 115.792 85.1992H120.723V86.637H116.622C116.165 86.637 115.852 86.726 115.703 86.8946C115.549 87.0679 115.465 87.3021 115.46 87.6112H120.728V89.0443H116.001Z" fill="black"/>
<path d="M110.537 87.6112V85.1992H112.427V91.4938H110.537V89.0443V87.6112Z" fill="black"/>
<path d="M108.192 89.4362C108.192 89.7827 107.912 90.0638 107.562 90.0638H104.795V88.8039H107.562C107.912 88.8039 108.192 89.0849 108.192 89.4362ZM110.058 89.6891V89.188C110.058 88.6025 109.904 88.1529 109.6 87.8391C109.288 87.5253 108.719 87.3755 107.879 87.3755H104.8V85.207H102.934V91.5016H107.884C108.723 91.5016 109.293 91.347 109.605 91.0379C109.913 90.7241 110.062 90.2745 110.062 89.6938L110.058 89.6891Z" fill="black"/>
<path d="M76.5965 88.6423C76.4845 88.5159 76.3492 88.3988 76.1859 88.3004C76.3165 88.2068 76.4285 88.099 76.5125 87.9726C76.6571 87.7525 76.7411 87.4574 76.7551 87.0453C76.7411 86.6144 76.6525 86.2584 76.4985 85.9868C76.3305 85.7058 76.0739 85.4997 75.724 85.378C75.3928 85.2562 74.9542 85.1953 74.413 85.1953H71.9217C71.0819 85.1953 70.5081 85.3499 70.2002 85.659C69.8876 85.9728 69.7383 86.4458 69.7383 87.0359V87.0499H71.7397C71.7677 86.9891 71.8004 86.9422 71.8424 86.8954C71.959 86.7689 72.183 86.694 72.5189 86.6706H74.511C74.9542 86.6706 75.0149 86.8813 75.0149 87.1108C75.0149 87.4808 74.8703 87.6307 74.511 87.6307H72.5795V89.0217H74.3477C74.581 89.0217 74.7583 89.0404 74.8843 89.0872C74.9822 89.12 75.0475 89.1669 75.0755 89.2278C75.1129 89.3027 75.1315 89.4057 75.1315 89.5322C75.1315 89.7055 75.0802 89.8225 74.9822 89.8975C74.8703 89.9818 74.665 90.0239 74.3944 90.0239H72.5235C72.1923 89.9958 71.9637 89.9256 71.8471 89.7991C71.8191 89.7663 71.7911 89.7289 71.7724 89.6867H69.7429C69.7429 90.2581 69.9062 90.7171 70.2048 91.0262C70.5174 91.34 71.0913 91.4992 71.9264 91.4992H74.721C75.2062 91.4992 75.6121 91.429 75.92 91.2978C76.2466 91.1526 76.4892 90.9325 76.6478 90.6281C76.7971 90.3377 76.8717 89.9631 76.8717 89.5181C76.8717 89.1575 76.7784 88.8671 76.6011 88.647" fill="black"/>
<path d="M91.602 85.207L91.5927 87.9H88.8261C88.4762 87.9 88.1963 87.6143 88.1963 87.2724C88.1963 87.2724 88.1963 87.2724 88.1963 85.207H86.3301V87.5207C86.3301 88.1061 86.484 88.5557 86.7966 88.8695C87.1045 89.1786 87.6737 89.3331 88.5135 89.3331H91.5927V91.5016H93.4635V85.207H91.602Z" fill="black"/>
<path d="M57.4739 85.1992L55.6077 89.7796L53.7415 85.1992H50.9609V91.4938H52.8458V86.9789L54.7539 91.4938H56.4708L58.379 86.9789V91.4938H60.2591V85.1992H57.4739Z" fill="black"/>
</svg>
