<svg width="128" height="128" viewBox="0 0 128 128" fill="none" xmlns="http://www.w3.org/2000/svg">
<g clip-path="url(#clip0_2661_15699)">
<path fill-rule="evenodd" clip-rule="evenodd" d="M14 60.7063H17.841V43.0023H14V60.7063ZM21.9255 60.7063H25.7665V46.7949H27.926L37.168 60.704H45.3302L45.3545 43H41.5135V56.9091H39.354L30.1098 43.0023H21.9476L21.9233 60.7063H21.9255ZM57.0458 60.7063H60.8869V46.7949H69.4098V43.0023H48.5252V46.7949H57.0481V60.704L57.0458 60.7063ZM72.3503 60.7063H89.8032V56.9137H76.1913V52.1096H89.0575V51.6037H76.1913V46.7995H89.8032V43.0023H72.3503V60.7063ZM106.933 52.1072C110.942 52.1072 113.367 50.6154 113.367 48.5152C113.367 45.7832 111.04 43.0023 106.933 43.0023H92.9627V60.7063H96.8038V52.1072H101.51L108.856 60.7063H113.825L106.479 52.1072H106.935H106.933ZM96.8038 51.6014V46.7972H106.935C108.736 46.7972 109.648 48.2145 109.648 49.1748C109.648 50.3893 108.736 51.6037 106.935 51.6037H96.8038V51.6014ZM33.6101 79.6783C37.8826 79.6783 40.0443 76.8461 40.0443 74.014C40.0443 71.1818 37.8826 68.2984 33.6101 68.2984H14.0199V86.0023H17.861V79.6806H33.6079L33.6101 79.6783ZM17.861 79.1725V72.0909H33.6079C35.409 72.0909 36.3206 73.8601 36.3206 75.6317C36.3206 77.4033 35.409 79.1725 33.6079 79.1725H17.861ZM56.3179 77.4033C60.3271 77.4033 62.7521 75.9114 62.7521 73.8112C62.7521 71.0792 60.4245 68.2984 56.3179 68.2984H42.3454V86.0023H46.1865V77.4033H50.8926L58.2384 86.0023H63.2079L55.8621 77.4033H56.3179ZM46.1887 76.8974V72.0932H56.3201C58.1212 72.0932 59.0327 73.5105 59.0327 74.4709C59.0327 75.6853 58.1212 76.8998 56.3201 76.8998H46.1887V76.8974ZM79.1717 86.0023C86.2807 86.0023 88.1946 81.8205 88.2676 77.4149H84.2828C84.212 81.0023 82.6654 82.2098 79.1717 82.2098H73.8195C70.328 82.2098 68.7792 81.0047 68.7084 77.4149H64.7235C64.7965 81.8205 66.7104 86.0023 73.8195 86.0023H79.1717ZM88.2676 76.8858C88.1946 72.4802 86.2807 68.2984 79.1717 68.2984H73.8195C66.7104 68.2984 64.7965 72.4802 64.7235 76.8858H68.7084C68.7792 73.2984 70.3258 72.0909 73.8195 72.0909H79.1717C82.6632 72.0909 84.212 73.296 84.2828 76.8858H88.2676Z" fill="white"/>
</g>
<defs>
<clipPath id="clip0_2661_15699">
<rect width="100" height="43" fill="white" transform="translate(14 43)"/>
</clipPath>
</defs>
</svg>
